SplineFontDB: 3.2
FontName: linja_laso
FullName: linja laso
FamilyName: linja laso
Weight: Regular
Copyright: Copyright (c) 2026, mute ante
Version: 1.2
ItalicAngle: 0
UnderlinePosition: -96.3542
UnderlineWidth: 46.875
Ascent: 917
Descent: 83
InvalidEm: 0
sfntRevision: 0x0000e666
LayerCount: 2
Layer: 0 0 "Back" 1
Layer: 1 0 "Fore" 0
XUID: [1021 412 1039766594 11549582]
StyleMap: 0x0040
FSType: 0
OS2Version: 4
OS2_WeightWidthSlopeOnly: 0
OS2_UseTypoMetrics: 1
CreationTime: 1759787008
ModificationTime: 1773445265
PfmFamily: 17
TTFWeight: 400
TTFWidth: 5
LineGap: 92
VLineGap: 0
Panose: 2 0 5 3 0 0 0 0 0 0
OS2TypoAscent: 1083
OS2TypoAOffset: 0
OS2TypoDescent: -583
OS2TypoDOffset: 0
OS2TypoLinegap: 92
OS2WinAscent: 1042
OS2WinAOffset: 0
OS2WinDescent: 458
OS2WinDOffset: 0
HheadAscent: 1083
HheadAOffset: 0
HheadDescent: -583
HheadDOffset: 0
OS2SubXSize: 650
OS2SubYSize: 701
OS2SubXOff: 0
OS2SubYOff: 139
OS2SupXSize: 650
OS2SupYSize: 701
OS2SupXOff: 0
OS2SupYOff: 479
OS2StrikeYSize: 48
OS2StrikeYPos: 258
OS2Vendor: 'PfEd'
OS2CodePages: 00000001.00000000
OS2UnicodeRanges: 00000001.02000000.04000000.00000000
Lookup: 4 0 1 "LIGA basics" { "LIGA basics"  } ['liga' ('DFLT' <'dflt' > 'latn' <'dflt' > ) ]
Lookup: 4 0 1 "LIGA ni directions" { "LIGA ni directions-1"  } ['liga' ('DFLT' <'dflt' > 'latn' <'dflt' > ) ]
Lookup: 4 0 1 "LIGA alternates" { "LIGA alternates"  } ['liga' ('DFLT' <'dflt' > 'latn' <'dflt' > ) ]
Lookup: 1 0 0 "SS01 allow half spaces" { "SS01 allow half spaces"  } ['ss01' ('DFLT' <'dflt' > 'latn' <'dflt' > ) ]
Lookup: 5 0 0 "CALT colon te spacing" { "CALT colon te spacing"  } ['calt' ('DFLT' <'dflt' > 'latn' <'dflt' > ) ]
Lookup: 1 0 0 "SS20 colon te spacing" { "SS20 colon te spacing"  } ['ss20' ('DFLT' <'dflt' > 'latn' <'dflt' > ) ]
Lookup: 6 0 0 "CALT cartouches" { "CALT cartouches"  } ['calt' ('DFLT' <'dflt' > 'latn' <'dflt' > ) ]
Lookup: 2 0 0 "CCMP cartouches" { "CCMP cartouches"  } ['stch' ('DFLT' <'dflt' > 'latn' <'dflt' > ) ]

StartChar: .notdef
Encoding: 279 -1 0
GlifName: _notdef
Width: 1000
VWidth: 916
GlyphClass: 1
Flags: W
HStem: 0 21G<83 917> 813 20G<83 917>
VStem: 83 834<0 833>
LayerCount: 2
Fore
SplineSet
83 0 m 1
 83 833 l 1
 917 833 l 1
 917 0 l 1
 83 0 l 1
EndSplineSet
EndChar

StartChar: t.a
Encoding: 101 989440 2
GlifName: t.a
Width: 1000
GlyphClass: 1
Flags: W
HStem: -21 83<414.311 545.04> 292 83<414.311 545.682>
VStem: 281 84<112.142 241.858> 437 84<458 854> 676 83<-21 89.36>
LayerCount: 2
Fore
SplineSet
437 458 m 1
 437 854 l 1
 521 854 l 1
 521 458 l 1
 437 458 l 1
479 375 m 0
 531 375 582 354 619 317 c 0
 707 229 759 104 759 -21 c 1
 676 -21 l 1
 676 18 669 56 658 93 c 1
 625 23 556 -21 479 -21 c 0
 370 -21 281 68 281 177 c 0
 281 286 370 375 479 375 c 0
479 292 m 0
 416 292 365 240 365 177 c 0
 365 114 416 62 479 62 c 0
 542 62 594 114 594 177 c 0
 594 207 582 236 560 258 c 0
 538 280 509 292 479 292 c 0
EndSplineSet
MultipleSubs2: "CCMP cartouches" t.a cart.body
Ligature2: "LIGA basics" a
EndChar

StartChar: t.akesi
Encoding: 102 989441 3
GlifName: t.akesi
Width: 1000
GlyphClass: 1
Flags: W
HStem: -21 83<438.249 561.751> 146 83<208 312 398 602 688 792> 312 84<208 312 396 604 688 792> 479 83<208 312 398 602 688 792> 646 83<438.249 561.751> 729 146<281.5 384.5 615.5 718.5>
VStem: 260 146<750.5 853.5> 312 84<103.674 146 229 312 396 479 562 604.326> 594 146<750.5 853.5> 604 84<103.674 146 229 312 396 479 562 604.326>
LayerCount: 2
Fore
SplineSet
398 562 m 1xf8
 602 562 l 1
 592 610 551 646 500 646 c 0
 449 646 408 610 398 562 c 1xf8
396 396 m 1xf140
 604 396 l 1
 604 479 l 1
 396 479 l 1
 396 396 l 1xf140
396 229 m 1
 604 229 l 1
 604 312 l 1
 396 312 l 1
 396 229 l 1
398 146 m 1
 408 98 449 62 500 62 c 0
 551 62 592 98 602 146 c 1
 398 146 l 1
260 802 m 0xf6
 260 842 293 875 333 875 c 0
 373 875 406 842 406 802 c 0
 406 762 373 729 333 729 c 0
 293 729 260 762 260 802 c 0xf6
594 802 m 0xf480
 594 842 627 875 667 875 c 0
 707 875 740 842 740 802 c 0
 740 762 707 729 667 729 c 0
 627 729 594 762 594 802 c 0xf480
208 146 m 1
 208 229 l 1
 312 229 l 1
 312 312 l 1
 208 312 l 1
 208 396 l 1
 312 396 l 1
 312 479 l 1
 208 479 l 1
 208 562 l 1
 314 562 l 1
 324 656 403 729 500 729 c 0
 597 729 676 656 686 562 c 1
 792 562 l 1
 792 479 l 1
 688 479 l 1
 688 396 l 1
 792 396 l 1
 792 312 l 1
 688 312 l 1
 688 229 l 1xf940
 792 229 l 1
 792 146 l 1
 686 146 l 1
 676 52 597 -21 500 -21 c 0
 403 -21 324 52 314 146 c 1
 208 146 l 1
EndSplineSet
LCarets2: 4 -76 -76 -76 -76
MultipleSubs2: "CCMP cartouches" t.akesi cart.body
Ligature2: "LIGA basics" a k e s i
EndChar

StartChar: t.ala
Encoding: 103 989442 4
GlifName: t.ala
Width: 1000
GlyphClass: 1
Flags: W
HStem: 0 21G<122 162 838 878> 813 20G<122 162.056 837.944 878>
LayerCount: 2
Fore
SplineSet
142 833 m 1
 500 476 l 1
 858 833 l 1
 917 774 l 1
 559 417 l 1
 917 59 l 1
 858 0 l 1
 500 358 l 1
 142 0 l 1
 83 59 l 1
 441 417 l 1
 83 774 l 1
 142 833 l 1
EndSplineSet
LCarets2: 2 -169 -169
MultipleSubs2: "CCMP cartouches" t.ala cart.body
Ligature2: "LIGA basics" a l a
EndChar

StartChar: t.alasa
Encoding: 104 989443 5
GlifName: t.alasa
Width: 1000
GlyphClass: 1
Flags: W
HStem: 0 21G<167 275> 375 83<42 167 250 497 578.578 812>
VStem: 167 83<94 375 458 739> 497 84<298.594 375 458 534.406>
LayerCount: 2
Fore
SplineSet
250 458 m 1
 497 458 l 1
 480 594 381 705 250 739 c 1
 250 458 l 1
250 375 m 1
 250 94 l 1
 381 128 480 239 497 375 c 1
 250 375 l 1
42 375 m 1
 42 458 l 1
 167 458 l 1
 167 750 l 1
 167 771 l 1
 167 833 l 1
 383 833 560 668 581 458 c 1
 812 458 l 1
 670 587 l 1
 729 646 l 1
 958 417 l 1
 729 188 l 1
 670 246 l 1
 812 375 l 1
 581 375 l 1
 560 165 383 0 167 0 c 1
 167 62 l 1
 167 83 l 1
 167 375 l 1
 42 375 l 1
EndSplineSet
LCarets2: 4 -76 -76 -76 -76
MultipleSubs2: "CCMP cartouches" t.alasa cart.body
Ligature2: "LIGA basics" a l a s a
EndChar

StartChar: t.ale
Encoding: 105 989444 6
GlifName: t.ale
Width: 1000
GlyphClass: 1
Flags: W
HStem: 167 83<181.684 320.441 679.559 818.316> 583 84<181.684 320.441 679.559 818.316>
VStem: 42 83<308.24 524.867> 875 83<308.24 524.867>
LayerCount: 2
Fore
SplineSet
250 667 m 0
 312 667 371 639 411 591 c 2
 500 482 l 1
 589 591 l 2
 629 639 688 667 750 667 c 0
 865 667 958 573 958 458 c 2
 958 375 l 1
 875 375 l 1
 875 458 l 2
 875 527 819 583 750 583 c 0
 713 583 678 567 654 538 c 2
 554 417 l 1
 654 295 l 2
 678 266 713 250 750 250 c 0
 819 250 875 306 875 375 c 1
 958 375 l 1
 958 260 865 167 750 167 c 0
 688 167 629 195 589 243 c 2
 500 351 l 1
 411 242 l 2
 371 194 312 167 250 167 c 0
 135 167 42 260 42 375 c 1
 125 375 l 1
 125 306 181 250 250 250 c 0
 287 250 322 266 346 295 c 2
 446 417 l 1
 346 538 l 2
 322 567 287 583 250 583 c 0
 181 583 125 527 125 458 c 1
 42 458 l 1
 42 573 135 667 250 667 c 0
42 458 m 1
 125 458 l 1
 125 375 l 1
 42 375 l 1
 42 458 l 1
EndSplineSet
LCarets2: 2 -76 -76
MultipleSubs2: "CCMP cartouches" t.ale cart.body
Ligature2: "LIGA basics" a l e
EndChar

StartChar: t.anpa
Encoding: 106 989445 7
GlifName: t.anpa
Width: 1000
GlyphClass: 1
Flags: W
HStem: 104 146<448.5 551.5> 333 84<167 833>
VStem: 83 84<417 667> 427 146<125.5 228.5> 833 84<417 667>
CounterMasks: 1 38
LayerCount: 2
Fore
SplineSet
427 177 m 0
 427 217 460 250 500 250 c 0
 540 250 573 217 573 177 c 0
 573 137 540 104 500 104 c 0
 460 104 427 137 427 177 c 0
83 667 m 1
 167 667 l 1
 167 417 l 1
 833 417 l 1
 833 667 l 1
 917 667 l 1
 917 333 l 1
 83 333 l 1
 83 667 l 1
EndSplineSet
LCarets2: 3 -76 -76 -76
MultipleSubs2: "CCMP cartouches" t.anpa cart.body
Ligature2: "LIGA basics" a n p a
EndChar

StartChar: t.ante
Encoding: 107 989446 8
GlifName: t.ante
Width: 1000
GlyphClass: 1
Flags: W
LayerCount: 2
Fore
SplineSet
111 859 m 1
 500 582 l 1
 889 859 l 1
 938 792 l 1
 500 479 l 1
 62 792 l 1
 111 859 l 1
500 354 m 1
 938 42 l 1
 889 -26 l 1
 500 252 l 1
 111 -26 l 1
 62 42 l 1
 500 354 l 1
EndSplineSet
LCarets2: 3 0 0 0
MultipleSubs2: "CCMP cartouches" t.ante cart.body
Ligature2: "LIGA basics" a n t e
EndChar

StartChar: t.anu
Encoding: 108 989447 9
GlifName: t.anu
Width: 1000
GlyphClass: 1
Flags: W
HStem: 0 21G<458 542> 813 20G<122 162.056 837.944 878>
VStem: 458 84<0 399>
LayerCount: 2
Fore
SplineSet
142 833 m 1
 500 476 l 1
 858 833 l 1
 917 774 l 1
 542 399 l 1
 542 0 l 1
 458 0 l 1
 458 399 l 1
 83 774 l 1
 142 833 l 1
EndSplineSet
LCarets2: 2 0 0
MultipleSubs2: "CCMP cartouches" t.anu cart.body
Ligature2: "LIGA basics" a n u
EndChar

StartChar: t.awen
Encoding: 109 989448 10
GlifName: t.awen
Width: 1000
GlyphClass: 1
Flags: W
HStem: 0 83<83 266 734 917> 813 20G<428.547 571.453>
LayerCount: 2
Fore
SplineSet
433 833 m 1
 567 833 l 1
 734 83 l 1
 917 83 l 1
 917 0 l 1
 667 0 l 1
 500 750 l 1
 333 0 l 1
 83 0 l 1
 83 83 l 1
 266 83 l 1
 433 833 l 1
EndSplineSet
LCarets2: 3 -76 -76 -76
MultipleSubs2: "CCMP cartouches" t.awen cart.body
Ligature2: "LIGA basics" a w e n
EndChar

StartChar: t.e
Encoding: 110 989449 11
GlifName: t.e
Width: 1000
GlyphClass: 1
Flags: W
LayerCount: 2
Fore
SplineSet
500 854 m 1
 938 417 l 1
 500 -21 l 1
 441 38 l 1
 820 417 l 1
 441 795 l 1
 500 854 l 1
125 854 m 1
 563 417 l 1
 125 -21 l 1
 66 38 l 1
 445 417 l 1
 66 795 l 1
 125 854 l 1
EndSplineSet
MultipleSubs2: "CCMP cartouches" t.e cart.body
Ligature2: "LIGA basics" e
EndChar

StartChar: t.en
Encoding: 111 989450 12
GlifName: t.en
Width: 1000
GlyphClass: 1
Flags: W
HStem: 375 83<125 458 542 875>
VStem: 458 84<42 375 458 792>
LayerCount: 2
Fore
SplineSet
125 375 m 1
 125 458 l 1
 458 458 l 1
 458 792 l 1
 542 792 l 1
 542 458 l 1
 875 458 l 1
 875 375 l 1
 542 375 l 1
 542 42 l 1
 458 42 l 1
 458 375 l 1
 125 375 l 1
EndSplineSet
LCarets2: 1 -76
MultipleSubs2: "CCMP cartouches" t.en cart.body
Ligature2: "LIGA basics" e n
EndChar

StartChar: t.esun
Encoding: 112 989451 13
GlifName: t.esun
Width: 1000
GlyphClass: 1
Flags: W
HStem: -21 83<202.63 340.651> 312 84<202.63 425.071> 438 83<574.929 797.37> 771 83<659.349 797.37>
VStem: 62 84<119.472 256.158> 854 84<577.684 714.316>
LayerCount: 2
Fore
SplineSet
427 295 m 1
 376 306 324 312 271 312 c 0
 202 312 146 257 146 188 c 0
 146 119 202 62 271 62 c 0
 328 62 378 101 392 157 c 2
 427 295 l 1
573 538 m 1
 624 527 676 521 729 521 c 0
 798 521 854 577 854 646 c 0
 854 715 798 771 729 771 c 0
 672 771 622 732 608 676 c 2
 573 538 l 1
527 353 m 1
 694 296 839 184 937 31 c 1
 867 -14 l 1
 781 121 654 220 507 272 c 1
 473 137 l 2
 450 44 367 -21 271 -21 c 0
 156 -21 62 73 62 188 c 0
 62 303 156 396 271 396 c 0
 331 396 390 389 447 376 c 1
 473 480 l 1
 306 537 161 649 63 802 c 1
 133 847 l 1
 219 712 346 613 493 561 c 1
 527 696 l 2
 550 789 633 854 729 854 c 0
 844 854 938 761 938 646 c 0
 938 531 844 438 729 438 c 0
 669 438 610 444 553 457 c 1
 527 353 l 1
EndSplineSet
LCarets2: 3 -76 -76 -76
MultipleSubs2: "CCMP cartouches" t.esun cart.body
Ligature2: "LIGA basics" e s u n
EndChar

StartChar: t.ijo
Encoding: 113 989452 14
GlifName: t.ijo
Width: 1000
GlyphClass: 1
Flags: W
HStem: -21 83<379.488 620.551> 771 83<379.488 620.551>
VStem: 63 83<296.387 537.512> 854 84<296.387 537.512>
LayerCount: 2
Fore
SplineSet
500 854 m 0
 741 854 938 658 938 417 c 0
 938 176 741 -21 500 -21 c 0
 259 -21 63 176 63 417 c 0
 63 658 259 854 500 854 c 0
500 771 m 0
 305 771 146 612 146 417 c 0
 146 222 305 62 500 62 c 0
 695 62 854 222 854 417 c 0
 854 612 695 771 500 771 c 0
EndSplineSet
LCarets2: 2 -76 -76
MultipleSubs2: "CCMP cartouches" t.ijo cart.body
Ligature2: "LIGA basics" i j o
EndChar

StartChar: t.ike
Encoding: 114 989453 15
GlifName: t.ike
Width: 1000
GlyphClass: 1
Flags: W
HStem: 583 84<385.708 614.292>
VStem: 83 84<250 364.052> 833 84<250 364.052>
LayerCount: 2
Fore
SplineSet
83 250 m 1
 83 480 270 667 500 667 c 0
 730 667 917 480 917 250 c 1
 833 250 l 1
 833 434 684 583 500 583 c 0
 316 583 167 434 167 250 c 1
 83 250 l 1
EndSplineSet
LCarets2: 2 -76 -76
MultipleSubs2: "CCMP cartouches" t.ike cart.body
Ligature2: "LIGA basics" i k e
EndChar

StartChar: t.ilo
Encoding: 115 989454 16
GlifName: t.ilo
Width: 1000
GlyphClass: 1
Flags: W
HStem: 417 83<167 458 542 833> 750 83<167 458 542 833>
VStem: 83 84<500 750> 458 84<-21 417 500 750> 833 84<500 750>
CounterMasks: 1 38
LayerCount: 2
Fore
SplineSet
83 833 m 1
 917 833 l 1
 917 417 l 1
 542 417 l 1
 542 -21 l 1
 458 -21 l 1
 458 417 l 1
 83 417 l 1
 83 833 l 1
167 750 m 1
 167 500 l 1
 458 500 l 1
 458 750 l 1
 167 750 l 1
542 750 m 1
 542 500 l 1
 833 500 l 1
 833 750 l 1
 542 750 l 1
EndSplineSet
LCarets2: 2 -76 -76
MultipleSubs2: "CCMP cartouches" t.ilo cart.body
Ligature2: "LIGA basics" i l o
EndChar

StartChar: t.insa
Encoding: 116 989455 17
GlifName: t.insa
Width: 1000
GlyphClass: 1
Flags: W
HStem: 208 84<167 833> 417 145<448.5 551.5>
VStem: 83 84<292 625> 427 146<438.5 541> 833 84<292 625>
CounterMasks: 1 38
LayerCount: 2
Fore
SplineSet
833 625 m 1
 917 625 l 1
 917 208 l 1
 83 208 l 1
 83 625 l 1
 167 625 l 1
 167 292 l 1
 833 292 l 1
 833 625 l 1
427 490 m 0
 427 530 460 562 500 562 c 0
 540 562 573 530 573 490 c 0
 573 450 540 417 500 417 c 0
 460 417 427 450 427 490 c 0
EndSplineSet
LCarets2: 3 -76 -76 -76
MultipleSubs2: "CCMP cartouches" t.insa cart.body
Ligature2: "LIGA basics" i n s a
EndChar

StartChar: t.jaki
Encoding: 117 989456 18
GlifName: t.jaki
Width: 1000
VWidth: 1299
GlyphClass: 1
Flags: W
HStem: -23 78<426.408 650.49> 49 76<813.802 925.461> 557 78<141.953 257> 782 78<368.268 643.122>
VStem: 244 78<635.281 753.895>
LayerCount: 2
Fore
SplineSet
523 860 m 0xb8
 566 860 604 854 637 845 c 0
 681 833 715 814 740 792 c 0
 765 770 784 742 780 708 c 0
 778 691 769 680 762 672 c 0
 755 664 747 658 738 652 c 0
 720 639 696 625 670 611 c 0
 654 602 635 592 617 582 c 1
 764 550 886 517 886 517 c 2
 902 512 914 497 914 479 c 0
 914 467 908 456 899 449 c 2
 777 352 l 1
 817 301 836 230 818 146 c 0
 817 139 814 132 812 125 c 1
 847 122 885 123 925 127 c 1
 932 49 l 1x78
 870 43 813 45 761 53 c 1
 744 38 726 24 705 14 c 0
 650 -13 584 -26 516 -23 c 0
 461 -21 405 -8 355 17 c 1
 295 -31 l 1
 247 31 l 1
 287 62 l 1
 246 99 215 148 202 209 c 0
 185 290 215 364 263 424 c 0
 265 427 268 429 270 432 c 1
 255 434 237 435 223 437 c 0
 186 442 154 449 127 460 c 0
 100 471 71 491 66 526 c 0
 61 562 83 598 112 613 c 0
 141 628 173 633 212 635 c 0
 226 636 242 635 257 635 c 1
 256 641 254 647 253 653 c 0
 247 689 245 719 244 741 c 0
 244 752 244 761 244 769 c 0
 244 773 244 776 245 780 c 0
 245 782 246 785 248 789 c 0
 250 793 249 805 271 813 c 0
 367 848 452 861 523 860 c 0xb8
523 782 m 0
 468 783 400 773 322 747 c 0
 322 746 322 745 322 744 c 0
 323 725 325 698 330 665 c 0
 332 654 335 642 337 630 c 1
 385 625 436 617 487 608 c 0
 491 607 495 607 499 606 c 0
 548 634 596 660 633 680 c 0
 658 694 679 706 692 715 c 0
 696 718 697 719 699 721 c 0
 697 724 695 728 689 734 c 0
 675 746 650 760 616 770 c 0
 590 777 559 782 523 782 c 0
216 557 m 0
 183 556 159 549 149 544 c 0
 140 539 141 543 142 539 c 1
 142 539 145 536 156 532 c 0
 172 526 200 520 234 515 c 0
 249 513 270 510 287 508 c 1
 282 524 277 540 273 556 c 1
 252 557 233 558 216 557 c 0
356 549 m 1
 359 540 362 530 365 520 c 1
 376 528 386 535 397 543 c 1
 383 545 370 547 356 549 c 1
513 524 m 1
 504 519 496 514 487 509 c 0
 476 502 466 494 455 487 c 1
 466 485 475 485 486 483 c 0
 570 469 654 448 719 405 c 1
 789 461 l 1
 725 478 634 501 513 524 c 1
407 415 m 1
 436 356 474 298 524 250 c 1
 653 353 l 1
 605 378 541 395 473 406 c 0
 451 410 429 412 407 415 c 1
334 386 m 1
 331 382 327 379 324 375 c 0
 285 327 267 280 278 225 c 0
 289 175 314 139 349 112 c 1
 462 202 l 1
 406 257 365 321 334 386 c 1
717 304 m 1
 586 200 l 1
 628 172 676 151 732 138 c 1
 736 146 740 153 742 162 c 0
 756 230 745 271 717 304 c 1
523 150 m 1
 425 72 l 1
 455 62 487 56 519 55 c 0xb8
 569 53 618 62 657 79 c 1
 613 94 574 114 539 138 c 0
 533 142 528 146 523 150 c 1
EndSplineSet
LCarets2: 3 0 0 0
MultipleSubs2: "CCMP cartouches" t.jaki cart.body
Ligature2: "LIGA basics" j a k i
EndChar

StartChar: t.jan
Encoding: 118 989457 19
GlifName: t.jan
Width: 1000
GlyphClass: 1
Flags: W
HStem: 125 83<394.238 605.762> 771 83<394.36 605.64>
VStem: 135 84<384.206 595.594> 781 84<384.206 595.594>
LayerCount: 2
Fore
SplineSet
500 854 m 0
 701 854 865 691 865 490 c 0
 865 385 819 290 748 223 c 1
 951 41 l 1
 896 -21 l 1
 680 172 l 1
 627 142 565 125 500 125 c 0
 435 125 373 142 320 172 c 1
 104 -21 l 1
 49 41 l 1
 252 223 l 1
 181 290 135 385 135 490 c 0
 135 691 299 854 500 854 c 0
500 771 m 0
 345 771 219 645 219 490 c 0
 219 335 345 208 500 208 c 0
 655 208 781 335 781 490 c 0
 781 645 655 771 500 771 c 0
EndSplineSet
LCarets2: 2 -76 -76
MultipleSubs2: "CCMP cartouches" t.jan cart.body
Ligature2: "LIGA basics" j a n
EndChar

StartChar: t.jelo
Encoding: 119 989458 20
GlifName: t.jelo
Width: 1000
GlyphClass: 1
Flags: W
HStem: -21 83<333 667> 479 83<146 300.814 699.186 854> 646 229<459.923 540.077>
VStem: 146 229<480.923 561.077> 458 84<720.169 875> 625 229<480.923 561.077>
CounterMasks: 1 1c
LayerCount: 2
Fore
SplineSet
458 725 m 1
 458 875 l 1
 542 875 l 1
 542 725 l 1
 624 708 687 644 704 562 c 1
 854 562 l 1
 854 479 l 1
 704 479 l 1
 689 407 638 349 570 325 c 1
 833 -21 l 1
 167 -21 l 1
 430 325 l 1
 362 349 311 407 296 479 c 1
 146 479 l 1
 146 562 l 1
 296 562 l 1
 313 644 376 708 458 725 c 1
500 281 m 1
 333 62 l 1
 667 62 l 1
 500 281 l 1
500 646 m 0
 431 646 375 590 375 521 c 0
 375 452 431 396 500 396 c 0
 569 396 625 452 625 521 c 0
 625 590 569 646 500 646 c 0
EndSplineSet
LCarets2: 3 0 0 0
MultipleSubs2: "CCMP cartouches" t.jelo cart.body
Ligature2: "LIGA basics" j e l o
EndChar

StartChar: t.jo
Encoding: 120 989459 21
GlifName: t.jo
Width: 1000
GlyphClass: 1
Flags: W
HStem: 0 83<406.649 593.309> 292 83<417 728> 458 84<438.129 561.006> 750 83<438.994 561.006>
VStem: 188 83<218.649 408.615> 312 84<583.208 706.953> 604 84<584.994 706.953>
LayerCount: 2
Fore
SplineSet
500 750 m 0
 443 750 396 703 396 646 c 0
 396 589 443 542 500 542 c 0
 557 542 604 589 604 646 c 0
 604 703 557 750 500 750 c 0
417 292 m 1
 417 375 l 1
 720 375 l 1
 781 375 l 1
 806 375 l 1
 810 355 812 333 812 312 c 0
 812 140 672 0 500 0 c 0
 328 0 188 140 188 312 c 0
 188 421 243 517 327 573 c 1
 318 595 312 620 312 646 c 0
 312 749 397 833 500 833 c 0
 603 833 688 749 688 646 c 0
 688 543 603 458 500 458 c 0
 452 458 409 476 376 505 c 1
 313 464 271 393 271 312 c 0
 271 186 374 83 500 83 c 0
 619 83 717 175 728 292 c 1
 417 292 l 1
EndSplineSet
LCarets2: 1 0
MultipleSubs2: "CCMP cartouches" t.jo cart.body
Ligature2: "LIGA basics" j o
EndChar

StartChar: t.kala
Encoding: 121 989460 22
GlifName: t.kala
Width: 1000
GlyphClass: 1
Flags: W
HStem: 125 83<553.617 787.827> 625 83<553.617 787.827>
VStem: 38 84<125 213.312 619.751 708> 875 83<295.5 537.5>
LayerCount: 2
Fore
SplineSet
38 708 m 1
 38 708 122 707 122 708 c 1
 135 628 164 551 206 485 c 1
 330 622 509 708 708 708 c 0
 846 708 958 596 958 458 c 2
 958 375 l 2
 958 237 846 125 708 125 c 0
 509 125 330 211 206 348 c 1
 164 282 135 205 122 125 c 1
 122 125 38 126 38 125 c 1
 53 232 93 332 152 417 c 1
 93 502 53 601 38 708 c 1
708 625 m 0
 527 625 366 545 257 417 c 1
 366 289 527 208 708 208 c 0
 800 208 875 283 875 375 c 2
 875 458 l 2
 875 550 800 625 708 625 c 0
EndSplineSet
LCarets2: 3 0 0 0
MultipleSubs2: "CCMP cartouches" t.kala cart.body
Ligature2: "LIGA basics" k a l a
EndChar

StartChar: t.kalama
Encoding: 122 989461 23
GlifName: t.kalama
Width: 1000
GlyphClass: 1
Flags: W
HStem: 42 83<393.993 606.007> 375 83<211 789> 583 21G<458 542> 813 20G<458 542>
VStem: 458 84<583 833>
LayerCount: 2
Fore
SplineSet
125 458 m 1
 875 458 l 1
 875 417 l 2
 875 210 707 42 500 42 c 0
 293 42 125 210 125 417 c 2
 125 458 l 1
211 375 m 1
 232 231 355 125 500 125 c 0
 645 125 768 231 789 375 c 1
 211 375 l 1
458 583 m 1
 458 833 l 1
 542 833 l 1
 542 583 l 1
 458 583 l 1
617 558 m 1
 767 758 l 1
 833 708 l 1
 683 508 l 1
 617 558 l 1
383 558 m 1
 317 508 l 1
 167 708 l 1
 233 758 l 1
 383 558 l 1
EndSplineSet
LCarets2: 5 0 0 0 0 0
MultipleSubs2: "CCMP cartouches" t.kalama cart.body
Ligature2: "LIGA basics" k a l a m a
EndChar

StartChar: t.kama
Encoding: 123 989462 24
GlifName: t.kama
Width: 1000
GlyphClass: 1
Flags: W
HStem: 0 21G<332.26 379.453 615.789 667.877> 813 20G<470.546 603.044>
LayerCount: 2
Fore
SplineSet
475 833 m 1
 593 833 l 1
 938 146 l 1
 625 0 l 1
 590 76 l 1
 825 185 l 1
 542 750 l 1
 375 0 l 1
 63 146 l 1
 98 221 l 1
 316 119 l 1
 475 833 l 1
EndSplineSet
LCarets2: 3 0 0 0
MultipleSubs2: "CCMP cartouches" t.kama cart.body
Ligature2: "LIGA basics" k a m a
EndChar

StartChar: t.kasi
Encoding: 124 989463 25
GlifName: t.kasi
Width: 1000
GlyphClass: 1
Flags: W
HStem: 0 21G<458 542> 333 88<344.027 456 544 655.973> 750 83<125 239.287 760.713 875>
VStem: 42 83<635.958 750> 458 84<0 333 421 535.042> 875 83<635.958 750>
CounterMasks: 1 1c
LayerCount: 2
Fore
SplineSet
875 833 m 2
 958 833 l 1
 958 750 l 2
 958 520 772 333 542 333 c 1
 542 -0 l 1
 458 0 l 1
 458 333 l 1
 228 333 42 520 42 750 c 2
 42 833 l 1
 125 833 l 2
 290 833 432 738 500 599 c 1
 568 738 710 833 875 833 c 2
875 750 m 1
 691 750 544 605 544 421 c 1
 728 421 875 566 875 750 c 1
125 750 m 1
 125 566 272 421 456 421 c 1
 456 605 309 750 125 750 c 1
EndSplineSet
LCarets2: 3 -76 -76 -76
MultipleSubs2: "CCMP cartouches" t.kasi cart.body
Ligature2: "LIGA basics" k a s i
EndChar

StartChar: t.ken
Encoding: 125 989464 26
GlifName: t.ken
Width: 1000
GlyphClass: 1
Flags: W
HStem: 0 21G<188 271 729 812> 375 83<271 474.232> 813 20G<188 271 729 812>
VStem: 188 83<0 375 458 833> 729 83<0 120.232 712.768 833>
LayerCount: 2
Fore
SplineSet
188 833 m 1
 271 833 l 1
 271 458 l 1
 354 458 l 2
 561 458 729 626 729 833 c 1
 812 833 l 1
 812 654 708 479 500 417 c 1
 708 355 812 179 812 0 c 1
 729 0 l 1
 729 207 561 375 354 375 c 2
 271 375 l 1
 271 0 l 1
 188 0 l 1
 188 833 l 1
EndSplineSet
LCarets2: 2 -76 -76
MultipleSubs2: "CCMP cartouches" t.ken cart.body
Ligature2: "LIGA basics" k e n
EndChar

StartChar: t.kepeken
Encoding: 126 989465 27
GlifName: t.kepeken
Width: 1000
GlyphClass: 1
Flags: W
HStem: 0 21G<214.962 312 729 812> 333 81<430.576 479 562 611.231> 500 83<229 479 562 812> 792 83<229 479 562 812>
VStem: 146 83<583 792> 479 83<410.716 500 583 792> 729 83<0 215.231> 812 84<583 792>
LayerCount: 2
Fore
SplineSet
229 792 m 1xfc
 229 583 l 1
 479 583 l 1
 479 792 l 1
 229 792 l 1xfc
562 792 m 1
 562 583 l 1
 812 583 l 1
 812 792 l 1xfd
 562 792 l 1
83 208 m 1
 152 256 l 1
 230 144 l 1
 239 282 344 395 479 414 c 1
 479 500 l 1
 146 500 l 1
 146 875 l 1
 896 875 l 1
 896 500 l 1xfd
 562 500 l 1
 562 414 l 1
 703 394 812 272 812 125 c 2
 812 0 l 1
 729 0 l 1
 729 125 l 2xfe
 729 240 636 333 521 333 c 0
 406 333 312 240 312 125 c 2
 312 0 l 1
 229 0 l 1
 83 208 l 1
EndSplineSet
LCarets2: 6 0 0 0 0 0 0
MultipleSubs2: "CCMP cartouches" t.kepeken cart.body
Ligature2: "LIGA basics" k e p e k e n
EndChar

StartChar: t.kili
Encoding: 127 989466 28
GlifName: t.kili
Width: 1000
GlyphClass: 1
Flags: W
HStem: -21 83<379.072 620.889> 604 84<230.538 396.109 601.231 768.589>
VStem: 62 84<297.057 518.155> 854 83<297.057 517.268>
LayerCount: 2
Fore
SplineSet
395 864 m 1
 460 799 499 704 521 615 c 1
 566 652 628 688 687 688 c 0
 825 688 937 576 937 438 c 2
 937 417 l 2
 937 175 742 -21 500 -21 c 0
 258 -21 62 175 62 417 c 2
 62 438 l 2
 62 576 174 688 312 688 c 0
 354 688 401 666 437 646 c 1
 416 702 378 763 336 805 c 1
 395 864 l 1
312 604 m 0
 220 604 146 530 146 438 c 2
 146 417 l 2
 146 221 304 62 500 62 c 0
 696 62 854 221 854 417 c 2
 854 438 l 2
 854 530 779 604 687 604 c 0
 630 604 552 573 531 500 c 1
 469 500 l 1
 448 573 369 604 312 604 c 0
EndSplineSet
LCarets2: 3 0 0 0
MultipleSubs2: "CCMP cartouches" t.kili cart.body
Ligature2: "LIGA basics" k i l i
EndChar

StartChar: t.kiwen
Encoding: 128 989467 29
GlifName: t.kiwen
Width: 1000
GlyphClass: 1
Flags: W
HStem: 0 21G<483.838 516.162> 708 84<292 708>
LayerCount: 2
Fore
SplineSet
250 792 m 1
 750 792 l 1
 938 542 l 1
 500 0 l 1
 62 542 l 1
 250 792 l 1
292 708 m 1
 168 544 l 1
 500 133 l 1
 832 544 l 1
 708 708 l 1
 292 708 l 1
EndSplineSet
LCarets2: 4 0 0 0 0
MultipleSubs2: "CCMP cartouches" t.kiwen cart.body
Ligature2: "LIGA basics" k i w e n
EndChar

StartChar: t.ko
Encoding: 129 989468 30
GlifName: t.ko
Width: 1000
VWidth: 1299
GlyphClass: 1
Flags: W
HStem: -39 78<272.889 413.526 586.474 727.111> 596 78<176.246 294.179 705.821 823.754> 794 78<428.889 571.111>
VStem: 44 78<405.279 542.534> 138 78<95.8889 237.715> 294 78<667 737.398> 628 78<667 737.398> 784 78<95.8889 237.715> 878 78<405.279 542.534>
LayerCount: 2
Fore
SplineSet
500 872 m 0
 613 872 706 780 706 667 c 1
 722 671 738 674 755 674 c 0
 865 674 956 584 956 474 c 0
 956 388 900 314 823 286 c 1
 848 252 862 211 862 167 c 0
 862 54 769 -39 656 -39 c 0
 595 -39 538 -11 500 34 c 1
 462 -11 405 -39 344 -39 c 0
 231 -39 138 54 138 167 c 0
 138 211 152 252 177 286 c 1
 100 314 44 388 44 474 c 0
 44 584 135 674 245 674 c 0
 262 674 278 671 294 667 c 1
 294 780 387 872 500 872 c 0
500 794 m 0
 429 794 372 738 372 667 c 0
 372 649 377 631 384 614 c 0
 386 609 387 604 387 598 c 0
 387 576 370 559 348 559 c 0
 339 559 330 562 323 568 c 0
 301 586 274 596 245 596 c 0
 177 596 122 542 122 474 c 0
 122 406 177 352 245 352 c 0
 250 352 256 352 261 353 c 0
 263 353 264 353 266 353 c 0
 288 353 305 336 305 314 c 0
 305 299 296 286 284 279 c 0
 242 257 216 214 216 167 c 0
 216 96 273 39 344 39 c 0
 397 39 444 72 463 122 c 0
 469 137 483 148 500 148 c 0
 517 148 531 137 537 122 c 0
 556 72 603 39 656 39 c 0
 727 39 784 96 784 167 c 0
 784 214 758 257 716 279 c 0
 704 286 695 299 695 314 c 0
 695 336 712 353 734 353 c 0
 736 353 737 353 739 353 c 0
 744 352 750 352 755 352 c 0
 823 352 878 406 878 474 c 0
 878 542 823 596 755 596 c 0
 726 596 699 586 677 568 c 0
 670 562 661 559 652 559 c 0
 630 559 613 576 613 598 c 0
 613 604 614 609 616 614 c 0
 623 631 628 649 628 667 c 0
 628 738 571 794 500 794 c 0
EndSplineSet
LCarets2: 1 -76
MultipleSubs2: "CCMP cartouches" t.ko cart.body
Ligature2: "LIGA basics" k o
EndChar

StartChar: t.kon
Encoding: 130 989469 31
GlifName: t.kon
Width: 1000
GlyphClass: 1
Flags: W
HStem: -21 83<208 320.259 583 695.199> 771 83<304.741 417 679.741 792>
VStem: 156 84<560.67 706.756> 385 84<126.244 272.33> 531 84<560.67 706.756> 760 84<126.391 272.33>
LayerCount: 2
Fore
SplineSet
375 854 m 2
 417 854 l 1
 417 771 l 1
 375 771 l 2
 300 771 240 710 240 635 c 0
 240 607 248 580 264 557 c 2
 429 324 l 2
 455 287 469 243 469 198 c 0
 469 77 371 -21 250 -21 c 2
 208 -21 l 1
 208 62 l 1
 250 62 l 2
 325 62 385 123 385 198 c 0
 385 226 377 253 361 276 c 2
 196 509 l 2
 170 546 156 590 156 635 c 0
 156 756 254 854 375 854 c 2
750 854 m 2
 792 854 l 1
 792 771 l 1
 750 771 l 2
 675 771 615 710 615 635 c 0
 615 607 623 580 639 557 c 2
 804 324 l 2
 830 287 844 243 844 198 c 0
 844 77 746 -21 625 -21 c 2
 583 -21 l 1
 583 63 l 1
 625 63 l 2
 700 63 760 123 760 198 c 0
 760 226 752 253 736 276 c 2
 571 509 l 2
 545 546 531 590 531 635 c 0
 531 756 629 854 750 854 c 2
EndSplineSet
LCarets2: 2 -76 -76
MultipleSubs2: "CCMP cartouches" t.kon cart.body
Ligature2: "LIGA basics" k o n
EndChar

StartChar: t.kule
Encoding: 131 989470 32
GlifName: t.kule
Width: 1000
GlyphClass: 1
Flags: W
HStem: 0 83<198 802> 333 84<83 229 365 635 771 917>
LayerCount: 2
Fore
SplineSet
677 333 m 1
 323 333 l 1
 198 83 l 1
 802 83 l 1
 677 333 l 1
635 417 m 1
 500 688 l 1
 365 417 l 1
 635 417 l 1
83 333 m 1
 83 417 l 1
 271 417 l 1
 500 875 l 1
 729 417 l 1
 917 417 l 1
 917 333 l 1
 771 333 l 1
 938 0 l 1
 62 0 l 1
 229 333 l 1
 83 333 l 1
EndSplineSet
LCarets2: 3 0 0 0
MultipleSubs2: "CCMP cartouches" t.kule cart.body
Ligature2: "LIGA basics" k u l e
EndChar

StartChar: t.kulupu
Encoding: 132 989471 33
GlifName: t.kulupu
Width: 1000
GlyphClass: 1
Flags: W
HStem: 0 83<195.311 324.858 675.142 804.689> 312 84<195.311 324.858 675.142 804.689> 438 83<435.142 564.858> 750 83<435.142 564.858>
VStem: 62 84<133.142 262.689> 302 83<570.364 699.858> 375 83<133.142 262.689> 542 83<133.142 262.689> 615 83<570.364 699.858> 854 84<133.142 262.689>
LayerCount: 2
Fore
SplineSet
260 396 m 0xfa40
 369 396 458 307 458 198 c 0
 458 89 369 0 260 0 c 0
 151 0 62 89 62 198 c 0
 62 307 151 396 260 396 c 0xfa40
260 312 m 0
 197 312 146 261 146 198 c 0
 146 135 197 83 260 83 c 0
 323 83 375 135 375 198 c 0
 375 261 323 312 260 312 c 0
740 396 m 0
 849 396 938 307 938 198 c 0
 938 89 849 0 740 0 c 0
 631 0 542 89 542 198 c 0xf940
 542 307 631 396 740 396 c 0
740 312 m 0
 677 312 625 261 625 198 c 0
 625 135 677 83 740 83 c 0
 803 83 854 135 854 198 c 0
 854 261 803 312 740 312 c 0
500 833 m 0
 609 833 698 744 698 635 c 0
 698 526 609 438 500 438 c 0
 391 438 302 526 302 635 c 0xfcc0
 302 744 391 833 500 833 c 0
500 750 m 0
 437 750 385 698 385 635 c 0
 385 572 437 521 500 521 c 0
 563 521 615 572 615 635 c 0
 615 698 563 750 500 750 c 0
EndSplineSet
LCarets2: 5 -76 -76 -76 -76 -76
MultipleSubs2: "CCMP cartouches" t.kulupu cart.body
Ligature2: "LIGA basics" k u l u p u
EndChar

StartChar: t.kute
Encoding: 133 989472 34
GlifName: t.kute
Width: 1000
GlyphClass: 1
Flags: W
HStem: -24 83<330.904 394.509> 563 20G<500 583> 771 83<404.004 593.351>
VStem: 500 83<483.085 583> 729 83<400.069 635.351>
LayerCount: 2
Fore
SplineSet
500 854 m 0
 672 854 812 714 812 542 c 0
 812 257 604 21 332 -24 c 1
 319 59 l 1
 551 97 729 299 729 542 c 0
 729 668 626 771 500 771 c 0
 408 771 328 717 292 639 c 1
 217 674 l 1
 267 781 375 854 500 854 c 0
500 583 m 1
 583 583 l 1
 583 447 504 329 389 274 c 0
 352 349 l 0
 439 391 500 480 500 583 c 1
EndSplineSet
LCarets2: 3 0 0 0
MultipleSubs2: "CCMP cartouches" t.kute cart.body
Ligature2: "LIGA basics" k u t e
EndChar

StartChar: t.la
Encoding: 134 989473 35
GlifName: t.la
Width: 1000
GlyphClass: 1
Flags: W
VStem: 583 84<285.898 547.996>
LayerCount: 2
Fore
SplineSet
406 856 m 1
 561 771 667 606 667 417 c 0
 667 228 561 63 406 -22 c 1
 366 51 l 0
 496 122 583 259 583 417 c 0
 583 575 496 711 366 782 c 1
 406 856 l 1
EndSplineSet
LCarets2: 1 0
MultipleSubs2: "CCMP cartouches" t.la cart.body
Ligature2: "LIGA basics" l a
EndChar

StartChar: t.lape
Encoding: 135 989474 36
GlifName: t.lape
Width: 1000
GlyphClass: 1
Flags: W
HStem: 208 84<660.265 797.37> 375 83<63 530.62> 542 83<660.265 797.37>
VStem: 854 84<348.63 485.316>
LayerCount: 2
Fore
SplineSet
729 542 m 0
 660 542 604 486 604 417 c 0
 604 348 660 292 729 292 c 0
 798 292 854 348 854 417 c 0
 854 486 798 542 729 542 c 0
63 375 m 1
 63 458 l 1
 525 458 l 1
 544 553 628 625 729 625 c 0
 844 625 938 532 938 417 c 0
 938 302 844 208 729 208 c 0
 628 208 544 280 525 375 c 1
 63 375 l 1
EndSplineSet
LCarets2: 3 0 0 0
MultipleSubs2: "CCMP cartouches" t.lape cart.body
Ligature2: "LIGA basics" l a p e
EndChar

StartChar: t.laso
Encoding: 136 989475 37
GlifName: t.laso
Width: 1000
GlyphClass: 1
Flags: W
HStem: 0 83<312 687> 417 83<360.719 458 542 639.281> 750 83<208 305.281 694.719 792>
VStem: 125 83<652.719 750> 458 84<370 417 500 597.281> 792 83<652.719 750>
CounterMasks: 1 1c
LayerCount: 2
Fore
SplineSet
500 292 m 1
 312 83 l 1
 687 83 l 1
 500 292 l 1
125 833 m 1
 208 833 l 2
 329 833 458 760 500 625 c 1
 542 760 671 833 792 833 c 2
 875 833 l 1
 875 750 l 2
 875 566 726 417 542 417 c 1
 542 370 l 1
 875 0 l 1
 125 0 l 1
 458 370 l 1
 458 417 l 1
 274 417 125 566 125 750 c 2
 125 833 l 1
208 750 m 1
 208 612 320 500 458 500 c 1
 458 638 346 750 208 750 c 1
792 750 m 1
 654 750 542 638 542 500 c 1
 680 500 792 612 792 750 c 1
EndSplineSet
LCarets2: 3 0 0 0
MultipleSubs2: "CCMP cartouches" t.laso cart.body
Ligature2: "LIGA basics" l a s o
EndChar

StartChar: t.lawa
Encoding: 137 989476 38
GlifName: t.lawa
Width: 1000
GlyphClass: 1
Flags: W
HStem: 42 83<318.785 515.169> 500 83<200 633 747 937> 708 84<316.455 518.028>
VStem: 83 84<277.719 492.073> 667 83<277.719 500>
LayerCount: 2
Fore
SplineSet
417 792 m 0
 557 792 677 705 726 583 c 1
 937 583 l 1
 937 500 l 1
 747 500 l 1
 749 486 750 472 750 458 c 2
 750 375 l 2
 750 191 601 42 417 42 c 0
 233 42 83 191 83 375 c 2
 83 458 l 2
 83 642 233 792 417 792 c 0
417 708 m 0
 324 708 243 658 200 583 c 1
 633 583 l 1
 590 658 510 708 417 708 c 0
170 500 m 1
 168 486 167 472 167 458 c 2
 167 375 l 2
 167 237 279 125 417 125 c 0
 555 125 667 237 667 375 c 2
 667 458 l 0
 667 472 665 486 663 500 c 1
 170 500 l 1
EndSplineSet
LCarets2: 3 0 0 0
MultipleSubs2: "CCMP cartouches" t.lawa cart.body
Ligature2: "LIGA basics" l a w a
EndChar

StartChar: t.len
Encoding: 138 989477 39
GlifName: t.len
Width: 1000
GlyphClass: 1
Flags: W
HStem: 271 83<250 458 542 750> 708 84<250 750>
VStem: 167 83<21 271 354 708> 458 84<21 271> 750 83<21 271 354 708>
CounterMasks: 1 38
LayerCount: 2
Fore
SplineSet
167 792 m 1
 833 792 l 1
 833 21 l 1
 750 21 l 1
 750 271 l 1
 542 271 l 1
 542 21 l 1
 458 21 l 1
 458 271 l 1
 250 271 l 1
 250 21 l 1
 167 21 l 1
 167 792 l 1
250 708 m 1
 250 354 l 1
 750 354 l 1
 750 708 l 1
 250 708 l 1
EndSplineSet
LCarets2: 2 0 0
MultipleSubs2: "CCMP cartouches" t.len cart.body
Ligature2: "LIGA basics" l e n
EndChar

StartChar: t.lete
Encoding: 139 989478 40
GlifName: t.lete
Width: 1000
GlyphClass: 1
Flags: W
HStem: 375 83<83 428 572 917>
LayerCount: 2
Fore
SplineSet
744 77 m 1
 672 35 l 1
 500 333 l 1
 328 35 l 1
 256 77 l 1
 428 375 l 1
 83 375 l 1
 83 458 l 1
 428 458 l 1
 256 757 l 1
 328 798 l 1
 500 500 l 1
 672 798 l 1
 744 757 l 1
 572 458 l 1
 917 458 l 1
 917 375 l 1
 572 375 l 1
 744 77 l 1
EndSplineSet
LCarets2: 3 -76 -76 -76
MultipleSubs2: "CCMP cartouches" t.lete cart.body
Ligature2: "LIGA basics" l e t e
EndChar

StartChar: t.li
Encoding: 140 989479 41
GlifName: t.li
Width: 1000
GlyphClass: 1
Flags: W
LayerCount: 2
Fore
SplineSet
250 854 m 1
 833 417 l 1
 250 -21 l 1
 200 46 l 1
 694 417 l 1
 200 788 l 1
 250 854 l 1
EndSplineSet
LCarets2: 1 -76
MultipleSubs2: "CCMP cartouches" t.li cart.body
Ligature2: "LIGA basics" l i
EndChar

StartChar: t.lili
Encoding: 141 989480 42
GlifName: t.lili
Width: 1000
GlyphClass: 1
Flags: W
HStem: 271 296
LayerCount: 2
Fore
SplineSet
403 567 m 1
 500 406 l 1
 597 567 l 1
 667 521 l 1
 500 271 l 1
 333 521 l 1
 403 567 l 1
EndSplineSet
LCarets2: 3 0 0 0
MultipleSubs2: "CCMP cartouches" t.lili cart.body
Ligature2: "LIGA basics" l i l i
EndChar

StartChar: t.linja
Encoding: 142 989481 43
GlifName: t.linja
Width: 1000
GlyphClass: 1
Flags: W
HStem: 219 83<209.391 354.445> 531 84<645.555 790.555>
VStem: 62 84<367.741 562> 854 83<271 466.259>
LayerCount: 2
Fore
SplineSet
551 536 m 2
 593 586 654 615 719 615 c 0
 840 615 937 517 937 396 c 2
 937 271 l 1
 854 271 l 1
 854 396 l 2
 854 471 794 531 719 531 c 0
 678 531 639 513 613 481 c 2
 449 297 l 2
 407 247 346 219 281 219 c 0
 160 219 62 317 62 438 c 2
 62 562 l 1
 146 562 l 1
 146 438 l 2
 146 363 206 302 281 302 c 0
 322 302 361 321 387 353 c 2
 551 536 l 2
EndSplineSet
LCarets2: 4 -76 -76 -76 -76
MultipleSubs2: "CCMP cartouches" t.linja cart.body
Ligature2: "LIGA basics" l i n j a
EndChar

StartChar: t.lipu
Encoding: 143 989482 44
GlifName: t.lipu
Width: 1000
GlyphClass: 1
Flags: W
HStem: 0 83<250 750> 750 83<250 750>
VStem: 167 83<83 750> 750 83<83 750>
LayerCount: 2
Fore
SplineSet
167 833 m 1
 833 833 l 1
 833 0 l 1
 167 0 l 1
 167 833 l 1
250 750 m 1
 250 83 l 1
 750 83 l 1
 750 750 l 1
 250 750 l 1
EndSplineSet
LCarets2: 3 -76 -76 -76
MultipleSubs2: "CCMP cartouches" t.lipu cart.body
Ligature2: "LIGA basics" l i p u
EndChar

StartChar: t.loje
Encoding: 144 989483 45
GlifName: t.loje
Width: 1000
GlyphClass: 1
Flags: W
HStem: 0 83<312 688> 458 84<389.612 610.388> 750 83<220 780>
LayerCount: 2
Fore
SplineSet
500 417 m 1
 875 0 l 1
 125 0 l 1
 500 417 l 1
500 292 m 1
 312 83 l 1
 688 83 l 1
 500 292 l 1
125 833 m 1
 875 833 l 1
 875 626 707 458 500 458 c 0
 293 458 125 626 125 833 c 1
220 750 m 1
 257 626 371 542 500 542 c 0
 629 542 743 626 780 750 c 1
 220 750 l 1
EndSplineSet
LCarets2: 3 -76 -76 -76
MultipleSubs2: "CCMP cartouches" t.loje cart.body
Ligature2: "LIGA basics" l o j e
EndChar

StartChar: t.lon
Encoding: 145 989484 46
GlifName: t.lon
Width: 1000
GlyphClass: 1
Flags: W
HStem: 250 83<83 917> 438 145<448.5 551.5>
VStem: 427 146<459 561.5>
LayerCount: 2
Fore
SplineSet
83 250 m 1
 83 333 l 1
 917 333 l 1
 917 250 l 1
 83 250 l 1
427 510 m 0
 427 550 460 583 500 583 c 0
 540 583 573 550 573 510 c 0
 573 470 540 438 500 438 c 0
 460 438 427 470 427 510 c 0
EndSplineSet
LCarets2: 2 -76 -76
MultipleSubs2: "CCMP cartouches" t.lon cart.body
Ligature2: "LIGA basics" l o n
EndChar

StartChar: t.luka
Encoding: 146 989485 47
GlifName: t.luka
Width: 1000
GlyphClass: 1
Flags: W
HStem: -0 21G<298.246 396 812 896> 771 83<515.518 692.482>
VStem: 312 84<147 648.733> 812 84<0 648.733>
LayerCount: 2
Fore
SplineSet
604 854 m 0
 765 854 896 723 896 562 c 2
 896 -0 l 1
 812 -0 l 1
 812 562 l 2
 812 677 719 771 604 771 c 0
 489 771 396 677 396 562 c 2
 396 -0 l 1
 312 -0 l 1
 83 333 l 1
 152 381 l 1
 312 147 l 1
 312 562 l 2
 312 723 443 854 604 854 c 0
EndSplineSet
LCarets2: 3 -76 -76 -76
MultipleSubs2: "CCMP cartouches" t.luka cart.body
Ligature2: "LIGA basics" l u k a
EndChar

StartChar: t.lukin
Encoding: 147 989486 48
GlifName: t.lukin
Width: 1000
GlyphClass: 1
Flags: W
HStem: 167 83<372.596 627.404> 312 209<437.963 562.037> 583 84<372.596 627.404>
VStem: 396 208<354.602 479.037>
LayerCount: 2
Fore
SplineSet
500 667 m 0
 585 667 670 643 743 599 c 0
 816 555 877 492 917 417 c 1
 877 342 816 278 743 234 c 0
 670 190 585 167 500 167 c 0
 415 167 330 190 257 234 c 0
 184 278 123 342 83 417 c 1
 123 492 184 555 257 599 c 0
 330 643 415 667 500 667 c 0
500 583 m 0
 430 583 360 564 300 528 c 0
 253 500 212 462 181 417 c 1
 212 372 253 333 300 305 c 0
 360 269 430 250 500 250 c 0
 570 250 640 269 700 305 c 0
 747 333 788 372 819 417 c 1
 788 462 747 500 700 528 c 0
 640 564 570 583 500 583 c 0
500 521 m 0
 557 521 604 474 604 417 c 0
 604 360 557 312 500 312 c 0
 443 312 396 360 396 417 c 0
 396 474 443 521 500 521 c 0
EndSplineSet
LCarets2: 4 -76 -76 -76 -76
MultipleSubs2: "CCMP cartouches" t.lukin cart.body
Ligature2: "LIGA basics" l u k i n
EndChar

StartChar: t.lupa
Encoding: 148 989487 49
GlifName: t.lupa
Width: 1000
GlyphClass: 1
Flags: W
HStem: -21 83<401.831 598.169> 813 20G<167 250 750 833>
VStem: 167 83<214.719 833> 750 83<214.719 833>
LayerCount: 2
Fore
SplineSet
500 -21 m 0
 316 -21 167 128 167 312 c 2
 167 833 l 1
 250 833 l 1
 250 312 l 2
 250 174 362 62 500 62 c 0
 638 62 750 174 750 312 c 2
 750 833 l 1
 833 833 l 1
 833 312 l 2
 833 128 684 -21 500 -21 c 0
EndSplineSet
LCarets2: 3 -76 -76 -76
MultipleSubs2: "CCMP cartouches" t.lupa cart.body
Ligature2: "LIGA basics" l u p a
EndChar

StartChar: t.ma
Encoding: 149 989488 50
GlifName: t.ma
Width: 1000
GlyphClass: 1
Flags: W
HStem: -21 86<380.489 458 542 619.589> 375 83<148 458 542 852> 768 86<380.489 458 542 619.589>
VStem: 63 85<297.411 375 458 536.511> 458 84<65 375 458 768> 852 86<297.411 375 458 536.511>
CounterMasks: 1 e0
LayerCount: 2
Fore
SplineSet
458 375 m 1
 148 375 l 1
 167 213 296 84 458 65 c 1
 458 375 l 1
458 458 m 1
 458 768 l 1
 296 749 167 620 148 458 c 1
 458 458 l 1
542 375 m 1
 542 65 l 1
 704 84 833 213 852 375 c 1
 542 375 l 1
542 458 m 1
 852 458 l 1
 833 620 704 749 542 768 c 1
 542 458 l 1
500 854 m 0
 741 854 938 658 938 417 c 0
 938 176 741 -21 500 -21 c 0
 259 -21 63 176 63 417 c 0
 63 658 259 854 500 854 c 0
EndSplineSet
LCarets2: 1 -76
MultipleSubs2: "CCMP cartouches" t.ma cart.body
Ligature2: "LIGA basics" m a
EndChar

StartChar: t.mama
Encoding: 150 989489 51
GlifName: t.mama
Width: 1000
GlyphClass: 1
Flags: W
HStem: -42 84<449.263 550.737> 188 83<448.5 551.5> 771 83<360.719 639.281>
VStem: 125 83<424.224 619.169> 344 83<64.2099 166.648> 573 83<64.2099 166.648> 792 83<424.224 619.169>
LayerCount: 2
Fore
SplineSet
500 188 m 0
 460 188 427 155 427 115 c 0
 427 75 460 42 500 42 c 0
 540 42 573 75 573 115 c 0
 573 155 540 188 500 188 c 0
458 854 m 2
 542 854 l 2
 726 854 875 705 875 521 c 0
 875 368 772 239 631 200 c 1
 647 176 656 146 656 115 c 0
 656 29 586 -42 500 -42 c 0
 414 -42 344 29 344 115 c 0
 344 146 353 176 369 200 c 1
 228 239 125 368 125 521 c 0
 125 705 274 854 458 854 c 2
458 771 m 2
 320 771 208 659 208 521 c 0
 208 383 320 271 458 271 c 2
 500 271 l 1
 542 271 l 2
 680 271 792 383 792 521 c 0
 792 659 680 771 542 771 c 2
 458 771 l 2
EndSplineSet
LCarets2: 3 0 0 0
MultipleSubs2: "CCMP cartouches" t.mama cart.body
Ligature2: "LIGA basics" m a m a
EndChar

StartChar: t.mani
Encoding: 151 989490 52
GlifName: t.mani
Width: 1000
GlyphClass: 1
Flags: W
HStem: 0 83<394.36 605.64> 646 83<394.214 605.786> 813 20G<83 167 833 917>
VStem: 83 84<717.846 833> 135 84<259.291 469.843> 781 84<259.291 469.843> 833 84<717.846 833>
LayerCount: 2
Fore
SplineSet
500 646 m 0xec
 345 646 219 520 219 365 c 0
 219 210 345 83 500 83 c 0
 655 83 781 210 781 365 c 0
 781 520 655 646 500 646 c 0xec
833 833 m 1xf2
 917 833 l 1xf2
 917 726 877 630 811 556 c 1
 845 500 865 435 865 365 c 0
 865 164 701 0 500 0 c 0
 299 0 135 164 135 365 c 0xec
 135 435 155 500 189 556 c 1
 123 630 83 726 83 833 c 1
 167 833 l 1
 167 753 195 680 242 622 c 1
 308 688 399 729 500 729 c 0
 601 729 692 688 758 622 c 1
 805 680 833 753 833 833 c 1xf2
EndSplineSet
LCarets2: 3 -76 -76 -76
MultipleSubs2: "CCMP cartouches" t.mani cart.body
Ligature2: "LIGA basics" m a n i
EndChar

StartChar: t.meli
Encoding: 152 989491 53
GlifName: t.meli
Width: 1000
GlyphClass: 1
Flags: W
HStem: 104 84<313 458 542 688> 295 80<409.769 458 542 590.231> 792 83<411.518 588.482>
VStem: 208 84<491.909 671.578> 458 84<-42 104 188 298.471> 708 84<491.909 671.578>
CounterMasks: 1 1c
LayerCount: 2
Fore
SplineSet
500 875 m 0
 661 875 792 744 792 583 c 0
 792 436 683 315 542 295 c 1
 542 188 l 1
 688 188 l 1
 688 104 l 1
 542 104 l 1
 542 -42 l 1
 458 -42 l 1
 458 104 l 1
 313 104 l 1
 313 188 l 1
 458 188 l 1
 458 295 l 1
 317 315 208 436 208 583 c 0
 208 744 339 875 500 875 c 0
500 792 m 0
 385 792 292 698 292 583 c 0
 292 468 385 375 500 375 c 0
 615 375 708 468 708 583 c 0
 708 698 615 792 500 792 c 0
EndSplineSet
LCarets2: 3 -76 -76 -76
MultipleSubs2: "CCMP cartouches" t.meli cart.body
Ligature2: "LIGA basics" m e l i
EndChar

StartChar: t.mi
Encoding: 153 989492 54
GlifName: t.mi
Width: 1000
GlyphClass: 1
Flags: W
HStem: 417 83<427.166 571.609> 771 83<428.391 571.609>
VStem: 281 84<570.899 705.259> 635 84<563.445 706.756>
LayerCount: 2
Fore
SplineSet
281 625 m 2
 281 635 l 2
 281 756 379 854 500 854 c 0
 621 854 719 756 719 635 c 0
 719 514 621 417 500 417 c 0
 458 417 417 428 382 451 c 1
 411 299 474 153 567 29 c 1
 500 -21 l 1
 361 164 283 394 281 625 c 2
500 771 m 0
 425 771 365 710 365 635 c 0
 365 560 425 500 500 500 c 0
 575 500 635 560 635 635 c 0
 635 710 575 771 500 771 c 0
EndSplineSet
LCarets2: 1 0
MultipleSubs2: "CCMP cartouches" t.mi cart.body
Ligature2: "LIGA basics" m i
EndChar

StartChar: t.mije
Encoding: 154 989493 55
GlifName: t.mije
Width: 1000
GlyphClass: 1
Flags: W
HStem: -21 84<265.564 442.578> 479 84<265.564 445.962> 750 83<500 774>
VStem: 63 83<182.518 359.482> 563 83<182.518 361.241> 833 84<417 691>
LayerCount: 2
Fore
SplineSet
354 479 m 0
 239 479 146 386 146 271 c 0
 146 156 239 63 354 63 c 0
 469 63 563 156 563 271 c 0
 563 386 469 479 354 479 c 0
500 833 m 1
 917 833 l 1
 917 792 l 1
 917 750 l 1
 917 417 l 1
 833 417 l 1
 833 691 l 1
 588 445 l 1
 624 396 646 336 646 271 c 0
 646 110 515 -21 354 -21 c 0
 193 -21 63 110 63 271 c 0
 63 432 193 563 354 563 c 0
 419 563 480 540 529 504 c 1
 774 750 l 1
 500 750 l 1
 500 833 l 1
EndSplineSet
LCarets2: 3 -76 -76 -76
MultipleSubs2: "CCMP cartouches" t.mije cart.body
Ligature2: "LIGA basics" m i j e
EndChar

StartChar: t.moku
Encoding: 155 989494 56
GlifName: t.moku
Width: 1000
GlyphClass: 1
Flags: W
HStem: 0 21G<235.962 333 750 833> 354 84<453.422 630.436> 500 83<452.516 631.438> 750 83<338 746>
VStem: 250 83<145 232.733> 750 83<0 232.733>
LayerCount: 2
Fore
SplineSet
104 208 m 1
 172 256 l 1
 250 145 l 1
 250 146 l 2
 250 307 381 438 542 438 c 0
 703 438 833 307 833 146 c 2
 833 0 l 1
 750 0 l 1
 750 146 l 2
 750 261 657 354 542 354 c 0
 427 354 333 261 333 146 c 2
 333 0 l 1
 250 0 l 1
 104 208 l 1
338 750 m 1
 357 655 441 583 542 583 c 0
 643 583 727 655 746 750 c 1
 338 750 l 1
250 833 m 1
 833 833 l 1
 833 792 l 2
 833 631 703 500 542 500 c 0
 381 500 250 631 250 792 c 2
 250 833 l 1
EndSplineSet
LCarets2: 3 -76 -76 -76
MultipleSubs2: "CCMP cartouches" t.moku cart.body
Ligature2: "LIGA basics" m o k u
EndChar

StartChar: t.moli
Encoding: 156 989495 57
GlifName: t.moli
Width: 1000
GlyphClass: 1
Flags: W
HStem: -21 83<379.449 620.551> 771 83<379.449 620.551>
VStem: 62 84<296.387 537.512> 854 84<296.387 537.512>
LayerCount: 2
Fore
SplineSet
500 854 m 0
 741 854 938 658 938 417 c 0
 938 176 741 -21 500 -21 c 0
 259 -21 62 176 62 417 c 0
 62 658 259 854 500 854 c 0
500 771 m 0
 305 771 146 612 146 417 c 0
 146 222 305 62 500 62 c 0
 695 62 854 222 854 417 c 0
 854 612 695 771 500 771 c 0
246 562 m 1
 333 469 l 1
 420 562 l 1
 479 504 l 1
 385 417 l 1
 479 330 l 1
 420 271 l 1
 333 365 l 1
 246 271 l 1
 188 330 l 1
 281 417 l 1
 188 504 l 1
 246 562 l 1
580 562 m 1
 667 469 l 1
 754 562 l 1
 812 504 l 1
 719 417 l 1
 812 330 l 1
 754 271 l 1
 667 365 l 1
 580 271 l 1
 521 330 l 1
 615 417 l 1
 521 504 l 1
 580 562 l 1
EndSplineSet
LCarets2: 3 -76 -76 -76
MultipleSubs2: "CCMP cartouches" t.moli cart.body
Ligature2: "LIGA basics" m o l i
EndChar

StartChar: t.monsi
Encoding: 157 989496 58
GlifName: t.monsi
Width: 1000
GlyphClass: 1
Flags: W
HStem: 0 83<500 750> 344 146<240.5 343.5> 750 83<500 750>
VStem: 219 146<365.5 468.5> 417 83<83 750>
LayerCount: 2
Fore
SplineSet
750 83 m 1
 750 0 l 1
 417 0 l 1
 417 833 l 1
 750 833 l 1
 750 750 l 1
 500 750 l 1
 500 83 l 1
 750 83 l 1
292 490 m 0
 332 490 365 457 365 417 c 0
 365 377 332 344 292 344 c 0
 252 344 219 377 219 417 c 0
 219 457 252 490 292 490 c 0
EndSplineSet
LCarets2: 4 -76 -76 -76 -76
MultipleSubs2: "CCMP cartouches" t.monsi cart.body
Ligature2: "LIGA basics" m o n s i
EndChar

StartChar: t.mu
Encoding: 158 989497 59
GlifName: t.mu
Width: 1000
GlyphClass: 1
Flags: W
HStem: -21 83<398.162 601.838> 115 145<448.5 551.5> 583 84<416.36 583.64> 771 83<181.654 298.143 701.857 818.4>
VStem: 63 83<618.006 735.346> 156 84<221.084 425.543> 333 84<657.18 737.393> 427 146<136.5 239> 583 84<657.18 737.393> 760 84<221.084 425.543> 854 84<618.006 735.346>
LayerCount: 2
Fore
SplineSet
427 188 m 0
 427 228 460 260 500 260 c 0
 540 260 573 228 573 188 c 0
 573 148 540 115 500 115 c 0
 460 115 427 148 427 188 c 0
240 854 m 0
 338 854 417 775 417 677 c 0
 417 670 416 663 415 656 c 1
 442 663 471 667 500 667 c 0
 529 667 558 663 585 656 c 1
 584 663 583 670 583 677 c 0
 583 775 662 854 760 854 c 0
 858 854 938 775 938 677 c 0
 938 590 875 518 793 503 c 1
 825 451 844 389 844 323 c 0
 844 133 690 -21 500 -21 c 0
 310 -21 156 133 156 323 c 0
 156 389 175 451 207 503 c 1
 125 518 63 590 63 677 c 0
 63 775 142 854 240 854 c 0
240 771 m 0
 188 771 146 729 146 677 c 0
 146 625 188 583 240 583 c 0
 292 583 333 625 333 677 c 0
 333 729 292 771 240 771 c 0
760 771 m 0
 708 771 667 729 667 677 c 0
 667 625 708 583 760 583 c 0
 812 583 854 625 854 677 c 0
 854 729 812 771 760 771 c 0
500 583 m 0
 356 583 240 467 240 323 c 0
 240 179 356 62 500 62 c 0
 644 62 760 179 760 323 c 0
 760 467 644 583 500 583 c 0
EndSplineSet
LCarets2: 1 -76
MultipleSubs2: "CCMP cartouches" t.mu cart.body
Ligature2: "LIGA basics" m u
EndChar

StartChar: t.mun
Encoding: 159 989498 60
GlifName: t.mun
Width: 1000
GlyphClass: 1
Flags: W
HStem: -21 83<340.941 578.99> 771 83<337.45 578.99>
VStem: 458 84<318.537 515.463> 813 83<296.01 537.889>
LayerCount: 2
Fore
SplineSet
207 167 m 2
 208 167 l 2
 346 167 458 279 458 417 c 0
 458 555 346 667 208 667 c 0
 207 667 l 0
 160 667 116 653 76 628 c 1
 101 673 134 714 173 748 c 0
 252 816 353 854 458 854 c 0
 700 854 896 659 896 417 c 0
 896 175 700 -21 458 -21 c 0
 353 -21 252 17 173 85 c 0
 134 119 101 160 76 205 c 1
 116 180 160 167 207 167 c 2
458 771 m 0
 405 771 353 759 305 736 c 1
 446 694 542 564 542 417 c 0
 542 270 446 140 305 98 c 1
 353 75 405 62 458 62 c 0
 654 62 813 221 813 417 c 0
 813 613 654 771 458 771 c 0
EndSplineSet
LCarets2: 2 0 0
MultipleSubs2: "CCMP cartouches" t.mun cart.body
Ligature2: "LIGA basics" m u n
EndChar

StartChar: t.musi
Encoding: 160 989499 61
GlifName: t.musi
Width: 1000
GlyphClass: 1
Flags: W
HStem: -21 83<407.575 592.425> 771 83<181.6 298.143 701.857 818.4>
VStem: 62 84<617.477 735.346> 198 83<191.116 511.657> 333 84<617.477 737.393> 583 84<617.477 737.393> 719 83<191.488 511.657> 854 84<617.477 735.346>
LayerCount: 2
Fore
SplineSet
240 771 m 0
 188 771 146 729 146 677 c 0
 146 625 188 583 240 583 c 0
 292 583 333 625 333 677 c 0
 333 729 292 771 240 771 c 0
760 854 m 0
 858 854 938 775 938 677 c 0
 938 594 880 524 802 505 c 1
 802 281 l 2
 802 115 667 -21 500 -21 c 0
 333 -21 198 114 198 281 c 2
 198 505 l 1
 120 524 62 594 62 677 c 0
 62 775 142 854 240 854 c 0
 338 854 417 775 417 677 c 0
 417 594 359 524 281 505 c 1
 281 281 l 2
 281 161 379 62 500 62 c 0
 621 62 719 160 719 281 c 2
 719 505 l 1
 641 524 583 594 583 677 c 0
 583 775 662 854 760 854 c 0
760 771 m 0
 708 771 667 729 667 677 c 0
 667 625 708 583 760 583 c 0
 812 583 854 625 854 677 c 0
 854 729 812 771 760 771 c 0
EndSplineSet
LCarets2: 3 0 0 0
MultipleSubs2: "CCMP cartouches" t.musi cart.body
Ligature2: "LIGA basics" m u s i
EndChar

StartChar: t.mute
Encoding: 161 989500 62
GlifName: t.mute
Width: 1000
GlyphClass: 1
Flags: W
HStem: 0 21G<167 250 458 542 750 833> 813 20G<167 250 458 542 750 833>
VStem: 167 83<0 833> 458 84<0 833> 750 83<0 833>
CounterMasks: 1 38
LayerCount: 2
Fore
SplineSet
167 0 m 1
 167 833 l 1
 250 833 l 1
 250 0 l 1
 167 0 l 1
458 0 m 1
 458 833 l 1
 542 833 l 1
 542 0 l 1
 458 0 l 1
750 0 m 1
 750 833 l 1
 833 833 l 1
 833 0 l 1
 750 0 l 1
EndSplineSet
LCarets2: 3 -76 -76 -76
MultipleSubs2: "CCMP cartouches" t.mute cart.body
Ligature2: "LIGA basics" m u t e
EndChar

StartChar: t.nanpa
Encoding: 162 989501 63
GlifName: t.nanpa
Width: 1000
GlyphClass: 1
Flags: W
HStem: 188 83<63 292 375 625 708 938> 521 83<63 292 375 625 708 938>
VStem: 292 83<-21 188 271 521 604 854> 625 83<-21 188 271 521 604 854>
LayerCount: 2
Fore
SplineSet
625 521 m 1
 375 521 l 1
 375 271 l 1
 625 271 l 1
 625 521 l 1
708 604 m 1
 938 604 l 1
 938 521 l 1
 708 521 l 1
 708 271 l 1
 938 271 l 1
 938 188 l 1
 708 188 l 1
 708 -21 l 1
 625 -21 l 1
 625 188 l 1
 375 188 l 1
 375 -21 l 1
 292 -21 l 1
 292 188 l 1
 63 188 l 1
 63 271 l 1
 292 271 l 1
 292 521 l 1
 63 521 l 1
 63 604 l 1
 292 604 l 1
 292 854 l 1
 375 854 l 1
 375 604 l 1
 625 604 l 1
 625 854 l 1
 708 854 l 1
 708 604 l 1
EndSplineSet
LCarets2: 4 -76 -76 -76 -76
MultipleSubs2: "CCMP cartouches" t.nanpa cart.body
Ligature2: "LIGA basics" n a n p a
EndChar

StartChar: t.nasa
Encoding: 163 989502 64
GlifName: t.nasa
Width: 1000
GlyphClass: 1
Flags: W
HStem: 73 83<492.084 695.838> 260 84<543.263 644.737> 583 84<418.411 581.589> 771 83<379.449 620.551>
VStem: 62 84<277.975 537.512> 250 83<315.469 496.268> 438 83<366.21 481.759> 667 83<366.21 496.711> 854 84<315.084 537.512>
LayerCount: 2
Fore
SplineSet
483 527 m 1
 542 468 l 1
 529 455 521 437 521 417 c 0
 521 377 554 344 594 344 c 0
 634 344 667 377 667 417 c 0
 667 509 592 583 500 583 c 0
 408 583 333 509 333 417 c 1
 250 417 l 1
 333 417 l 1
 333 273 450 156 594 156 c 0
 738 156 854 273 854 417 c 0
 854 612 695 771 500 771 c 0
 305 771 146 612 146 417 c 0
 146 269 217 138 328 56 c 1
 292 -20 l 1
 153 76 62 236 62 417 c 0
 62 658 259 854 500 854 c 0
 741 854 938 658 938 417 c 0
 938 227 784 73 594 73 c 0
 404 73 250 227 250 417 c 0
 250 555 362 667 500 667 c 0
 638 667 750 555 750 417 c 0
 750 331 680 260 594 260 c 0
 508 260 438 331 438 417 c 0
 438 460 455 499 483 527 c 1
EndSplineSet
LCarets2: 3 -76 -76 -76
MultipleSubs2: "CCMP cartouches" t.nasa cart.body
Ligature2: "LIGA basics" n a s a
EndChar

StartChar: t.nasin
Encoding: 164 989503 65
GlifName: t.nasin
Width: 1000
GlyphClass: 1
Flags: W
HStem: 0 21G<458 542> 813 20G<458 542>
VStem: 458 84<0 483 601 833>
LayerCount: 2
Fore
SplineSet
833 309 m 1
 774 250 l 1
 542 483 l 1
 542 0 l 1
 458 0 l 1
 458 483 l 1
 226 250 l 1
 167 309 l 1
 441 583 l 1
 458 601 l 1
 458 833 l 1
 542 833 l 1
 542 601 l 1
 559 583 l 1
 833 309 l 1
EndSplineSet
LCarets2: 4 0 0 0 0
MultipleSubs2: "CCMP cartouches" t.nasin cart.body
Ligature2: "LIGA basics" n a s i n
EndChar

StartChar: t.nena
Encoding: 165 989504 66
GlifName: t.nena
Width: 1000
GlyphClass: 1
Flags: W
HStem: 0 21G<167 250 750 833> 771 83<401.831 598.169>
VStem: 167 83<0 618.281> 750 83<0 618.281>
LayerCount: 2
Fore
SplineSet
500 854 m 0
 684 854 833 705 833 521 c 2
 833 0 l 1
 750 0 l 1
 750 521 l 2
 750 659 638 771 500 771 c 0
 362 771 250 659 250 521 c 2
 250 0 l 1
 167 0 l 1
 167 521 l 2
 167 705 316 854 500 854 c 0
EndSplineSet
LCarets2: 3 -76 -76 -76
MultipleSubs2: "CCMP cartouches" t.nena cart.body
Ligature2: "LIGA basics" n e n a
EndChar

StartChar: t.ni
Encoding: 166 989505 67
GlifName: t.ni
Width: 1000
GlyphClass: 1
Flags: W
HStem: 813 20G<458 542>
VStem: 458 84<139 833>
LayerCount: 2
Fore
SplineSet
458 833 m 1
 542 833 l 1
 542 139 l 1
 774 371 l 1
 833 312 l 1
 559 38 l 1
 500 -21 l 1
 441 38 l 1
 167 312 l 1
 226 371 l 1
 458 139 l 1
 458 833 l 1
EndSplineSet
LCarets2: 2 0 0
Ligature2: "LIGA alternates" t.ni zero one
MultipleSubs2: "CCMP cartouches" t.ni cart.body
Ligature2: "LIGA basics" n i
EndChar

StartChar: t.nimi
Encoding: 167 989506 68
GlifName: t.nimi
Width: 1000
GlyphClass: 1
Flags: W
HStem: 250 83<132.792 867.208> 500 83<132.792 867.208>
VStem: 42 83<340.792 492.208> 875 83<340.792 492.208>
LayerCount: 2
Fore
SplineSet
167 583 m 2
 833 583 l 2
 902 583 958 527 958 458 c 2
 958 375 l 2
 958 306 902 250 833 250 c 2
 167 250 l 2
 98 250 42 306 42 375 c 2
 42 458 l 2
 42 527 98 583 167 583 c 2
167 500 m 2
 144 500 125 481 125 458 c 2
 125 375 l 2
 125 352 144 333 167 333 c 2
 833 333 l 2
 856 333 875 352 875 375 c 2
 875 458 l 2
 875 481 856 500 833 500 c 2
 167 500 l 2
EndSplineSet
LCarets2: 3 -76 -76 -76
MultipleSubs2: "CCMP cartouches" t.nimi cart.body
Ligature2: "LIGA basics" n i m i
EndChar

StartChar: t.noka
Encoding: 168 989507 69
GlifName: t.noka
Width: 1000
GlyphClass: 1
Flags: W
HStem: 0 83<208 733.76> 333 84<500 733.76> 813 20G<125 208 417 500>
VStem: 125 83<83 833> 417 83<417 833> 792 83<139.684 276.37>
LayerCount: 2
Fore
SplineSet
417 333 m 1
 417 833 l 1
 500 833 l 1
 500 417 l 1
 667 417 l 2
 782 417 875 323 875 208 c 0
 875 93 782 0 667 0 c 2
 125 0 l 1
 125 83 l 1
 125 833 l 1
 208 833 l 1
 208 83 l 1
 667 83 l 2
 736 83 792 139 792 208 c 0
 792 277 736 333 667 333 c 2
 500 333 l 1
 417 333 l 1
EndSplineSet
LCarets2: 3 -76 -76 -76
MultipleSubs2: "CCMP cartouches" t.noka cart.body
Ligature2: "LIGA basics" n o k a
EndChar

StartChar: t.o
Encoding: 169 989508 70
GlifName: t.o
Width: 1000
GlyphClass: 1
Flags: W
HStem: -21 83<435.142 564.858> 292 83<435.142 564.858>
VStem: 302 83<112.142 241.858> 458 84<458 854> 615 83<112.142 241.858>
CounterMasks: 1 38
LayerCount: 2
Fore
SplineSet
458 458 m 1
 458 854 l 1
 542 854 l 1
 542 458 l 1
 458 458 l 1
500 375 m 0
 609 375 698 286 698 177 c 0
 698 68 609 -21 500 -21 c 0
 391 -21 302 68 302 177 c 0
 302 286 391 375 500 375 c 0
500 292 m 0
 437 292 385 240 385 177 c 0
 385 114 437 62 500 62 c 0
 563 62 615 114 615 177 c 0
 615 240 563 292 500 292 c 0
EndSplineSet
MultipleSubs2: "CCMP cartouches" t.o cart.body
Ligature2: "LIGA basics" o
EndChar

StartChar: t.olin
Encoding: 170 989509 71
GlifName: t.olin
Width: 1000
GlyphClass: 1
Flags: W
HStem: 333 84<345.794 447.636 549.986 654.206> 792 83<347.484 446.858 550.713 652.516>
VStem: 250 83<225.26 318.989 682.571 778.987> 667 83<225.26 318.989 682.571 778.987>
LayerCount: 2
Fore
SplineSet
396 875 m 0
 448 875 490 843 500 812 c 1
 510 843 552 875 604 875 c 0
 685 875 750 810 750 729 c 0
 750 689 734 652 705 624 c 2
 500 417 l 1
 295 624 l 2
 266 652 250 689 250 729 c 0
 250 810 315 875 396 875 c 0
604 792 m 0
 562 792 542 771 500 698 c 1
 458 771 430 792 396 792 c 0
 354 792 333 764 333 729 c 0
 333 711 341 695 354 683 c 2
 500 535 l 1
 646 683 l 2
 659 695 667 711 667 729 c 0
 667 764 646 792 604 792 c 0
396 417 m 0
 448 417 490 385 500 354 c 1
 510 385 552 417 604 417 c 0
 685 417 750 352 750 271 c 0
 750 231 734 193 705 165 c 2
 500 -42 l 1
 295 165 l 2
 266 193 250 231 250 271 c 0
 250 352 315 417 396 417 c 0
604 333 m 0
 562 333 542 313 500 240 c 1
 458 313 430 333 396 333 c 0
 354 333 333 306 333 271 c 0
 333 253 341 237 354 225 c 2
 500 77 l 1
 646 225 l 2
 659 237 667 253 667 271 c 0
 667 306 646 333 604 333 c 0
EndSplineSet
MultipleSubs2: "CCMP cartouches" t.olin cart.body
LCarets2: 3 -73 -73 -73
Ligature2: "LIGA basics" o l i n
EndChar

StartChar: t.ona
Encoding: 171 989510 72
GlifName: t.ona
Width: 1000
GlyphClass: 1
Flags: W
HStem: 198 83<654.899 789.259> 552 83<647.244 790.609>
VStem: 500 83<343.7 488.555> 854 84<345.244 488.555>
LayerCount: 2
Fore
SplineSet
709 198 m 2
 478 200 248 278 63 417 c 1
 113 483 l 1
 237 390 383 327 535 298 c 1
 512 333 500 375 500 417 c 0
 500 538 598 635 719 635 c 0
 840 635 938 538 938 417 c 0
 938 296 840 198 719 198 c 2
 709 198 l 2
854 417 m 0
 854 492 794 552 719 552 c 0
 644 552 583 492 583 417 c 0
 583 342 644 281 719 281 c 0
 794 281 854 342 854 417 c 0
EndSplineSet
LCarets2: 2 0 0
MultipleSubs2: "CCMP cartouches" t.ona cart.body
Ligature2: "LIGA basics" o n a
EndChar

StartChar: t.open
Encoding: 172 989511 73
GlifName: t.open
Width: 1000
GlyphClass: 1
Flags: W
HStem: 0 83<250 750> 208 84<250 750> 813 20G<167 250 750 833>
VStem: 167 83<83 208 292 833> 750 83<83 208 292 833>
LayerCount: 2
Fore
SplineSet
167 833 m 1
 250 833 l 1
 250 292 l 1
 750 292 l 1
 750 833 l 1
 833 833 l 1
 833 0 l 1
 167 0 l 1
 167 833 l 1
250 208 m 1
 250 83 l 1
 750 83 l 1
 750 208 l 1
 250 208 l 1
EndSplineSet
LCarets2: 3 -76 -76 -76
MultipleSubs2: "CCMP cartouches" t.open cart.body
Ligature2: "LIGA basics" o p e n
EndChar

StartChar: t.pakala
Encoding: 173 989512 74
GlifName: t.pakala
Width: 1000
GlyphClass: 1
Flags: W
HStem: 0 83<229 458 547 771> 375 83<433 567> 750 83<229 453 542 771>
VStem: 146 83<83 750> 771 83<83 750>
CounterMasks: 1 e0
LayerCount: 2
Fore
SplineSet
146 833 m 1
 854 833 l 1
 854 0 l 1
 146 0 l 1
 146 833 l 1
229 750 m 1
 229 83 l 1
 458 83 l 1
 567 375 l 1
 312 375 l 1
 453 750 l 1
 229 750 l 1
542 750 m 1
 433 458 l 1
 688 458 l 1
 547 83 l 1
 771 83 l 1
 771 750 l 1
 542 750 l 1
EndSplineSet
LCarets2: 5 -76 -76 -76 -76 -76
MultipleSubs2: "CCMP cartouches" t.pakala cart.body
Ligature2: "LIGA basics" p a k a l a
EndChar

StartChar: t.pali
Encoding: 174 989513 75
GlifName: t.pali
Width: 1000
GlyphClass: 1
Flags: W
HStem: 0 21G<235.962 333 750 833> 375 83<465.541 618.32> 771 83<464.702 619.118>
VStem: 250 83<145 255.586> 302 83<537.29 692.118> 698 83<537.29 692.118> 750 83<0 257.231>
LayerCount: 2
Fore
SplineSet
542 854 m 0xe8
 674 854 781 747 781 615 c 0xec
 781 536 743 466 684 422 c 1
 773 372 833 277 833 167 c 2
 833 0 l 1
 750 0 l 1
 750 167 l 2
 750 282 657 375 542 375 c 2
 427 375 333 282 333 167 c 2
 333 0 l 1
 250 0 l 1
 104 208 l 1
 172 256 l 1
 250 145 l 1
 250 167 l 2xf2
 250 277 311 372 400 422 c 1
 341 466 302 536 302 615 c 0
 302 747 410 854 542 854 c 0xe8
542 771 m 0
 456 771 385 701 385 615 c 0
 385 529 456 458 542 458 c 2
 628 458 698 529 698 615 c 0
 698 701 628 771 542 771 c 0
EndSplineSet
LCarets2: 3 -76 -76 -76
MultipleSubs2: "CCMP cartouches" t.pali cart.body
Ligature2: "LIGA basics" p a l i
EndChar

StartChar: t.palisa
Encoding: 175 989514 76
GlifName: t.palisa
Width: 1000
GlyphClass: 1
Flags: W
HStem: -42 84<445.328 554.672> 792 83<445.328 554.672>
VStem: 333 84<71.5278 761.472> 583 84<71.5278 761.472>
LayerCount: 2
Fore
SplineSet
500 875 m 0
 592 875 667 800 667 708 c 2
 667 125 l 2
 667 33 592 -42 500 -42 c 0
 408 -42 333 33 333 125 c 2
 333 708 l 2
 333 800 408 875 500 875 c 0
500 792 m 0
 454 792 417 754 417 708 c 2
 417 125 l 2
 417 79 454 42 500 42 c 0
 546 42 583 79 583 125 c 2
 583 708 l 2
 583 754 546 792 500 792 c 0
EndSplineSet
LCarets2: 5 -76 -76 -76 -76 -76
MultipleSubs2: "CCMP cartouches" t.palisa cart.body
Ligature2: "LIGA basics" p a l i s a
EndChar

StartChar: t.pan
Encoding: 176 989515 77
GlifName: t.pan
Width: 1000
GlyphClass: 1
Flags: W
LayerCount: 2
Fore
SplineSet
312 292 m 1
 500 83 l 1
 688 292 l 1
 750 229 l 1
 500 -21 l 1
 250 229 l 1
 312 292 l 1
312 854 m 1
 500 646 l 1
 688 854 l 1
 750 792 l 1
 500 542 l 1
 250 792 l 1
 312 854 l 1
312 573 m 1
 500 365 l 1
 688 573 l 1
 750 510 l 1
 500 260 l 1
 250 510 l 1
 312 573 l 1
EndSplineSet
LCarets2: 2 -76 -76
MultipleSubs2: "CCMP cartouches" t.pan cart.body
Ligature2: "LIGA basics" p a n
EndChar

StartChar: t.pana
Encoding: 177 989516 78
GlifName: t.pana
Width: 1000
GlyphClass: 1
Flags: W
HStem: -0 21G<235.962 333 750 833> 479 83<453.422 630.436>
VStem: 250 83<145 357.64> 500 83<646 854> 750 83<0 357.64>
CounterMasks: 1 38
LayerCount: 2
Fore
SplineSet
542 562 m 0
 703 562 833 432 833 271 c 1
 750 271 l 1
 750 386 657 479 542 479 c 0
 427 479 333 386 333 271 c 1
 250 271 l 1
 250 432 381 562 542 562 c 0
750 0 m 1
 750 271 l 1
 833 271 l 1
 833 0 l 1
 750 0 l 1
104 208 m 1
 172 256 l 1
 250 145 l 1
 250 271 l 1
 333 271 l 1
 333 -0 l 1
 250 -0 l 1
 104 208 l 1
500 646 m 1
 500 854 l 1
 583 854 l 1
 583 646 l 1
 500 646 l 1
659 626 m 1
 761 808 l 1
 833 767 l 1
 731 585 l 1
 659 626 l 1
425 626 m 1
 352 585 l 1
 250 767 l 1
 323 808 l 1
 425 626 l 1
EndSplineSet
LCarets2: 3 -76 -76 -76
MultipleSubs2: "CCMP cartouches" t.pana cart.body
Ligature2: "LIGA basics" p a n a
EndChar

StartChar: t.pi
Encoding: 178 989517 79
GlifName: t.pi
Width: 1000
GlyphClass: 1
Flags: W
HStem: 83 84<250 833>
VStem: 167 83<167 750>
LayerCount: 2
Fore
SplineSet
167 750 m 1
 250 750 l 1
 250 167 l 1
 833 167 l 1
 833 83 l 1
 167 83 l 1
 167 750 l 1
EndSplineSet
LCarets2: 1 -76
MultipleSubs2: "CCMP cartouches" t.pi cart.body
Ligature2: "LIGA basics" p i
EndChar

StartChar: t.pilin
Encoding: 179 989518 80
GlifName: t.pilin
Width: 1000
GlyphClass: 1
Flags: W
HStem: 0 21G<482.654 517.346> 583 21G<489.5 510.5> 750 83<224.882 373.091 626.909 775.172>
VStem: 63 83<514.401 671.118> 854 84<514.401 671.118>
LayerCount: 2
Fore
SplineSet
302 833 m 0
 384 833 457 792 500 729 c 1
 543 792 616 833 698 833 c 0
 830 833 938 726 938 594 c 0
 938 536 917 481 879 437 c 2
 500 0 l 1
 121 437 l 2
 83 481 63 536 63 594 c 0
 63 726 170 833 302 833 c 0
302 750 m 0
 216 750 146 680 146 594 c 0
 146 556 159 519 184 491 c 2
 500 133 l 1
 816 491 l 2
 841 519 854 556 854 594 c 0
 854 680 784 750 698 750 c 0
 612 750 521 645 500 583 c 1
 479 645 388 750 302 750 c 0
EndSplineSet
LCarets2: 4 -76 -76 -76 -76
MultipleSubs2: "CCMP cartouches" t.pilin cart.body
Ligature2: "LIGA basics" p i l i n
EndChar

StartChar: t.pimeja
Encoding: 180 989519 81
GlifName: t.pimeja
Width: 1000
GlyphClass: 1
Flags: W
HStem: 0 83<198 254 371 629 746 802>
LayerCount: 2
Fore
SplineSet
500 875 m 1
 938 0 l 1
 63 0 l 1
 500 875 l 1
500 688 m 1
 381 449 l 1
 500 330 l 1
 619 449 l 1
 500 688 l 1
659 370 m 1
 559 271 l 1
 746 83 l 1
 802 83 l 1
 659 370 l 1
341 370 m 1
 198 83 l 1
 254 83 l 1
 441 271 l 1
 341 370 l 1
500 212 m 1
 371 83 l 1
 629 83 l 1
 500 212 l 1
EndSplineSet
LCarets2: 5 -76 -76 -76 -76 -76
MultipleSubs2: "CCMP cartouches" t.pimeja cart.body
Ligature2: "LIGA basics" p i m e j a
EndChar

StartChar: t.pini
Encoding: 181 989520 82
GlifName: t.pini
Width: 1000
GlyphClass: 1
Flags: W
HStem: 0 83<250 458 542 750> 750 83<250 458 542 750>
VStem: 458 84<83 750>
LayerCount: 2
Fore
SplineSet
250 0 m 1
 250 83 l 1
 458 83 l 1
 458 750 l 1
 250 750 l 1
 250 833 l 1
 750 833 l 1
 750 750 l 1
 542 750 l 1
 542 83 l 1
 750 83 l 1
 750 0 l 1
 250 0 l 1
EndSplineSet
LCarets2: 3 0 0 0
MultipleSubs2: "CCMP cartouches" t.pini cart.body
Ligature2: "LIGA basics" p i n i
EndChar

StartChar: t.pipi
Encoding: 182 989521 83
GlifName: t.pipi
Width: 1000
GlyphClass: 1
Flags: W
HStem: 83 84<250 458 542 750> 292 83<250 458 542 750> 500 83<250 458 542 750> 729 146<281.5 384.5 615.5 718.5>
VStem: 260 146<750.5 853.5> 458 84<-42 83 167 292 375 500 583 708> 594 146<750.5 853.5>
CounterMasks: 1 0e
LayerCount: 2
Fore
SplineSet
260 802 m 0
 260 842 293 875 333 875 c 0
 373 875 406 842 406 802 c 0
 406 762 373 729 333 729 c 0
 293 729 260 762 260 802 c 0
594 802 m 0
 594 842 627 875 667 875 c 0
 707 875 740 842 740 802 c 0
 740 762 707 729 667 729 c 0
 627 729 594 762 594 802 c 0
250 83 m 1
 250 167 l 1
 458 167 l 1
 458 292 l 1
 250 292 l 1
 250 375 l 1
 458 375 l 1
 458 500 l 1
 250 500 l 1
 250 583 l 1
 458 583 l 1
 458 708 l 1
 542 708 l 1
 542 583 l 1
 750 583 l 1
 750 500 l 1
 542 500 l 1
 542 375 l 1
 750 375 l 1
 750 292 l 1
 542 292 l 1
 542 167 l 1
 750 167 l 1
 750 83 l 1
 542 83 l 1
 542 -42 l 1
 458 -42 l 1
 458 83 l 1
 250 83 l 1
EndSplineSet
LCarets2: 3 -76 -76 -76
MultipleSubs2: "CCMP cartouches" t.pipi cart.body
Ligature2: "LIGA basics" p i p i
EndChar

StartChar: t.poka
Encoding: 183 989522 84
GlifName: t.poka
Width: 1000
GlyphClass: 1
Flags: W
HStem: 229 83<167 625> 344 146<792.5 895.5>
VStem: 83 84<312 604> 625 83<312 604> 771 146<365.5 468.5>
LayerCount: 2
Fore
SplineSet
625 604 m 1
 708 604 l 1
 708 229 l 1
 83 229 l 1
 83 604 l 1
 167 604 l 1
 167 312 l 1
 625 312 l 1
 625 604 l 1
771 417 m 0
 771 457 804 490 844 490 c 0
 884 490 917 457 917 417 c 0
 917 377 884 344 844 344 c 0
 804 344 771 377 771 417 c 0
EndSplineSet
LCarets2: 3 -76 -76 -76
MultipleSubs2: "CCMP cartouches" t.poka cart.body
Ligature2: "LIGA basics" p o k a
EndChar

StartChar: t.poki
Encoding: 184 989523 85
GlifName: t.poki
Width: 1000
GlyphClass: 1
Flags: W
HStem: -0 83<250 750> 813 20G<167 250 750 833>
VStem: 167 83<83 833> 750 83<83 833>
LayerCount: 2
Fore
SplineSet
750 833 m 1
 833 833 l 1
 833 -0 l 1
 167 -0 l 1
 167 833 l 1
 250 833 l 1
 250 83 l 1
 750 83 l 1
 750 833 l 1
EndSplineSet
LCarets2: 3 -76 -76 -76
MultipleSubs2: "CCMP cartouches" t.poki cart.body
Ligature2: "LIGA basics" p o k i
EndChar

StartChar: t.pona
Encoding: 185 989524 86
GlifName: t.pona
Width: 1000
GlyphClass: 1
Flags: W
HStem: 208 84<385.708 614.292>
VStem: 83 84<510.948 625> 833 84<510.948 625>
LayerCount: 2
Fore
SplineSet
83 625 m 1
 167 625 l 1
 167 441 316 292 500 292 c 0
 684 292 833 441 833 625 c 1
 917 625 l 1
 917 395 730 208 500 208 c 0
 270 208 83 395 83 625 c 1
EndSplineSet
LCarets2: 3 -76 -76 -76
MultipleSubs2: "CCMP cartouches" t.pona cart.body
Ligature2: "LIGA basics" p o n a
EndChar

StartChar: t.pu
Encoding: 186 989525 87
GlifName: t.pu
Width: 1000
GlyphClass: 1
Flags: W
HStem: -0 125<420.5 579.5> -0 83<229 404 596 771> 208 63<444.194 555.806> 458 63<419.215 580.785> 583 21G<469 531> 750 83<229 469 531 771>
VStem: 146 83<83 750> 271 62<211.255 370.908> 360 60<295.456 315.983> 469 62<583 750> 580 60<295.456 315.983> 667 62<211.255 370.908> 771 83<83 750>
LayerCount: 2
Fore
SplineSet
146 833 m 1x7ff8
 854 833 l 1
 854 -0 l 1
 146 -0 l 1
 146 833 l 1x7ff8
600 567 m 1
 673 717 l 1
 729 690 l 1
 656 540 l 1
 600 567 l 1
400 567 m 1
 344 540 l 1
 271 690 l 1
 327 717 l 1
 400 567 l 1
500 521 m 0
 626 521 729 418 729 292 c 0
 729 200 675 119 596 83 c 1
 771 83 l 1
 771 750 l 1
 531 750 l 1
 531 583 l 1
 469 583 l 1
 469 750 l 1
 229 750 l 1
 229 83 l 1
 404 83 l 1
 325 119 271 200 271 292 c 0
 271 418 374 521 500 521 c 0
500 458 m 0
 408 458 333 384 333 292 c 0
 333 200 408 125 500 125 c 0xbff8
 592 125 667 200 667 292 c 0
 667 384 592 458 500 458 c 0
420 331 m 1
 430 296 462 271 500 271 c 0
 538 271 570 296 580 331 c 1
 640 314 l 1
 623 253 567 208 500 208 c 0
 433 208 377 253 360 314 c 1
 420 331 l 1
EndSplineSet
LCarets2: 1 -76
MultipleSubs2: "CCMP cartouches" t.pu cart.body
Ligature2: "LIGA basics" p u
EndChar

StartChar: t.sama
Encoding: 187 989526 88
GlifName: t.sama
Width: 1000
GlyphClass: 1
Flags: W
HStem: 208 84<167 833> 542 83<167 833>
LayerCount: 2
Fore
SplineSet
167 542 m 1
 167 625 l 1
 833 625 l 1
 833 542 l 1
 167 542 l 1
167 208 m 1
 167 292 l 1
 833 292 l 1
 833 208 l 1
 167 208 l 1
EndSplineSet
LCarets2: 3 -76 -76 -76
MultipleSubs2: "CCMP cartouches" t.sama cart.body
Ligature2: "LIGA basics" s a m a
EndChar

StartChar: t.seli
Encoding: 188 989527 89
GlifName: t.seli
Width: 1000
GlyphClass: 1
Flags: W
HStem: 31 146<448.5 551.5>
VStem: 427 146<52.5 155.5> 458 84<271 792>
LayerCount: 2
Fore
SplineSet
427 104 m 0xc0
 427 144 460 177 500 177 c 0
 540 177 573 144 573 104 c 0
 573 64 540 31 500 31 c 0
 460 31 427 64 427 104 c 0xc0
458 271 m 1xa0
 458 792 l 1
 542 792 l 1
 542 271 l 1
 458 271 l 1xa0
620 251 m 1
 864 711 l 1
 938 672 l 1
 693 212 l 1
 620 251 l 1
380 251 m 1
 307 212 l 1
 62 672 l 1
 136 711 l 1
 380 251 l 1
EndSplineSet
LCarets2: 3 -76 -76 -76
MultipleSubs2: "CCMP cartouches" t.seli cart.body
Ligature2: "LIGA basics" s e l i
EndChar

StartChar: t.selo
Encoding: 189 989528 90
GlifName: t.selo
Width: 1000
GlyphClass: 1
Flags: W
HStem: 542 83<125 250 333 667 750 875>
VStem: 42 83<167 542> 250 83<167 542> 667 83<167 542> 875 83<167 542>
LayerCount: 2
Fore
SplineSet
42 167 m 1
 42 625 l 1
 125 625 l 1
 875 625 l 1
 958 625 l 1
 958 167 l 1
 875 167 l 1
 875 542 l 1
 750 542 l 1
 750 167 l 1
 667 167 l 1
 667 542 l 1
 333 542 l 1
 333 167 l 1
 250 167 l 1
 250 542 l 1
 125 542 l 1
 125 167 l 1
 42 167 l 1
EndSplineSet
LCarets2: 3 -76 -76 -76
MultipleSubs2: "CCMP cartouches" t.selo cart.body
Ligature2: "LIGA basics" s e l o
EndChar

StartChar: t.seme
Encoding: 190 989529 91
GlifName: t.seme
Width: 1000
GlyphClass: 1
Flags: W
HStem: -21 146<448.5 551.5> 229 167<458 542> 312 84<542 647.662> 583 21G<167 250> 771 83<351.55 647.662>
VStem: 167 83<583 668.662> 427 146<0.5 103.5> 458 84<229 312> 750 83<496.752 669.354>
LayerCount: 2
Fore
SplineSet
427 52 m 0x9e80
 427 92 460 125 500 125 c 0
 540 125 573 92 573 52 c 0
 573 12 540 -21 500 -21 c 0
 460 -21 427 12 427 52 c 0x9e80
437 854 m 2
 562 854 l 2
 712 854 833 733 833 583 c 0
 833 433 712 312 562 312 c 2
 542 312 l 1xbd80
 542 229 l 1
 458 229 l 1xdd80
 458 312 l 1xbd80
 458 396 l 1xdd80
 562 396 l 2xbd80
 666 396 750 479 750 583 c 0
 750 687 666 771 562 771 c 2
 437 771 l 2
 333 771 250 687 250 583 c 1
 167 583 l 1
 167 733 287 854 437 854 c 2
EndSplineSet
LCarets2: 3 0 0 0
MultipleSubs2: "CCMP cartouches" t.seme cart.body
Ligature2: "LIGA basics" s e m e
EndChar

StartChar: t.sewi
Encoding: 191 989530 92
GlifName: t.sewi
Width: 1000
GlyphClass: 1
Flags: W
HStem: -21 83<60.8571 139.155 278.152 389.083 527.521 637.988> -0 21G<875 958> 813 20G<875 958>
VStem: 167 83<89.6758 375> 417 83<90.6175 542> 667 83<92.3484 708> 875 83<0 833>
LayerCount: 2
Fore
SplineSet
83 62 m 0xbe
 129 62 167 99 167 145 c 2
 167 375 l 1
 250 375 l 1
 250 146 l 2
 250 100 287 62 333 62 c 0
 379 62 417 100 417 146 c 2
 417 542 l 1
 500 542 l 1
 500 145 l 2
 500 99 537 62 583 62 c 0
 629 62 667 100 667 146 c 2
 667 708 l 1
 750 708 l 1
 750 146 l 1
 750 143 750 139 750 135 c 0
 750 49 680 -21 594 -21 c 0
 538 -21 489 9 461 54 c 1
 436 10 388 -21 333 -21 c 0
 280 -21 234 8 208 50 c 1
 182 8 136 -21 83 -21 c 0
 68 -21 54 -19 40 -15 c 1
 62 65 l 1
 69 63 76 62 83 62 c 0xbe
875 -0 m 1x7e
 875 833 l 1
 958 833 l 1
 958 -0 l 1
 875 -0 l 1x7e
EndSplineSet
Ligature2: "LIGA alternates" t.sewi zero one
LCarets2: 3 -76 -76 -76
MultipleSubs2: "CCMP cartouches" t.sewi cart.body
Ligature2: "LIGA basics" s e w i
EndChar

StartChar: t.sijelo
Encoding: 192 989531 93
GlifName: t.sijelo
Width: 1000
GlyphClass: 1
Flags: W
HStem: 667 83<250 458 542 750>
VStem: 167 83<42 667> 458 84<83 667> 750 83<42 667>
CounterMasks: 1 70
LayerCount: 2
Fore
SplineSet
750 42 m 1
 750 667 l 1
 542 667 l 1
 542 83 l 1
 458 83 l 1
 458 667 l 1
 250 667 l 1
 250 42 l 1
 167 42 l 1
 167 750 l 1
 833 750 l 1
 833 42 l 1
 750 42 l 1
EndSplineSet
LCarets2: 5 -76 -76 -76 -76 -76
MultipleSubs2: "CCMP cartouches" t.sijelo cart.body
Ligature2: "LIGA basics" s i j e l o
EndChar

StartChar: t.sike
Encoding: 193 989532 94
GlifName: t.sike
Width: 1000
GlyphClass: 1
Flags: W
HStem: -21 83<379.488 620.551> 167 83<420.173 579.827> 583 84<418.411 581.589> 771 83<379.488 620.551>
VStem: 63 83<296.387 537.512> 250 83<337.173 496.711> 667 83<337.173 496.711> 854 84<296.387 537.512>
LayerCount: 2
Fore
SplineSet
500 854 m 0
 741 854 938 658 938 417 c 0
 938 176 741 -21 500 -21 c 0
 259 -21 63 176 63 417 c 0
 63 658 259 854 500 854 c 0
500 771 m 0
 305 771 146 612 146 417 c 0
 146 222 305 62 500 62 c 0
 695 62 854 222 854 417 c 0
 854 612 695 771 500 771 c 0
500 667 m 0
 638 667 750 555 750 417 c 0
 750 279 638 167 500 167 c 0
 362 167 250 279 250 417 c 0
 250 555 362 667 500 667 c 0
500 583 m 0
 408 583 333 509 333 417 c 0
 333 325 408 250 500 250 c 0
 592 250 667 325 667 417 c 0
 667 509 592 583 500 583 c 0
EndSplineSet
LCarets2: 3 -76 -76 -76
MultipleSubs2: "CCMP cartouches" t.sike cart.body
Ligature2: "LIGA basics" s i k e
EndChar

StartChar: t.sin
Encoding: 194 989533 95
GlifName: t.sin
Width: 1000
GlyphClass: 1
Flags: W
HStem: 250 83<83 396 604 917>
VStem: 458 84<396 687>
LayerCount: 2
Fore
SplineSet
83 250 m 1
 83 333 l 1
 396 333 l 1
 396 250 l 1
 83 250 l 1
604 250 m 1
 604 333 l 1
 917 333 l 1
 917 250 l 1
 604 250 l 1
458 687 m 1
 542 687 l 1
 542 396 l 1
 458 396 l 1
 458 687 l 1
EndSplineSet
LCarets2: 2 -76 -76
MultipleSubs2: "CCMP cartouches" t.sin cart.body
Ligature2: "LIGA basics" s i n
EndChar

StartChar: t.sina
Encoding: 195 989534 96
GlifName: t.sina
Width: 1000
GlyphClass: 1
Flags: W
HStem: -21 83<428.391 571.609> 333 84<427.166 571.609>
VStem: 281 84<127.741 262.101> 635 84<126.244 269.609>
LayerCount: 2
Fore
SplineSet
281 208 m 2
 283 439 361 669 500 854 c 1
 567 804 l 1
 474 680 411 534 382 382 c 1
 417 405 458 417 500 417 c 0
 621 417 719 319 719 198 c 0
 719 77 621 -21 500 -21 c 0
 379 -21 281 77 281 198 c 2
 281 208 l 2
500 62 m 0
 575 62 635 123 635 198 c 0
 635 273 575 333 500 333 c 0
 425 333 365 273 365 198 c 0
 365 123 425 62 500 62 c 0
EndSplineSet
LCarets2: 3 0 0 0
MultipleSubs2: "CCMP cartouches" t.sina cart.body
Ligature2: "LIGA basics" s i n a
EndChar

StartChar: t.sinpin
Encoding: 196 989535 97
GlifName: t.sinpin
Width: 1000
GlyphClass: 1
Flags: W
HStem: 0 83<250 500> 344 146<656.5 759.5> 750 83<250 500>
VStem: 500 83<83 750> 635 146<365.5 468.5>
LayerCount: 2
Fore
SplineSet
250 83 m 1
 500 83 l 1
 500 750 l 1
 250 750 l 1
 250 833 l 1
 583 833 l 1
 583 0 l 1
 250 0 l 1
 250 83 l 1
708 490 m 0
 748 490 781 457 781 417 c 0
 781 377 748 344 708 344 c 0
 668 344 635 377 635 417 c 0
 635 457 668 490 708 490 c 0
EndSplineSet
LCarets2: 5 -76 -76 -76 -76 -76
MultipleSubs2: "CCMP cartouches" t.sinpin cart.body
Ligature2: "LIGA basics" s i n p i n
EndChar

StartChar: t.sitelen
Encoding: 197 989536 98
GlifName: t.sitelen
Width: 1000
GlyphClass: 1
Flags: W
HStem: 0 83<229 771> 333 167<291.012 375.442 458.012 541.988 624.558 708.988> 750 83<229 771>
VStem: 146 83<83 750> 271 125<353.616 479.814> 438 124<353.616 479.814> 604 125<353.616 479.814> 771 83<83 750>
CounterMasks: 1 e0
LayerCount: 2
Fore
SplineSet
146 833 m 1
 854 833 l 1
 854 0 l 1
 146 0 l 1
 146 833 l 1
229 750 m 1
 229 83 l 1
 771 83 l 1
 771 750 l 1
 229 750 l 1
438 417 m 0
 438 463 465 500 500 500 c 0
 535 500 562 463 562 417 c 0
 562 371 535 333 500 333 c 0
 465 333 438 371 438 417 c 0
604 417 m 0
 604 463 632 500 667 500 c 0
 702 500 729 463 729 417 c 0
 729 371 702 333 667 333 c 0
 632 333 604 371 604 417 c 0
271 417 m 0
 271 463 298 500 333 500 c 0
 368 500 396 463 396 417 c 0
 396 371 368 333 333 333 c 0
 298 333 271 371 271 417 c 0
EndSplineSet
LCarets2: 6 -76 -76 -76 -76 -76 -76
MultipleSubs2: "CCMP cartouches" t.sitelen cart.body
Ligature2: "LIGA basics" s i t e l e n
EndChar

StartChar: t.sona
Encoding: 198 989537 99
GlifName: t.sona
Width: 1000
GlyphClass: 1
Flags: W
HStem: 0 83<333 667> 458 84<333 667>
VStem: 250 83<83 458> 458 84<646 854> 667 83<83 458>
CounterMasks: 1 38
LayerCount: 2
Fore
SplineSet
458 646 m 1
 458 854 l 1
 542 854 l 1
 542 646 l 1
 458 646 l 1
617 626 m 1
 719 808 l 1
 792 767 l 1
 690 585 l 1
 617 626 l 1
383 626 m 1
 310 585 l 1
 208 767 l 1
 281 808 l 1
 383 626 l 1
250 542 m 1
 750 542 l 1
 750 0 l 1
 250 0 l 1
 250 542 l 1
333 458 m 1
 333 83 l 1
 667 83 l 1
 667 458 l 1
 333 458 l 1
EndSplineSet
LCarets2: 3 -76 -76 -76
MultipleSubs2: "CCMP cartouches" t.sona cart.body
Ligature2: "LIGA basics" s o n a
EndChar

StartChar: t.soweli
Encoding: 199 989538 100
GlifName: t.soweli
Width: 1000
GlyphClass: 1
Flags: W
HStem: 0 333<83 167 250 333 417 500 583 662.819> 448 146<406.5 509.5> 510 146<594.5 697.5> 750 83<83 711.733>
VStem: 83 84<0 333> 250 83<0 333> 385 146<469.5 572.5> 417 83<0 333> 573 146<531.5 634.5> 583 84<0 256.477> 833 84<450.836 630.436>
LayerCount: 2
Fore
SplineSet
385 521 m 0xde20
 385 561 418 594 458 594 c 0
 498 594 531 561 531 521 c 0
 531 481 498 448 458 448 c 0
 418 448 385 481 385 521 c 0xde20
573 583 m 0xbca0
 573 623 606 656 646 656 c 0
 686 656 719 623 719 583 c 0
 719 543 686 510 646 510 c 0
 606 510 573 543 573 583 c 0xbca0
83 0 m 1
 83 333 l 1
 167 333 l 1
 167 0 l 1
 83 0 l 1
250 0 m 1
 250 333 l 1
 333 333 l 1
 333 0 l 1
 250 0 l 1
417 0 m 1x9d20
 417 333 l 1
 500 333 l 1
 500 0 l 1
 417 0 l 1x9d20
583 0 m 1x9c60
 583 333 l 1
 626 333 l 2
 741 334 833 427 833 542 c 0
 833 657 740 750 625 750 c 2
 83 750 l 1
 83 833 l 1
 625 833 l 2
 786 833 917 703 917 542 c 0
 917 395 808 273 667 253 c 1
 667 0 l 1
 583 0 l 1x9c60
EndSplineSet
LCarets2: 5 -76 -76 -76 -76 -76
MultipleSubs2: "CCMP cartouches" t.soweli cart.body
Ligature2: "LIGA basics" s o w e l i
EndChar

StartChar: t.suli
Encoding: 200 989539 101
GlifName: t.suli
Width: 1000
GlyphClass: 1
Flags: W
HStem: -0 21G<458 542> 822 20G<98.3731 205 795 887>
VStem: 458 84<0 203.289>
LayerCount: 2
Fore
SplineSet
113 842 m 1
 297 708 435 516 500 292 c 1
 565 516 703 708 887 842 c 1
 887 842 937 775 936 775 c 0
 696 601 542 319 542 -0 c 1
 542 0 459 -0 458 -0 c 0
 458 319 304 601 64 775 c 1
 113 842 l 1
EndSplineSet
LCarets2: 3 0 0 0
MultipleSubs2: "CCMP cartouches" t.suli cart.body
Ligature2: "LIGA basics" s u l i
EndChar

StartChar: t.suno
Encoding: 201 989540 102
GlifName: t.suno
Width: 1000
GlyphClass: 1
Flags: W
HStem: 149 80<415.723 458 542 584.277> 375 83<63 236.23 763.77 938> 604 80<415.723 458 542 584.277>
VStem: 232 81<332.723 375 458 500.277> 458 84<-21 153.23 679.77 854> 688 80<332.723 375 458 500.277>
CounterMasks: 1 e0
LayerCount: 2
Fore
SplineSet
458 854 m 1
 542 854 l 1
 542 684 l 1
 658 666 750 574 768 458 c 1
 938 458 l 1
 938 375 l 1
 768 375 l 1
 750 259 658 167 542 149 c 1
 542 -21 l 1
 458 -21 l 1
 458 149 l 1
 342 167 250 259 232 375 c 1
 63 375 l 1
 63 458 l 1
 232 458 l 1
 250 574 342 666 458 684 c 1
 458 854 l 1
500 604 m 0
 397 604 313 520 313 417 c 0
 313 314 397 229 500 229 c 0
 603 229 688 314 688 417 c 0
 688 520 603 604 500 604 c 0
EndSplineSet
LCarets2: 3 -94 -94 -94
MultipleSubs2: "CCMP cartouches" t.suno cart.body
Ligature2: "LIGA basics" s u n o
EndChar

StartChar: t.supa
Encoding: 202 989541 103
GlifName: t.supa
Width: 1000
GlyphClass: 1
Flags: W
HStem: 458 84<83 250 333 667 750 917>
VStem: 250 83<208 458> 667 83<208 458>
LayerCount: 2
Fore
SplineSet
83 458 m 1
 83 542 l 1
 917 542 l 1
 917 458 l 1
 750 458 l 1
 750 208 l 1
 667 208 l 1
 667 458 l 1
 333 458 l 1
 333 208 l 1
 250 208 l 1
 250 458 l 1
 83 458 l 1
EndSplineSet
LCarets2: 3 -76 -76 -76
MultipleSubs2: "CCMP cartouches" t.supa cart.body
Ligature2: "LIGA basics" s u p a
EndChar

StartChar: t.suwi
Encoding: 203 989542 104
GlifName: t.suwi
Width: 1000
GlyphClass: 1
Flags: W
HStem: 135 146<448.5 551.5>
VStem: 427 146<156.5 259.5>
LayerCount: 2
Fore
SplineSet
427 208 m 0
 427 248 460 281 500 281 c 0
 540 281 573 248 573 208 c 0
 573 168 540 135 500 135 c 0
 460 135 427 168 427 208 c 0
208 396 m 1
 104 396 l 1
 271 688 l 1
 438 396 l 1
 333 396 l 1
 271 531 l 1
 208 396 l 1
667 396 m 1
 562 396 l 1
 729 688 l 1
 896 396 l 1
 792 396 l 1
 729 531 l 1
 667 396 l 1
EndSplineSet
LCarets2: 3 -76 -76 -76
MultipleSubs2: "CCMP cartouches" t.suwi cart.body
Ligature2: "LIGA basics" s u w i
EndChar

StartChar: t.tan
Encoding: 204 989543 105
GlifName: t.tan
Width: 1000
GlyphClass: 1
Flags: W
HStem: 594 83<467.36 678.64>
VStem: 208 84<271 415.096> 854 84<197.347 417.709>
LayerCount: 2
Fore
SplineSet
573 677 m 0
 774 677 938 513 938 312 c 0
 938 262 927 212 907 166 c 1
 832 203 l 1
 847 238 854 274 854 312 c 0
 854 467 728 594 573 594 c 0
 418 594 292 467 292 312 c 2
 292 271 l 1
 396 396 l 1
 458 333 l 1
 250 125 l 1
 42 333 l 1
 104 396 l 1
 208 271 l 1
 208 312 l 2
 208 513 372 677 573 677 c 0
EndSplineSet
LCarets2: 2 -76 -76
MultipleSubs2: "CCMP cartouches" t.tan cart.body
Ligature2: "LIGA basics" t a n
EndChar

StartChar: t.taso
Encoding: 205 989544 106
GlifName: t.taso
Width: 1000
GlyphClass: 1
Flags: W
HStem: 0 21G<542 625> 375 83<250 542> 813 20G<542 625>
VStem: 542 83<0 375 458 833>
LayerCount: 2
Fore
SplineSet
250 375 m 1
 250 458 l 1
 542 458 l 1
 542 833 l 1
 625 833 l 1
 625 0 l 1
 542 0 l 1
 542 375 l 1
 250 375 l 1
EndSplineSet
LCarets2: 3 -76 -76 -76
MultipleSubs2: "CCMP cartouches" t.taso cart.body
Ligature2: "LIGA basics" t a s o
EndChar

StartChar: t.tawa
Encoding: 206 989545 107
GlifName: t.tawa
Width: 1000
GlyphClass: 1
Flags: W
HStem: 0 21G<332.26 384.211 620.547 667.877> 813 20G<396.985 529.454>
LayerCount: 2
Fore
SplineSet
525 833 m 1
 684 119 l 1
 902 221 l 1
 938 146 l 1
 625 0 l 1
 458 750 l 1
 175 185 l 1
 410 76 l 1
 375 0 l 1
 63 146 l 1
 407 833 l 1
 525 833 l 1
EndSplineSet
LCarets2: 3 0 0 0
MultipleSubs2: "CCMP cartouches" t.tawa cart.body
Ligature2: "LIGA basics" t a w a
EndChar

StartChar: t.telo
Encoding: 207 989546 108
GlifName: t.telo
Width: 1000
GlyphClass: 1
Flags: W
HStem: 73 83<646.756 790.555> 302 83<209.391 353.244> 448 83<646.756 790.609> 677 83<209.391 353.244>
VStem: 62 84<125 237.152 500 612.152> 854 83<221.741 333 596.741 708>
LayerCount: 2
Fore
SplineSet
62 542 m 2
 62 663 160 760 281 760 c 0
 326 760 370 746 407 720 c 2
 641 556 l 2
 664 540 691 531 719 531 c 0
 794 531 854 592 854 667 c 2
 854 708 l 1
 938 708 l 1
 938 667 l 2
 938 546 840 448 719 448 c 0
 674 448 630 462 593 488 c 2
 359 652 l 2
 336 668 309 677 281 677 c 0
 206 677 146 617 146 542 c 2
 146 500 l 1
 62 500 l 1
 62 542 l 2
62 167 m 2
 62 288 160 385 281 385 c 0
 326 385 370 371 407 345 c 2
 641 181 l 2
 664 165 691 156 719 156 c 0
 794 156 854 217 854 292 c 2
 854 333 l 1
 937 333 l 1
 937 292 l 2
 937 171 840 73 719 73 c 0
 674 73 630 87 593 113 c 2
 359 277 l 2
 336 293 309 302 281 302 c 0
 206 302 146 242 146 167 c 2
 146 125 l 1
 62 125 l 1
 62 167 l 2
EndSplineSet
LCarets2: 3 -76 -76 -76
MultipleSubs2: "CCMP cartouches" t.telo cart.body
Ligature2: "LIGA basics" t e l o
EndChar

StartChar: t.tenpo
Encoding: 208 989547 109
GlifName: t.tenpo
Width: 1000
GlyphClass: 1
Flags: W
HStem: -21 83<379.449 620.551> 375 83<542 708> 771 83<379.449 620.551>
VStem: 62 84<296.387 537.512> 458 84<458 729> 854 84<296.387 537.512>
CounterMasks: 1 fc
LayerCount: 2
Fore
SplineSet
500 854 m 0
 741 854 938 658 938 417 c 0
 938 176 741 -21 500 -21 c 0
 259 -21 62 176 62 417 c 0
 62 658 259 854 500 854 c 0
500 771 m 0
 305 771 146 612 146 417 c 0
 146 222 305 62 500 62 c 0
 695 62 854 222 854 417 c 0
 854 612 695 771 500 771 c 0
458 375 m 1
 458 729 l 1
 542 729 l 1
 542 458 l 1
 708 458 l 1
 708 375 l 1
 490 375 l 1
 458 375 l 1
EndSplineSet
LCarets2: 4 -76 -76 -76 -76
MultipleSubs2: "CCMP cartouches" t.tenpo cart.body
Ligature2: "LIGA basics" t e n p o
EndChar

StartChar: t.toki
Encoding: 209 989548 110
GlifName: t.toki
Width: 1000
GlyphClass: 1
Flags: W
HStem: -21 83<407.575 592.425> 500 83<407.575 592.425>
VStem: 198 83<188.575 373.425> 458 84<646 854> 719 83<188.575 373.425>
CounterMasks: 1 38
LayerCount: 2
Fore
SplineSet
500 583 m 0
 667 583 802 448 802 281 c 0
 802 114 667 -21 500 -21 c 0
 333 -21 198 114 198 281 c 0
 198 448 333 583 500 583 c 0
500 500 m 0
 379 500 281 402 281 281 c 0
 281 160 379 62 500 62 c 0
 621 62 719 160 719 281 c 0
 719 402 621 500 500 500 c 0
458 646 m 1
 458 854 l 1
 542 854 l 1
 542 646 l 1
 458 646 l 1
617 626 m 1
 719 808 l 1
 792 767 l 1
 690 585 l 1
 617 626 l 1
383 626 m 1
 310 585 l 1
 208 767 l 1
 281 808 l 1
 383 626 l 1
EndSplineSet
LCarets2: 3 -76 -76 -76
MultipleSubs2: "CCMP cartouches" t.toki cart.body
Ligature2: "LIGA basics" t o k i
EndChar

StartChar: t.tomo
Encoding: 210 989549 111
GlifName: t.tomo
Width: 1000
GlyphClass: 1
Flags: W
HStem: -0 83<167 833>
VStem: 83 84<83 385> 833 84<83 385>
LayerCount: 2
Fore
SplineSet
500 854 m 1
 917 417 l 1
 917 -0 l 1
 83 -0 l 1
 83 417 l 1
 500 854 l 1
500 729 m 1
 167 385 l 1
 167 83 l 1
 833 83 l 1
 833 385 l 1
 500 729 l 1
EndSplineSet
LCarets2: 3 -76 -76 -76
MultipleSubs2: "CCMP cartouches" t.tomo cart.body
Ligature2: "LIGA basics" t o m o
EndChar

StartChar: t.tu
Encoding: 211 989550 112
GlifName: t.tu
Width: 1000
GlyphClass: 1
Flags: W
HStem: 0 21G<292 375 625 708> 813 20G<292 375 625 708>
VStem: 292 83<0 833> 625 83<0 833>
LayerCount: 2
Fore
SplineSet
292 0 m 1
 292 833 l 1
 375 833 l 1
 375 0 l 1
 292 0 l 1
625 0 m 1
 625 833 l 1
 708 833 l 1
 708 0 l 1
 625 0 l 1
EndSplineSet
LCarets2: 1 -76
MultipleSubs2: "CCMP cartouches" t.tu cart.body
Ligature2: "LIGA basics" t u
EndChar

StartChar: t.unpa
Encoding: 212 989551 113
GlifName: t.unpa
Width: 1000
GlyphClass: 1
Flags: W
HStem: 42 83<431.684 568.316> 375 83<225.133 292 386 614 708 774.867> 708 84<223.63 411.395 588.605 776.37>
VStem: 83 84<514.684 651.37> 292 83<183.24 375> 300 86<458 517.547> 614 86<458 517.547> 625 83<183.24 375> 833 84<514.684 651.37>
LayerCount: 2
Fore
SplineSet
292 792 m 0xf980
 368 792 439 771 500 736 c 1
 561 771 632 792 708 792 c 0
 823 792 917 698 917 583 c 0
 917 468 823 375 708 375 c 1
 708 250 l 0
 708 135 615 42 500 42 c 0
 385 42 292 135 292 250 c 2
 292 375 l 0
 177 375 83 468 83 583 c 0
 83 698 177 792 292 792 c 0xf980
292 708 m 0
 223 708 167 652 167 583 c 0
 167 514 223 458 292 458 c 2xf880
 300 458 l 1xf480
 318 545 362 623 425 681 c 1
 384 699 339 708 292 708 c 0
708 708 m 0xf180
 661 708 616 699 575 681 c 1
 638 623 682 545 700 458 c 1xf280
 708 458 l 1
 777 458 833 514 833 583 c 0
 833 652 777 708 708 708 c 0xf180
500 635 m 1
 445 591 404 529 386 458 c 1xf680
 614 458 l 1
 596 529 555 591 500 635 c 1
375 375 m 1xf980
 375 250 l 1
 375 181 431 125 500 125 c 0
 569 125 625 181 625 250 c 2
 625 375 l 1
 375 375 l 1xf980
EndSplineSet
LCarets2: 3 -76 -76 -76
MultipleSubs2: "CCMP cartouches" t.unpa cart.body
Ligature2: "LIGA basics" u n p a
EndChar

StartChar: t.uta
Encoding: 213 989552 114
GlifName: t.uta
Width: 1000
GlyphClass: 1
Flags: W
HStem: 62 146<448.5 551.5> 292 83<393.993 606.007> 625 83<211 789>
VStem: 427 146<83.5 186.5>
LayerCount: 2
Fore
SplineSet
427 135 m 0
 427 175 460 208 500 208 c 0
 540 208 573 175 573 135 c 0
 573 95 540 62 500 62 c 0
 460 62 427 95 427 135 c 0
125 708 m 1
 875 708 l 1
 875 667 l 2
 875 460 707 292 500 292 c 0
 293 292 125 460 125 667 c 2
 125 708 l 1
211 625 m 1
 232 481 355 375 500 375 c 0
 645 375 768 481 789 625 c 1
 211 625 l 1
EndSplineSet
LCarets2: 2 -76 -76
MultipleSubs2: "CCMP cartouches" t.uta cart.body
Ligature2: "LIGA basics" u t a
EndChar

StartChar: t.utala
Encoding: 214 989553 115
GlifName: t.utala
Width: 1000
GlyphClass: 1
Flags: W
LayerCount: 2
Fore
SplineSet
765 860 m 1
 833 812 l 1
 551 409 l 1
 740 139 l 1
 864 372 l 1
 938 333 l 1
 750 -21 l 1
 500 336 l 1
 250 -21 l 1
 63 333 l 1
 136 372 l 1
 260 139 l 1
 449 409 l 1
 167 812 l 1
 235 860 l 1
 500 482 l 1
 765 860 l 1
EndSplineSet
LCarets2: 4 0 0 0 0
MultipleSubs2: "CCMP cartouches" t.utala cart.body
Ligature2: "LIGA basics" u t a l a
EndChar

StartChar: t.walo
Encoding: 215 989554 116
GlifName: t.walo
Width: 1000
GlyphClass: 1
Flags: W
HStem: 0 83<198 802>
LayerCount: 2
Fore
SplineSet
326 340 m 1
 198 83 l 1
 802 83 l 1
 500 688 l 1
 326 340 l 1
858 642 m 1
 917 583 l 1
 736 403 l 1
 938 0 l 1
 63 0 l 1
 264 403 l 1
 83 583 l 1
 142 642 l 1
 303 481 l 1
 500 875 l 1
 697 481 l 1
 858 642 l 1
EndSplineSet
LCarets2: 3 -76 -76 -76
MultipleSubs2: "CCMP cartouches" t.walo cart.body
Ligature2: "LIGA basics" w a l o
EndChar

StartChar: t.wan
Encoding: 216 989555 117
GlifName: t.wan
Width: 1000
GlyphClass: 1
Flags: W
HStem: 0 21G<500 583> 813 20G<483.36 583>
VStem: 500 83<0 703>
LayerCount: 2
Fore
SplineSet
500 833 m 1
 583 833 l 1
 583 0 l 1
 500 0 l 1
 500 703 l 1
 356 530 l 1
 292 583 l 1
 500 833 l 1
EndSplineSet
LCarets2: 2 -76 -76
MultipleSubs2: "CCMP cartouches" t.wan cart.body
Ligature2: "LIGA basics" w a n
EndChar

StartChar: t.waso
Encoding: 217 989556 118
GlifName: t.waso
Width: 1000
GlyphClass: 1
Flags: W
HStem: 167 83<333 732> 323 146<177.5 280.5> 385 146<365.5 468.5>
VStem: 156 146<344.5 447.5> 250 83<-42 167> 344 146<406.5 509.5>
LayerCount: 2
Fore
SplineSet
156 396 m 0xd4
 156 436 189 469 229 469 c 0
 269 469 302 436 302 396 c 0
 302 356 269 323 229 323 c 0
 189 323 156 356 156 396 c 0xd4
344 458 m 0
 344 498 377 531 417 531 c 0
 457 531 490 498 490 458 c 0
 490 418 457 385 417 385 c 0xa4
 377 385 344 418 344 458 c 0
333 833 m 1x8c
 402 880 l 1
 833 250 l 1
 833 167 l 1
 333 167 l 1
 333 -42 l 1
 250 -42 l 1
 250 167 l 1
 250 187 l 1
 250 250 l 1
 732 250 l 1
 333 833 l 1x8c
EndSplineSet
LCarets2: 3 -76 -76 -76
MultipleSubs2: "CCMP cartouches" t.waso cart.body
Ligature2: "LIGA basics" w a s o
EndChar

StartChar: t.wawa
Encoding: 218 989557 119
GlifName: t.wawa
Width: 1000
GlyphClass: 1
Flags: W
HStem: 146 83<425.656 574.344> 521 83<425.656 574.344>
VStem: 271 83<300.656 449.344> 646 83<300.656 449.344>
LayerCount: 2
Fore
SplineSet
250 188 m 1
 169 169 l 1
 42 729 l 1
 123 748 l 1
 250 188 l 1
750 188 m 1
 877 748 l 1
 958 729 l 1
 831 169 l 1
 750 188 l 1
500 604 m 0
 626 604 729 501 729 375 c 0
 729 249 626 146 500 146 c 0
 374 146 271 249 271 375 c 0
 271 501 374 604 500 604 c 0
500 521 m 0
 420 521 354 455 354 375 c 0
 354 295 420 229 500 229 c 0
 580 229 646 295 646 375 c 0
 646 455 580 521 500 521 c 0
EndSplineSet
LCarets2: 3 -76 -76 -76
MultipleSubs2: "CCMP cartouches" t.wawa cart.body
Ligature2: "LIGA basics" w a w a
EndChar

StartChar: t.weka
Encoding: 219 989558 120
GlifName: t.weka
Width: 1000
GlyphClass: 1
Flags: W
HStem: -0 21G<122 162 838 878> 813 20G<122 162 838 878>
LayerCount: 2
Fore
SplineSet
142 833 m 1
 425 550 l 1
 366 491 l 1
 83 774 l 1
 142 833 l 1
858 833 m 1
 917 774 l 1
 634 491 l 1
 575 550 l 1
 858 833 l 1
366 342 m 1
 425 283 l 1
 142 -0 l 1
 83 59 l 1
 366 342 l 1
634 342 m 1
 917 59 l 1
 858 -0 l 1
 575 283 l 1
 634 342 l 1
EndSplineSet
LCarets2: 3 -76 -76 -76
MultipleSubs2: "CCMP cartouches" t.weka cart.body
Ligature2: "LIGA basics" w e k a
EndChar

StartChar: t.wile
Encoding: 220 989559 121
GlifName: t.wile
Width: 1000
GlyphClass: 1
Flags: W
HStem: 62 84<224.456 380.451 619.423 775.937>
VStem: 62 84<223.118 476.873> 458 84<224.419 333> 854 84<224.419 476.055>
CounterMasks: 1 70
LayerCount: 2
Fore
SplineSet
64 292 m 1
 63 292 63 292 63 292 c 1
 64 292 l 1
458 302 m 2
 458 333 l 1
 542 333 l 1
 542 302 l 1
 541 302 l 1
 541 216 612 146 698 146 c 0
 784 146 854 216 854 302 c 1
 852 458 807 604 731 728 c 1
 732 727 802 771 802 771 c 1
 887 632 938 467 938 292 c 1
 938 292 937 292 936 292 c 1
 937 292 l 1
 937 165 835 62 708 62 c 0
 616 62 536 117 500 196 c 1
 464 117 384 62 292 62 c 0
 165 62 62 165 62 292 c 0
 62 467 113 632 198 771 c 1
 198 771 268 727 269 728 c 1
 192 603 147 456 146 299 c 0
 148 214 217 146 302 146 c 0
 388 146 458 216 458 302 c 2
EndSplineSet
LCarets2: 3 -76 -76 -76
MultipleSubs2: "CCMP cartouches" t.wile cart.body
Ligature2: "LIGA basics" w i l e
EndChar

StartChar: i
Encoding: 73 105 122
GlifName: glyph122
Width: 500
VWidth: 899
Flags: W
HStem: 0 21G<250 333> 500 83<83 250> 656 146<240.5 343.5>
VStem: 219 146<677.5 780.5> 250 83<0 500>
LayerCount: 2
Fore
SplineSet
292 802 m 0xf0
 332 802 365 769 365 729 c 0
 365 689 332 656 292 656 c 0
 252 656 219 689 219 729 c 0
 219 769 252 802 292 802 c 0xf0
83 500 m 1
 83 583 l 1
 333 583 l 1
 333 521 l 1
 333 500 l 1
 333 0 l 1
 250 0 l 1
 250 500 l 1xe8
 83 500 l 1
EndSplineSet
MultipleSubs2: "CCMP cartouches" i cart.hwbody
EndChar

StartChar: j
Encoding: 74 106 123
GlifName: glyph123
Width: 500
VWidth: -98
Flags: W
HStem: -94 84<181.334 298.143> 500 83<229 333> 656 146<323.5 426.5>
VStem: 302 146<677.5 780.5> 333 84<26.1359 500>
LayerCount: 2
Fore
SplineSet
375 802 m 0xf0
 415 802 448 769 448 729 c 0
 448 689 415 656 375 656 c 0
 335 656 302 689 302 729 c 0
 302 769 335 802 375 802 c 0xf0
229 500 m 1
 229 583 l 1
 417 583 l 1
 417 500 l 1
 417 83 l 2
 417 -15 338 -94 240 -94 c 0
 172 -94 113 -56 83 0 c 1
 151 54 l 0
 163 17 199 -10 240 -10 c 0
 292 -10 333 31 333 83 c 2
 333 500 l 1xe8
 229 500 l 1
EndSplineSet
MultipleSubs2: "CCMP cartouches" j cart.hwbody
EndChar

StartChar: o
Encoding: 79 111 124
GlifName: glyph124
Width: 500
VWidth: -98
Flags: W
HStem: -10 83<181.684 318.316> 500 83<181.684 318.316>
VStem: 42 83<131.24 441.76> 375 83<131.24 441.76>
LayerCount: 2
Fore
SplineSet
250 583 m 0
 365 583 458 490 458 375 c 2
 458 198 l 2
 458 83 365 -10 250 -10 c 0
 135 -10 42 83 42 198 c 2
 42 375 l 2
 42 490 135 583 250 583 c 0
250 500 m 0
 181 500 125 444 125 375 c 2
 125 198 l 2
 125 129 181 73 250 73 c 0
 319 73 375 129 375 198 c 2
 375 375 l 2
 375 444 319 500 250 500 c 0
EndSplineSet
MultipleSubs2: "CCMP cartouches" o cart.hwbody
EndChar

StartChar: a
Encoding: 65 97 125
GlifName: glyph125
Width: 500
VWidth: -98
Flags: W
HStem: -10 72<180.689 320.062> -0 21G<375 458> 312 73<180.689 320.062> 500 83<169.15 311.555>
VStem: 42 83<118.156 255.905> 375 83<0 43 117.127 256.873 332 435.152>
LayerCount: 2
Fore
SplineSet
375 332 m 1xbc
 375 365 l 1
 458 365 l 1
 458 -0 l 1
 375 -0 l 1x7c
 375 43 l 1
 340 10 292 -10 240 -10 c 0
 131 -10 42 78 42 187 c 0
 42 296 131 385 240 385 c 0
 292 385 340 365 375 332 c 1xbc
240 583 m 0
 361 583 458 486 458 365 c 1
 375 365 l 1
 375 440 315 500 240 500 c 0
 180 500 129 460 111 406 c 1
 42 458 l 0
 77 532 153 583 240 583 c 0
250 312 m 0
 181 312 125 256 125 187 c 0
 125 118 181 62 250 62 c 0xbc
 319 62 375 118 375 187 c 0
 375 256 319 312 250 312 c 0
EndSplineSet
MultipleSubs2: "CCMP cartouches" a cart.hwbody
EndChar

StartChar: A
Encoding: 33 65 126
Width: 500
VWidth: 899
Flags: W
HStem: -0 21G<42 129.28 370.72 458> 250 83<181 319> 813 20G<175.711 324.289>
LayerCount: 2
Fore
SplineSet
181 333 m 1
 319 333 l 1
 250 750 l 1
 181 333 l 1
179 833 m 1
 321 833 l 1
 458 -0 l 1
 374 -0 l 1
 333 250 l 1
 167 250 l 1
 126 -0 l 1
 42 -0 l 1
 179 833 l 1
EndSplineSet
MultipleSubs2: "CCMP cartouches" A cart.hwbody
EndChar

StartChar: B
Encoding: 34 66 127
Width: 500
VWidth: 899
Flags: W
HStem: -0 83<125 330.869> 375 83<125 333.466> 750 83<125 330.869>
VStem: 42 83<83 375 458 750> 375 83<127.131 333.466 499.534 705.869>
CounterMasks: 1 e0
LayerCount: 2
Fore
SplineSet
42 0 m 1
 42 833 l 1
 116 833 l 1
 125 833 l 1
 271 833 l 1
 374 833 458 749 458 646 c 2
 458 583 l 2
 458 510 417 448 357 417 c 1
 417 386 458 323 458 250 c 2
 458 187 l 2
 458 84 374 0 271 -0 c 2
 116 -0 l 1
 42 0 l 1
375 187 m 1
 375 271 l 2
 375 329 329 375 271 375 c 2
 125 375 l 1
 125 83 l 1
 271 83 l 2
 328 83 375 130 375 187 c 1
375 646 m 1
 375 703 328 750 271 750 c 1
 125 750 l 1
 125 458 l 1
 271 458 l 2
 329 458 375 504 375 562 c 2
 375 646 l 1
EndSplineSet
MultipleSubs2: "CCMP cartouches" B cart.hwbody
EndChar

StartChar: C
Encoding: 35 67 128
Width: 500
VWidth: 911
Flags: W
HStem: -10 83<196.656 346.726> 760 84<196.656 346.726>
VStem: 42 83<145.736 688.264>
LayerCount: 2
Fore
SplineSet
271 844 m 0
 349 844 417 805 458 746 c 1
 399 684 l 1
 374 730 326 760 271 760 c 0
 191 760 125 695 125 615 c 1
 42 615 l 1
 125 615 l 1
 125 219 l 1
 42 219 l 1
 42 615 l 2
 42 741 145 844 271 844 c 0
271 -10 m 0
 145 -10 42 93 42 219 c 1
 125 219 l 1
 125 139 191 73 271 73 c 0
 326 73 374 103 399 149 c 0
 458 87 l 1
 417 28 349 -10 271 -10 c 0
EndSplineSet
MultipleSubs2: "CCMP cartouches" C cart.hwbody
EndChar

StartChar: D
Encoding: 36 68 129
Width: 500
VWidth: 899
Flags: W
HStem: -0 83<125 330.869> 750 83<125 330.869>
VStem: 42 83<83 750> 375 83<127.131 187 188 705.869>
LayerCount: 2
Fore
SplineSet
375 188 m 1
 375 646 l 1
 458 646 l 1
 458 188 l 1
 375 188 l 1
42 0 m 1
 42 833 l 1
 125 833 l 1
 271 833 l 2
 374 833 458 749 458 646 c 1
 375 646 l 1
 375 703 328 750 271 750 c 2
 125 750 l 1
 125 83 l 1
 271 83 l 1
 328 83 375 130 375 187 c 1
 458 187 l 1
 458 84 374 0 271 -0 c 2
 125 -0 l 1
 42 0 l 1
EndSplineSet
MultipleSubs2: "CCMP cartouches" D cart.hwbody
EndChar

StartChar: E
Encoding: 37 69 130
Width: 500
VWidth: 899
Flags: W
HStem: -0 83<125 458> 417 83<125 375> 750 83<125 458>
VStem: 42 83<83 417 500 750>
LayerCount: 2
Fore
SplineSet
125 83 m 1
 458 83 l 1
 458 -0 l 1
 125 -0 l 1
 42 -0 l 1
 42 750 l 1
 42 833 l 1
 458 833 l 1
 458 750 l 1
 125 750 l 1
 125 500 l 1
 375 500 l 1
 375 417 l 1
 125 417 l 1
 125 83 l 1
EndSplineSet
MultipleSubs2: "CCMP cartouches" E cart.hwbody
EndChar

StartChar: F
Encoding: 38 70 131
Width: 500
VWidth: 899
Flags: W
HStem: -0 21G<42 125> 375 83<125 375> 750 83<125 458>
VStem: 42 83<0 375 458 750>
LayerCount: 2
Fore
SplineSet
125 458 m 1
 375 458 l 1
 375 375 l 1
 125 375 l 1
 125 -0 l 1
 42 -0 l 1
 42 750 l 1
 42 833 l 1
 458 833 l 1
 458 750 l 1
 125 750 l 1
 125 458 l 1
EndSplineSet
MultipleSubs2: "CCMP cartouches" F cart.hwbody
EndChar

StartChar: G
Encoding: 39 71 132
Width: 500
VWidth: 911
Flags: W
HStem: -10 83<181.243 317.823> -0 21G<375 458> 375 83<208 375> 760 84<196.656 346.726>
VStem: 42 83<130.358 688.264> 375 83<0 59 128.127 375>
LayerCount: 2
Fore
SplineSet
208 375 m 1xbc
 208 458 l 1
 375 458 l 1
 438 458 l 1
 458 458 l 1
 458 -0 l 1
 375 -0 l 1x7c
 375 59 l 1
 341 16 288 -10 229 -10 c 0
 126 -10 42 74 42 177 c 2
 42 615 l 1
 125 615 l 1
 42 615 l 1
 42 741 145 844 271 844 c 0
 349 844 417 805 458 746 c 1
 399 684 l 1
 374 730 326 760 271 760 c 0
 191 760 125 695 125 615 c 2
 125 198 l 2
 125 129 181 73 250 73 c 0
 319 73 375 129 375 198 c 2
 375 375 l 1
 208 375 l 1xbc
EndSplineSet
MultipleSubs2: "CCMP cartouches" G cart.hwbody
EndChar

StartChar: H
Encoding: 40 72 133
Width: 500
VWidth: 899
Flags: W
HStem: 0 21G<42 125 375 458> 375 83<125 375> 813 20G<42 125 375 458>
VStem: 42 83<0 375 458 833> 375 83<0 375 458 833>
LayerCount: 2
Fore
SplineSet
42 0 m 1
 42 833 l 1
 125 833 l 1
 125 458 l 1
 375 458 l 1
 375 833 l 1
 458 833 l 1
 458 0 l 1
 375 0 l 1
 375 375 l 1
 125 375 l 1
 125 0 l 1
 42 0 l 1
EndSplineSet
MultipleSubs2: "CCMP cartouches" H cart.hwbody
EndChar

StartChar: I
Encoding: 41 73 134
Width: 500
VWidth: 899
Flags: W
HStem: -0 83<83 208 292 417> 750 83<83 208 292 417>
VStem: 208 84<83 750>
LayerCount: 2
Fore
SplineSet
83 -0 m 1
 83 83 l 1
 208 83 l 1
 208 750 l 1
 83 750 l 1
 83 833 l 1
 417 833 l 1
 417 750 l 1
 292 750 l 1
 292 83 l 1
 417 83 l 1
 417 -0 l 1
 83 -0 l 1
EndSplineSet
MultipleSubs2: "CCMP cartouches" I cart.hwbody
EndChar

StartChar: J
Encoding: 42 74 135
Width: 500
VWidth: 899
Flags: W
HStem: -10 83<153.274 303.344> 813 20G<375 458>
VStem: 375 83<145.736 833>
LayerCount: 2
Fore
SplineSet
229 -10 m 0
 151 -10 83 28 42 87 c 1
 101 149 l 1
 126 103 174 73 229 73 c 0
 309 73 375 139 375 219 c 1
 458 219 l 1
 458 93 355 -10 229 -10 c 0
458 219 m 1
 375 219 l 1
 375 833 l 1
 458 833 l 1
 458 219 l 1
EndSplineSet
MultipleSubs2: "CCMP cartouches" J cart.hwbody
EndChar

StartChar: K
Encoding: 43 75 136
Width: 500
VWidth: 899
Flags: W
HStem: -0 21G<42 125 344.667 458> 813 20G<42 125 344.648 458>
VStem: 42 83<0 333 484 833>
LayerCount: 2
Fore
SplineSet
358 833 m 1
 458 833 l 1
 181 417 l 1
 458 -0 l 1
 358 -0 l 1
 130 342 l 1
 125 333 l 1
 125 -0 l 1
 42 -0 l 1
 42 833 l 1
 125 833 l 1
 125 484 l 1
 358 833 l 1
EndSplineSet
MultipleSubs2: "CCMP cartouches" K cart.hwbody
EndChar

StartChar: L
Encoding: 44 76 137
Width: 500
VWidth: 899
Flags: W
HStem: -0 83<125 458> 813 20G<42 125>
VStem: 42 83<83 833>
LayerCount: 2
Fore
SplineSet
42 0 m 1
 42 833 l 1
 125 833 l 1
 125 83 l 1
 458 83 l 1
 458 -0 l 1
 83 -0 l 1
 42 0 l 1
EndSplineSet
MultipleSubs2: "CCMP cartouches" L cart.hwbody
EndChar

StartChar: M
Encoding: 45 77 138
Width: 500
VWidth: 899
Flags: W
HStem: -0 21G<21 104 396 479> 813 20G<21 179.099 320.901 479>
VStem: 21 83<0 750> 396 83<0 750>
LayerCount: 2
Fore
SplineSet
21 833 m 1
 92 833 l 1
 176 833 l 1
 187 762 l 1
 250 333 l 1
 313 762 l 1
 324 833 l 1
 408 833 l 1
 479 833 l 1
 479 -0 l 1
 396 -0 l 1
 396 750 l 1
 332 321 l 1
 322 250 l 1
 178 250 l 1
 168 321 l 1
 104 750 l 1
 104 -0 l 1
 21 -0 l 1
 21 833 l 1
EndSplineSet
MultipleSubs2: "CCMP cartouches" M cart.hwbody
EndChar

StartChar: N
Encoding: 46 78 139
Width: 500
VWidth: 899
Flags: W
HStem: -0 21G<42 125 305.067 458> 813 20G<42 194.933 375 458>
VStem: 42 83<0 750> 375 83<83 833>
LayerCount: 2
Fore
SplineSet
42 833 m 1
 104 833 l 1
 190 833 l 1
 375 83 l 1
 375 833 l 1
 458 833 l 1
 458 -0 l 1
 396 -0 l 1
 310 -0 l 1
 125 750 l 1
 125 -0 l 1
 42 -0 l 1
 42 833 l 1
EndSplineSet
MultipleSubs2: "CCMP cartouches" N cart.hwbody
EndChar

StartChar: O
Encoding: 47 79 140
Width: 500
VWidth: 899
Flags: W
HStem: -10 83<181.684 318.316> 760 84<181.684 318.316>
VStem: 42 83<131.24 701.867> 375 83<131.24 701.867>
LayerCount: 2
Fore
SplineSet
250 844 m 0
 365 844 458 750 458 635 c 2
 458 198 l 2
 458 83 365 -10 250 -10 c 0
 135 -10 42 83 42 198 c 2
 42 635 l 2
 42 750 135 844 250 844 c 0
250 760 m 0
 181 760 125 704 125 635 c 2
 125 198 l 2
 125 129 181 73 250 73 c 0
 319 73 375 129 375 198 c 2
 375 635 l 2
 375 704 319 760 250 760 c 0
EndSplineSet
MultipleSubs2: "CCMP cartouches" O cart.hwbody
EndChar

StartChar: P
Encoding: 48 80 141
Width: 500
VWidth: 899
Flags: W
HStem: 0 21G<42 125> 333 84<125 330.869> 750 83<125 330.869>
VStem: 42 83<0 333 417 750> 375 83<461.024 705.869>
LayerCount: 2
Fore
SplineSet
42 833 m 1
 42 833 41 833 83 833 c 0
 125 833 125 833 125 833 c 1
 271 833 l 2
 374 833 458 749 458 646 c 1
 375 646 l 1
 375 703 328 750 271 750 c 1
 125 750 l 1
 125 417 l 1
 271 417 l 2
 328 417 375 464 375 521 c 1
 375 646 l 1
 458 646 l 1
 458 521 l 2
 458 418 374 333 271 333 c 2
 125 333 l 1
 125 0 l 1
 125 0 125 0 83 0 c 0
 41 0 42 0 42 0 c 1
 42 833 l 1
EndSplineSet
MultipleSubs2: "CCMP cartouches" P cart.hwbody
EndChar

StartChar: Q
Encoding: 49 81 142
Width: 500
VWidth: 911
Flags: W
HStem: 42 83<181.684 283.713> 760 84<181.684 318.316>
VStem: 42 83<183.24 701.867> 375 83<179.94 701.867>
LayerCount: 2
Fore
SplineSet
250 844 m 0
 365 844 458 750 458 635 c 2
 458 250 l 2
 458 189 433 135 392 97 c 1
 438 -0 l 1
 362 -36 l 1
 320 54 l 1
 298 46 275 42 250 42 c 0
 135 42 42 135 42 250 c 2
 42 635 l 2
 42 750 135 844 250 844 c 0
250 760 m 0
 181 760 125 704 125 635 c 2
 125 250 l 2
 125 181 181 125 250 125 c 0
 262 125 273 127 284 130 c 1
 188 333 l 1
 263 369 l 1
 353 179 l 1
 367 199 375 223 375 250 c 2
 375 635 l 2
 375 704 319 760 250 760 c 0
EndSplineSet
MultipleSubs2: "CCMP cartouches" Q cart.hwbody
EndChar

StartChar: R
Encoding: 50 82 143
Width: 500
VWidth: 899
Flags: W
HStem: -0 21G<42 125 356.511 458> 333 84<125 208> 750 83<125 330.869>
VStem: 42 83<0 333 417 750> 375 83<458.963 705.869>
LayerCount: 2
Fore
SplineSet
271 833 m 1
 374 833 458 749 458 646 c 1
 375 646 l 1
 375 703 328 750 271 750 c 1
 271 833 l 1
42 833 m 1
 42 833 41 833 83 833 c 0
 125 833 125 833 125 833 c 1
 271 833 l 1
 271 750 l 1
 125 750 l 1
 125 417 l 1
 271 417 l 2
 328 417 375 464 375 521 c 2
 375 646 l 1
 458 646 l 1
 458 521 l 2
 458 427 390 350 300 336 c 1
 458 -0 l 1
 366 -0 l 1
 208 333 l 1
 125 333 l 1
 125 0 l 1
 125 0 125 0 83 0 c 0
 41 0 42 0 42 0 c 1
 42 833 l 1
EndSplineSet
MultipleSubs2: "CCMP cartouches" R cart.hwbody
EndChar

StartChar: S
Encoding: 51 83 144
Width: 500
VWidth: 899
Flags: W
HStem: 0 83<175.935 316.76> 208 42<375 458> 375 83<183.24 316.76> 750 83<181.684 324.886>
VStem: 42 83<516.24 691.76> 375 83<141.24 316.76>
LayerCount: 2
Fore
SplineSet
250 0 m 1
 250 83 l 1
 319 83 375 139 375 208 c 1
 458 208 l 0
 375 208 l 1
 375 250 l 1
 458 250 l 1
 375 250 l 1
 375 319 319 375 250 375 c 0
 135 375 42 468 42 583 c 2
 42 625 l 2
 42 740 135 833 250 833 c 0
 342 833 422 779 458 700 c 1
 389 647 l 0
 371 707 316 750 250 750 c 0
 181 750 125 694 125 625 c 2
 125 583 l 2
 125 514 181 458 250 458 c 0
 365 458 458 365 458 250 c 2
 458 208 l 0
 458 93 365 0 250 0 c 1
250 0 m 1
 158 0 78 55 42 134 c 1
 111 186 l 0
 129 126 184 83 250 83 c 1
 250 0 l 1
EndSplineSet
MultipleSubs2: "CCMP cartouches" S cart.hwbody
EndChar

StartChar: T
Encoding: 52 84 145
Width: 500
VWidth: 899
Flags: W
HStem: -0 21G<208 292> 750 83<42 208 292 458>
VStem: 208 84<0 750>
LayerCount: 2
Fore
SplineSet
42 750 m 1
 42 833 l 1
 458 833 l 1
 458 750 l 1
 292 750 l 1
 292 -0 l 1
 208 -0 l 1
 208 750 l 1
 42 750 l 1
EndSplineSet
MultipleSubs2: "CCMP cartouches" T cart.hwbody
EndChar

StartChar: U
Encoding: 53 85 146
Width: 500
VWidth: 899
Flags: W
HStem: -10 83<181.684 318.316> 813 20G<42 125 375 458>
VStem: 42 83<131.24 833> 375 83<131.24 833>
LayerCount: 2
Fore
SplineSet
42 833 m 1
 125 833 l 1
 125 198 l 2
 125 129 181 73 250 73 c 0
 319 73 375 129 375 198 c 2
 375 833 l 1
 458 833 l 1
 458 198 l 2
 458 83 365 -10 250 -10 c 0
 135 -10 42 83 42 198 c 2
 42 833 l 1
EndSplineSet
MultipleSubs2: "CCMP cartouches" U cart.hwbody
EndChar

StartChar: V
Encoding: 54 86 147
Width: 500
VWidth: 899
Flags: W
HStem: -0 21G<175.711 324.289> 813 20G<42 129.307 370.693 458>
LayerCount: 2
Fore
SplineSet
179 -0 m 1
 42 833 l 1
 126 833 l 1
 250 83 l 1
 374 833 l 1
 458 833 l 1
 321 -0 l 1
 179 -0 l 1
EndSplineSet
MultipleSubs2: "CCMP cartouches" V cart.hwbody
EndChar

StartChar: W
Encoding: 55 87 148
Width: 500
VWidth: 899
Flags: W
HStem: -0 21G<92.2473 210.24 289.76 407.753> 563 20G<205.873 294.127> 813 20G<21 105.407 394.593 479>
VStem: 21 83<753.123 833> 396 83<753.123 833>
LayerCount: 2
Fore
SplineSet
21 833 m 1
 104 833 l 1
 156 94 l 1
 208 583 l 1
 292 583 l 1
 344 94 l 1
 396 833 l 1
 479 833 l 1
 406 -0 l 1
 292 -0 l 1
 250 375 l 1
 208 -0 l 1
 94 -0 l 1
 21 833 l 1
EndSplineSet
MultipleSubs2: "CCMP cartouches" W cart.hwbody
EndChar

StartChar: X
Encoding: 56 88 149
Width: 500
VWidth: 899
Flags: W
HStem: -0 21G<42 138.855 361.145 458> 813 20G<42 138.881 361.119 458>
LayerCount: 2
Fore
SplineSet
42 833 m 1
 131 833 l 1
 250 531 l 1
 369 833 l 1
 458 833 l 1
 295 417 l 1
 458 -0 l 1
 369 -0 l 1
 250 303 l 1
 131 -0 l 1
 42 -0 l 1
 205 417 l 1
 42 833 l 1
EndSplineSet
MultipleSubs2: "CCMP cartouches" X cart.hwbody
EndChar

StartChar: Y
Encoding: 57 89 150
Width: 500
VWidth: 899
Flags: W
HStem: -0 21G<208 292> 813 20G<42 135.769 364.231 458>
VStem: 208 84<0 333>
LayerCount: 2
Fore
SplineSet
42 833 m 1
 130 833 l 1
 250 417 l 1
 370 833 l 1
 458 833 l 1
 292 333 l 1
 292 -0 l 1
 208 -0 l 1
 208 333 l 1
 42 833 l 1
EndSplineSet
MultipleSubs2: "CCMP cartouches" Y cart.hwbody
EndChar

StartChar: Z
Encoding: 58 90 151
Width: 500
VWidth: 899
Flags: W
HStem: -0 83<125 458> 750 83<42 375>
LayerCount: 2
Fore
SplineSet
42 833 m 1
 418 833 l 1
 458 833 l 1
 458 730 l 1
 125 83 l 1
 458 83 l 1
 458 -0 l 1
 82 -0 l 1
 42 -0 l 1
 42 104 l 1
 375 750 l 1
 42 750 l 1
 42 833 l 1
EndSplineSet
MultipleSubs2: "CCMP cartouches" Z cart.hwbody
EndChar

StartChar: b
Encoding: 66 98 152
Width: 500
VWidth: 899
Flags: W
HStem: -10 93<183.32 318.924> -0 21G<42 125> 500 83<183.32 318.924> 813 20G<42 125>
VStem: 42 83<0 59 138.127 444.873 514 833> 375 83<139.105 442.975>
LayerCount: 2
Fore
SplineSet
125 375 m 2xbc
 125 208 l 2
 125 139 181 83 250 83 c 0
 319 83 375 139 375 208 c 2
 375 375 l 2
 375 444 319 500 250 500 c 0
 181 500 125 444 125 375 c 2xbc
271 583 m 0
 375 583 458 500 458 396 c 2
 458 177 l 2
 458 73 375 -10 271 -10 c 0xbc
 212 -10 159 17 125 59 c 1
 125 -0 l 1
 42 -0 l 1x7c
 42 833 l 1
 125 833 l 1
 125 514 l 1
 159 556 212 583 271 583 c 0
EndSplineSet
MultipleSubs2: "CCMP cartouches" b cart.hwbody
EndChar

StartChar: c
Encoding: 67 99 153
Width: 500
VWidth: 911
Flags: W
HStem: -10 83<196.656 346.726> 500 83<196.656 346.726>
VStem: 42 83<145.736 427.264>
LayerCount: 2
Fore
SplineSet
271 583 m 0
 349 583 417 545 458 486 c 1
 399 424 l 1
 374 470 326 500 271 500 c 0
 191 500 125 434 125 354 c 2
 125 219 l 1
 42 219 l 1
 42 354 l 2
 42 480 145 583 271 583 c 0
271 -10 m 0
 145 -10 42 93 42 219 c 1
 125 219 l 1
 125 139 191 73 271 73 c 0
 326 73 374 103 399 149 c 0
 458 87 l 1
 417 28 349 -10 271 -10 c 0
EndSplineSet
MultipleSubs2: "CCMP cartouches" c cart.hwbody
EndChar

StartChar: d
Encoding: 68 100 154
Width: 500
VWidth: 899
Flags: W
HStem: -10 93<181.076 316.68> -0 21G<375 458> 500 83<181.076 316.68> 813 20G<375 458>
VStem: 42 83<139.105 442.975> 375 83<0 59 138.127 445.557 514 833>
LayerCount: 2
Fore
SplineSet
458 -0 m 1x7c
 375 -0 l 1x7c
 375 59 l 1
 341 17 288 -10 229 -10 c 0xbc
 125 -10 42 73 42 177 c 2
 42 396 l 2
 42 500 125 583 229 583 c 0
 288 583 341 556 375 514 c 1
 375 833 l 1
 458 833 l 1
 458 -0 l 1x7c
250 500 m 0
 181 500 125 444 125 375 c 2
 125 208 l 2
 125 139 181 83 250 83 c 0xbc
 319 83 375 139 375 208 c 2
 375 376 l 2
 375 445 319 500 250 500 c 0
EndSplineSet
MultipleSubs2: "CCMP cartouches" d cart.hwbody
EndChar

StartChar: e
Encoding: 69 101 155
Width: 500
VWidth: 899
Flags: W
HStem: -10 83<196.656 346.726> 271 83<125 375> 500 83<181.684 318.316>
VStem: 42 83<145.736 271 354 441.76> 375 83<354 441.76>
LayerCount: 2
Fore
SplineSet
458 333 m 1
 458 271 l 1
 125 271 l 1
 125 219 l 2
 125 139 191 73 271 73 c 0
 326 73 374 103 399 149 c 0
 458 87 l 1
 417 28 349 -10 271 -10 c 0
 145 -10 42 93 42 219 c 2
 42 375 l 1
 125 375 l 1
 125 354 l 1
 375 354 l 1
 375 375 l 2
 375 444 319 500 250 500 c 0
 181 500 125 444 125 375 c 1
 42 375 l 1
 42 490 135 583 250 583 c 0
 365 583 458 490 458 375 c 2
 458 354 l 1
 458 333 l 1
EndSplineSet
MultipleSubs2: "CCMP cartouches" e cart.hwbody
EndChar

StartChar: f
Encoding: 70 102 156
Width: 500
VWidth: 899
Flags: W
HStem: -0 21G<125 208> 500 83<42 125 208 375> 760 84<241.607 361.971>
VStem: 125 83<0 500 583 723.864>
LayerCount: 2
Fore
SplineSet
302 844 m 0
 370 844 428 806 458 750 c 1
 391 696 l 0
 379 733 343 760 302 760 c 0
 250 760 208 719 208 667 c 2
 208 583 l 1
 375 583 l 1
 375 500 l 1
 208 500 l 1
 208 -0 l 1
 125 -0 l 1
 125 500 l 1
 42 500 l 1
 42 583 l 1
 125 583 l 1
 125 667 l 2
 125 765 204 844 302 844 c 0
EndSplineSet
MultipleSubs2: "CCMP cartouches" f cart.hwbody
EndChar

StartChar: g
Encoding: 71 103 157
Width: 500
VWidth: 911
Flags: W
HStem: -94 84<153.274 303.344> 83 94<181.076 315.402> 500 83<181.076 316.68>
VStem: 42 83<233.062 442.975> 375 83<61.7361 153 232.127 444.873 514 583>
LayerCount: 2
Fore
SplineSet
229 -94 m 0
 151 -94 83 -55 42 4 c 1
 101 66 l 1
 126 20 174 -10 229 -10 c 0
 309 -10 375 55 375 135 c 2
 375 153 l 1
 341 111 288 83 229 83 c 0
 125 83 42 167 42 271 c 2
 42 396 l 2
 42 500 125 583 229 583 c 0
 288 583 341 556 375 514 c 1
 375 583 l 1
 458 583 l 1
 458 135 l 2
 458 9 355 -94 229 -94 c 0
250 500 m 0
 181 500 125 444 125 375 c 2
 125 302 l 2
 125 233 181 177 250 177 c 0
 319 177 375 233 375 302 c 2
 375 375 l 2
 375 444 319 500 250 500 c 0
EndSplineSet
MultipleSubs2: "CCMP cartouches" g cart.hwbody
EndChar

StartChar: h
Encoding: 72 104 158
Width: 500
VWidth: 899
Flags: W
HStem: 0 21G<42 125 375 458> 500 83<183.32 318.924> 813 20G<42 125>
VStem: 42 83<0 444.873 514 833> 375 83<0 442.975>
LayerCount: 2
Fore
SplineSet
42 833 m 1
 125 833 l 1
 125 514 l 1
 159 556 212 583 271 583 c 0
 375 583 458 500 458 396 c 2
 458 -0 l 1
 375 -0 l 1
 375 375 l 2
 375 444 319 500 250 500 c 0
 181 500 125 444 125 375 c 0
 125 0 l 1
 42 0 l 1
 42 833 l 1
EndSplineSet
MultipleSubs2: "CCMP cartouches" h cart.hwbody
EndChar

StartChar: k
Encoding: 75 107 159
Width: 500
VWidth: 899
Flags: W
HStem: -0 21G<42 125 336 458> 563 20G<335.958 458> 813 20G<42 125>
VStem: 42 83<0 167 300 833>
LayerCount: 2
Fore
SplineSet
42 833 m 1
 125 833 l 1
 125 300 l 1
 352 583 l 1
 458 583 l 1
 225 292 l 1
 458 -0 l 1
 352 -0 l 1
 172 225 l 1
 125 167 l 1
 125 -0 l 1
 42 -0 l 1
 42 833 l 1
EndSplineSet
MultipleSubs2: "CCMP cartouches" k cart.hwbody
EndChar

StartChar: l
Encoding: 76 108 160
Width: 500
VWidth: 899
Flags: W
HStem: -0 83<315.131 458> 750 83<42 188>
VStem: 188 83<127.131 187 188 750>
LayerCount: 2
Fore
SplineSet
188 187 m 1
 271 187 l 1
 271 130 318 83 375 83 c 2
 458 83 l 1
 458 -0 l 1
 375 -0 l 2
 272 0 188 84 188 187 c 1
42 750 m 1
 42 833 l 1
 188 833 l 1
 240 833 l 1
 271 833 l 1
 271 188 l 1
 188 188 l 1
 188 750 l 1
 42 750 l 1
EndSplineSet
MultipleSubs2: "CCMP cartouches" l cart.hwbody
EndChar

StartChar: m
Encoding: 77 109 161
Width: 500
VWidth: 899
Flags: W
HStem: 0 21G<21 104 208 292 396 479> 500 83<113.836 198.546 302.221 385.856>
VStem: 21 83<0 490.485 562 583> 208 84<0 490.485> 396 83<0 489.228>
CounterMasks: 1 38
LayerCount: 2
Fore
SplineSet
354 583 m 0
 423 583 479 527 479 458 c 1
 479 454 479 451 479 448 c 1
 479 0 l 1
 396 0 l 1
 396 448 l 2
 396 477 373 500 344 500 c 0
 315 500 292 477 292 448 c 2
 292 0 l 1
 208 0 l 1
 208 448 l 2
 208 477 185 500 156 500 c 0
 127 500 104 477 104 448 c 2
 104 -0 l 1
 21 -0 l 1
 21 583 l 1
 104 583 l 1
 104 562 l 1
 121 575 144 583 167 583 c 0
 204 583 237 563 255 534 c 1
 278 564 314 583 354 583 c 0
EndSplineSet
MultipleSubs2: "CCMP cartouches" m cart.hwbody
EndChar

StartChar: n
Encoding: 78 110 162
Width: 500
VWidth: 899
Flags: W
HStem: 0 21G<42 125 375 458> 500 83<183.32 318.924>
VStem: 42 83<0 444.873 514 583> 375 83<0 442.975>
LayerCount: 2
Fore
SplineSet
42 583 m 1
 125 583 l 1
 125 514 l 1
 159 556 212 583 271 583 c 0
 375 583 458 500 458 396 c 2
 458 0 l 1
 375 0 l 1
 375 375 l 2
 375 444 319 500 250 500 c 0
 181 500 125 444 125 375 c 2
 125 0 l 1
 42 0 l 1
 42 583 l 1
EndSplineSet
MultipleSubs2: "CCMP cartouches" n cart.hwbody
EndChar

StartChar: p
Encoding: 80 112 163
Width: 500
VWidth: 899
Flags: W
HStem: 83 84<184.598 318.924> 500 94<184.598 318.924> 563 20G<42 125>
VStem: 42 83<-83 153 222.127 444.873 524 583> 375 83<223.959 443.938>
LayerCount: 2
Fore
SplineSet
42 583 m 1xb8
 125 583 l 1xb8
 125 524 l 1
 159 566 212 594 271 594 c 0xd8
 375 594 458 510 458 406 c 2
 458 271 l 2
 458 167 375 83 271 83 c 0
 212 83 159 111 125 153 c 1
 125 -83 l 1
 42 -83 l 1
 42 583 l 1xb8
250 167 m 0
 319 167 375 223 375 292 c 2
 375 375 l 2
 375 444 319 500 250 500 c 0xd8
 181 500 125 444 125 375 c 2
 125 292 l 2
 125 223 181 167 250 167 c 0
EndSplineSet
MultipleSubs2: "CCMP cartouches" p cart.hwbody
EndChar

StartChar: q
Encoding: 81 113 164
Width: 500
VWidth: 911
Flags: W
HStem: 83 84<181.076 315.402> 500 94<181.076 315.402> 563 20G<375 458>
VStem: 42 83<223.959 443.938> 375 83<-83 153 222.127 444.873 524 583>
LayerCount: 2
Fore
SplineSet
229 83 m 0xb8
 125 83 42 167 42 271 c 2
 42 406 l 2
 42 510 125 594 229 594 c 0xd8
 288 594 341 566 375 524 c 1
 375 583 l 1
 458 583 l 1
 458 -83 l 1
 375 -83 l 1
 375 153 l 1
 341 111 288 83 229 83 c 0xb8
250 167 m 0
 319 167 375 223 375 292 c 2
 375 375 l 2
 375 444 319 500 250 500 c 0
 181 500 125 444 125 375 c 2
 125 292 l 2
 125 223 181 167 250 167 c 0
EndSplineSet
MultipleSubs2: "CCMP cartouches" q cart.hwbody
EndChar

StartChar: r
Encoding: 82 114 165
Width: 500
VWidth: 899
Flags: W
HStem: 0 21G<42 125> 500 83<190.095 333.821>
VStem: 42 83<0 437.959 507 583>
LayerCount: 2
Fore
SplineSet
281 583 m 0
 359 583 426 539 458 474 c 1
 387 412 l 1
 368 464 318 500 260 500 c 0
 185 500 125 440 125 365 c 2
 125 0 l 1
 42 0 l 1
 42 583 l 1
 125 583 l 1
 125 507 l 1
 161 554 218 583 281 583 c 0
EndSplineSet
MultipleSubs2: "CCMP cartouches" r cart.hwbody
EndChar

StartChar: s
Encoding: 83 115 166
Width: 500
VWidth: 899
Flags: W
HStem: 0 83<146.416 345.365> 250 83<154.635 345.365> 500 83<154.635 353.584>
VStem: 42 83<362.102 471.618> 375 83<112.102 221.618>
CounterMasks: 1 e0
LayerCount: 2
Fore
SplineSet
292 83 m 1
 292 0 l 1
 208 0 l 2
 135 0 73 42 42 102 c 1
 111 149 l 0
 126 110 164 83 208 83 c 2
 292 83 l 1
292 0 m 1
 292 83 l 1
 338 83 375 121 375 167 c 0
 375 213 338 250 292 250 c 2
 208 250 l 2
 116 250 42 325 42 417 c 0
 42 509 116 583 208 583 c 2
 292 583 l 2
 365 583 427 542 458 482 c 1
 389 434 l 0
 374 473 336 500 292 500 c 2
 208 500 l 2
 162 500 125 463 125 417 c 0
 125 371 162 333 208 333 c 2
 292 333 l 2
 384 333 458 259 458 167 c 0
 458 75 384 0 292 0 c 1
EndSplineSet
MultipleSubs2: "CCMP cartouches" s cart.hwbody
EndChar

StartChar: t
Encoding: 84 116 167
Width: 500
VWidth: 899
Flags: W
HStem: -10 83<243.654 361.971> 500 83<42 125 208 375>
VStem: 125 83<110.136 500 583 750>
LayerCount: 2
Fore
SplineSet
125 750 m 1
 208 750 l 1
 208 583 l 1
 375 583 l 1
 375 500 l 1
 208 500 l 1
 208 167 l 2
 208 115 250 73 302 73 c 0
 343 73 379 100 391 137 c 0
 458 83 l 1
 428 27 370 -10 302 -10 c 0
 204 -10 125 69 125 167 c 2
 125 500 l 1
 42 500 l 1
 42 583 l 1
 125 583 l 1
 125 750 l 1
EndSplineSet
MultipleSubs2: "CCMP cartouches" t cart.hwbody
EndChar

StartChar: u
Encoding: 85 117 168
Width: 500
VWidth: 899
Flags: W
HStem: -0 83<181.076 316.68> 563 20G<42 125 375 458>
VStem: 42 83<140.025 583> 375 83<0 69 138.127 583>
LayerCount: 2
Fore
SplineSet
458 0 m 1
 375 0 l 1
 375 69 l 1
 341 27 288 0 229 -0 c 0
 125 0 42 83 42 187 c 2
 42 583 l 1
 125 583 l 1
 125 208 l 2
 125 139 181 83 250 83 c 0
 319 83 375 139 375 208 c 2
 375 583 l 1
 458 583 l 1
 458 0 l 1
EndSplineSet
MultipleSubs2: "CCMP cartouches" u cart.hwbody
EndChar

StartChar: v
Encoding: 86 118 169
Width: 500
VWidth: 899
Flags: W
HStem: -0 21G<180.094 321.914> 563 20G<42 131.93 369.109 460>
LayerCount: 2
Fore
SplineSet
42 583 m 1
 127 583 l 1
 251 80 l 1
 374 583 l 1
 454 583 l 1
 460 582 l 1
 317 -0 l 1
 185 -0 l 1
 42 583 l 1
EndSplineSet
MultipleSubs2: "CCMP cartouches" v cart.hwbody
EndChar

StartChar: w
Encoding: 87 119 170
Width: 500
VWidth: 899
Flags: W
HStem: 0 21G<78.5 212.242 287.758 416> 563 20G<21 104 396 479>
VStem: 21 83<338.896 583> 219 62<335.692 375> 396 83<338.896 583>
CounterMasks: 1 38
LayerCount: 2
Fore
SplineSet
21 583 m 1
 104 583 l 1
 104 412 126 249 167 83 c 1
 219 375 l 1
 281 375 l 1
 333 83 l 1
 374 249 396 412 396 583 c 1
 479 583 l 1
 479 580 l 2
 479 384 447 219 385 0 c 1
 292 0 l 1
 250 198 l 1
 208 0 l 1
 115 0 l 1
 42 219 21 384 21 580 c 2
 21 583 l 1
EndSplineSet
MultipleSubs2: "CCMP cartouches" w cart.hwbody
EndChar

StartChar: x
Encoding: 88 120 171
Width: 500
VWidth: 899
Flags: W
HStem: -0 21G<42 148.024 351.976 458> 563 20G<42 148.024 351.976 458>
LayerCount: 2
Fore
SplineSet
42 583 m 1
 137 583 l 1
 250 378 l 1
 363 583 l 1
 458 583 l 1
 298 292 l 1
 458 -0 l 1
 363 -0 l 1
 250 205 l 1
 137 -0 l 1
 42 -0 l 1
 202 292 l 1
 42 583 l 1
EndSplineSet
MultipleSubs2: "CCMP cartouches" x cart.hwbody
EndChar

StartChar: y
Encoding: 89 121 172
Width: 500
VWidth: 899
Flags: W
HStem: -94 84<92.2231 181.327> 563 20G<42 135.127 364.873 458>
LayerCount: 2
Fore
SplineSet
42 583 m 1
 129 583 l 1
 250 188 l 1
 371 583 l 1
 458 583 l 1
 294 82 l 1
 265 -8 l 2
 248 -59 200 -94 146 -94 c 0
 104 -94 65 -73 42 -38 c 1
 107 16 l 1
 113 0 129 -10 146 -10 c 0
 164 -10 179 1 185 18 c 2
 206 82 l 1
 42 583 l 1
EndSplineSet
MultipleSubs2: "CCMP cartouches" y cart.hwbody
EndChar

StartChar: z
Encoding: 90 122 173
Width: 500
VWidth: 899
Flags: W
HStem: 0 83<125 458> 500 83<42 375>
LayerCount: 2
Fore
SplineSet
42 583 m 1
 447 583 l 1
 458 583 l 1
 458 469 l 1
 125 83 l 1
 458 83 l 1
 458 0 l 1
 53 0 l 1
 42 0 l 1
 42 114 l 1
 375 500 l 1
 42 500 l 1
 42 583 l 1
EndSplineSet
MultipleSubs2: "CCMP cartouches" z cart.hwbody
EndChar

StartChar: zero
Encoding: 16 48 174
Width: 500
VWidth: 911
Flags: W
HStem: -10 83<181.684 318.316> 344 146<198.5 301.5> 760 84<181.684 318.316>
VStem: 42 83<131.24 701.867> 177 146<365.5 468.5> 375 83<131.24 701.867>
CounterMasks: 1 1c
LayerCount: 2
Fore
SplineSet
250 490 m 0
 290 490 323 457 323 417 c 0
 323 377 290 344 250 344 c 0
 210 344 177 377 177 417 c 0
 177 457 210 490 250 490 c 0
250 844 m 0
 365 844 458 750 458 635 c 2
 458 198 l 2
 458 83 365 -10 250 -10 c 0
 135 -10 42 83 42 198 c 2
 42 635 l 2
 42 750 135 844 250 844 c 0
250 760 m 0
 181 760 125 704 125 635 c 2
 125 198 l 2
 125 129 181 73 250 73 c 0
 319 73 375 129 375 198 c 2
 375 635 l 2
 375 704 319 760 250 760 c 0
EndSplineSet
MultipleSubs2: "CCMP cartouches" zero cart.hwbody
EndChar

StartChar: one
Encoding: 17 49 175
Width: 500
VWidth: 899
Flags: W
HStem: -0 83<42 208 292 458> 625 83<83 180.871> 813 20G<208 292>
VStem: 208 84<83 625 735.676 833>
LayerCount: 2
Fore
SplineSet
42 -0 m 1
 42 83 l 1
 208 83 l 1
 208 625 l 1
 83 625 l 1
 83 708 l 1
 125 708 l 2
 171 708 208 746 208 792 c 2
 208 833 l 1
 292 833 l 1
 292 83 l 1
 458 83 l 1
 458 -0 l 1
 292 -0 l 1
 208 -0 l 1
 42 -0 l 1
EndSplineSet
MultipleSubs2: "CCMP cartouches" one cart.hwbody
EndChar

StartChar: two
Encoding: 18 50 176
Width: 500
VWidth: 911
Flags: W
HStem: -0 83<125 458> 760 84<181.684 318.316>
VStem: 42 83<635 701.867> 375 83<565.782 703.37>
LayerCount: 2
Fore
SplineSet
250 844 m 0
 365 844 458 750 458 635 c 0
 458 593 446 553 422 518 c 2
 125 83 l 1
 458 83 l 1
 458 -0 l 1
 42 -0 l 1
 42 59 l 1
 42 109 l 1
 353 565 l 2
 367 586 375 610 375 635 c 0
 375 704 319 760 250 760 c 0
 181 760 125 704 125 635 c 1
 42 635 l 1
 42 750 135 844 250 844 c 0
EndSplineSet
MultipleSubs2: "CCMP cartouches" two cart.hwbody
EndChar

StartChar: three
Encoding: 19 51 177
Width: 500
VWidth: 911
Flags: W
HStem: -10 83<181.684 318.316> 750 83<42 375>
VStem: 42 83<131.24 198> 375 83<131.24 360.545>
LayerCount: 2
Fore
SplineSet
42 198 m 1
 125 198 l 1
 125 129 181 73 250 73 c 0
 319 73 375 129 375 198 c 2
 375 292 l 2
 375 361 319 417 250 417 c 0
 214 417 180 401 156 374 c 2
 93 429 l 1
 375 750 l 1
 42 750 l 1
 42 833 l 1
 458 833 l 1
 458 750 l 1
 458 719 l 1
 266 499 l 1
 374 491 458 402 458 292 c 2
 458 198 l 2
 458 83 365 -10 250 -10 c 0
 135 -10 42 83 42 198 c 1
EndSplineSet
MultipleSubs2: "CCMP cartouches" three cart.hwbody
EndChar

StartChar: four
Encoding: 20 52 178
Width: 500
VWidth: 899
Flags: W
HStem: -0 21G<312 396> 250 83<125 312 396 479> 813 20G<249.996 396>
VStem: 312 84<0 250 333 750>
LayerCount: 2
Fore
SplineSet
125 333 m 1
 312 333 l 1
 312 750 l 1
 125 333 l 1
259 833 m 1
 350 833 l 1
 396 833 l 1
 396 333 l 1
 479 333 l 1
 479 250 l 1
 396 250 l 1
 396 -0 l 1
 312 -0 l 1
 312 250 l 1
 87 250 l 1
 42 250 l 1
 42 333 l 1
 42 351 l 1
 259 833 l 1
EndSplineSet
MultipleSubs2: "CCMP cartouches" four cart.hwbody
EndChar

StartChar: five
Encoding: 21 53 179
Width: 500
VWidth: 899
Flags: W
HStem: -10 83<181.684 318.316> 500 83<179.869 318.316> 750 83<159 458>
VStem: 42 83<131.24 198> 375 83<131.24 441.76>
LayerCount: 2
Fore
SplineSet
159 750 m 1
 141 553 l 1
 173 573 210 583 250 583 c 0
 365 583 458 490 458 375 c 2
 458 198 l 1
 375 198 l 1
 375 375 l 2
 375 444 319 500 250 500 c 0
 185 500 132 451 126 387 c 1
 43 394 l 1
 83 833 l 1
 458 833 l 1
 458 750 l 1
 159 750 l 1
42 198 m 1
 125 198 l 1
 125 129 181 73 250 73 c 0
 319 73 375 129 375 198 c 1
 458 198 l 0
 458 83 365 -10 250 -10 c 0
 135 -10 42 83 42 198 c 1
EndSplineSet
MultipleSubs2: "CCMP cartouches" five cart.hwbody
EndChar

StartChar: six
Encoding: 22 54 180
Width: 500
VWidth: 899
Flags: W
HStem: -10 83<181.684 318.316> 458 84<183.32 318.757> 760 84<181.684 318.316>
VStem: 42 83<131.24 403.557 472 701.867> 375 83<131.24 400.707 635 701.867>
LayerCount: 2
Fore
SplineSet
375 333 m 2
 375 402 319 458 250 458 c 0
 181 458 125 403 125 334 c 2
 125 198 l 2
 125 129 181 73 250 73 c 0
 319 73 375 129 375 198 c 1
 458 198 l 0
 458 83 365 -10 250 -10 c 0
 135 -10 42 83 42 198 c 2
 42 635 l 1
 125 635 l 1
 125 472 l 1
 159 515 212 542 271 542 c 0
 374 542 458 457 458 354 c 2
 458 198 l 1
 375 198 l 1
 375 333 l 2
42 635 m 1
 42 750 135 844 250 844 c 0
 365 844 458 750 458 635 c 1
 375 635 l 1
 375 704 319 760 250 760 c 0
 181 760 125 704 125 635 c 1
 42 635 l 1
EndSplineSet
MultipleSubs2: "CCMP cartouches" six cart.hwbody
EndChar

StartChar: seven
Encoding: 23 55 181
Width: 500
VWidth: 899
Flags: W
HStem: 0 21G<83 180.766> 750 83<42 375>
LayerCount: 2
Fore
SplineSet
407 833 m 1
 458 833 l 1
 458 750 l 1
 458 734 l 1
 173 -0 l 1
 83 0 l 1
 375 750 l 1
 42 750 l 1
 42 833 l 1
 407 833 l 1
EndSplineSet
MultipleSubs2: "CCMP cartouches" seven cart.hwbody
EndChar

StartChar: eight
Encoding: 24 56 182
Width: 500
VWidth: 911
Flags: W
HStem: -10 83<181.684 318.316> 396 73<180.127 319.873> 760 84<181.684 318.316>
VStem: 42 83<131.24 339.242 524.758 701.867> 375 83<131.24 339.242 524.758 701.867>
LayerCount: 2
Fore
SplineSet
250 396 m 0
 181 396 125 340 125 271 c 2
 125 198 l 2
 125 129 181 73 250 73 c 0
 319 73 375 129 375 198 c 2
 375 271 l 2
 375 340 319 396 250 396 c 0
250 844 m 0
 365 844 458 750 458 635 c 2
 458 604 l 2
 458 532 423 469 368 432 c 1
 423 395 458 332 458 260 c 2
 458 198 l 2
 458 83 365 -10 250 -10 c 0
 135 -10 42 83 42 198 c 2
 42 260 l 2
 42 332 77 395 132 432 c 1
 77 469 42 532 42 604 c 2
 42 635 l 2
 42 750 135 844 250 844 c 0
250 760 m 0
 181 760 125 704 125 635 c 2
 125 594 l 2
 125 525 181 469 250 469 c 0
 319 469 375 525 375 594 c 2
 375 635 l 2
 375 704 319 760 250 760 c 0
EndSplineSet
MultipleSubs2: "CCMP cartouches" eight cart.hwbody
EndChar

StartChar: nine
Encoding: 25 57 183
Width: 500
VWidth: 911
Flags: W
HStem: -0 21G<149 326.5> 292 83<181.243 317.699> 760 84<181.684 318.316>
VStem: 42 83<432.358 701.867> 375 83<437.643 701.867>
LayerCount: 2
Fore
SplineSet
42 479 m 2
 42 635 l 1
 125 635 l 1
 125 500 l 2
 125 431 181 375 250 375 c 0
 319 375 375 431 375 500 c 2
 375 635 l 1
 458 635 l 1
 458 500 l 1
 416 500 l 1
 437 500 458 500 458 500 c 1
 458 308 386 133 267 -0 c 1
 149 -0 l 1
 249 89 323 207 356 341 c 1
 323 310 278 292 229 292 c 0
 126 292 42 376 42 479 c 2
42 635 m 1
 42 750 135 844 250 844 c 0
 365 844 458 750 458 635 c 1
 375 635 l 1
 375 704 319 760 250 760 c 0
 181 760 125 704 125 635 c 1
 42 635 l 1
EndSplineSet
MultipleSubs2: "CCMP cartouches" nine cart.hwbody
EndChar

StartChar: cart.start
Encoding: 242 989584 184
Width: 500
VWidth: 1250
Flags: W
HStem: -208 83<355.023 500> 958 84<350.768 500>
VStem: 83 84<59.6289 774.232>
LayerCount: 2
Fore
SplineSet
458 1042 m 2
 500 1042 l 1
 500 958 l 1
 458 958 l 2
 296 958 167 829 167 667 c 2
 167 167 l 2
 167 5 296 -125 458 -125 c 2
 500 -125 l 1
 500 -208 l 1
 458 -208 l 2
 250 -208 83 -41 83 167 c 2
 83 667 l 2
 83 875 250 1042 458 1042 c 2
EndSplineSet
Ligature2: "LIGA basics" bracketleft
EndChar

StartChar: cart.end
Encoding: 243 989585 185
Width: 500
VWidth: 1125
Flags: W
HStem: -208 83<-36.393 144.977> 958 84<-36.393 149.232>
VStem: 333 84<59.6289 774.232>
LayerCount: 2
Fore
SplineSet
42 1042 m 2
 250 1042 417 875 417 667 c 2
 417 167 l 2
 417 -41 250 -208 42 -208 c 2
 0 -208 l 2
 -23 -208 -42 -190 -42 -167 c 0
 -42 -144 -23 -125 0 -125 c 2
 42 -125 l 2
 204 -125 333 5 333 167 c 2
 333 667 l 2
 333 829 204 958 42 958 c 2
 0 958 l 2
 -23 958 -42 977 -42 1000 c 0
 -42 1023 -23 1042 0 1042 c 2
 42 1042 l 2
EndSplineSet
Ligature2: "LIGA basics" bracketright
EndChar

StartChar: cart.body
Encoding: 244 989586 186
Width: 0
VWidth: 1125
Flags: W
HStem: -208 83<-1036.39 0> 958 84<-1036.39 0>
LayerCount: 2
Fore
SplineSet
-83 -83 m 1
 -1083 -83 l 1025
-1000 1042 m 2
 0 1042 l 1
 0 958 l 1
 -1000 958 l 2
 -1023 958 -1042 977 -1042 1000 c 0
 -1042 1023 -1023 1042 -1000 1042 c 2
-1000 -125 m 2
 0 -125 l 1
 0 -208 l 1
 -1000 -208 l 2
 -1023 -208 -1042 -190 -1042 -167 c 0
 -1042 -144 -1023 -125 -1000 -125 c 2
EndSplineSet
EndChar

StartChar: morae.dot
Encoding: 249 989596 187
Width: 500
Flags: W
HStem: 333 167<194.129 305.871>
VStem: 167 166<360.676 472.871>
LayerCount: 2
Fore
SplineSet
167 417 m 0
 167 463 204 500 250 500 c 0
 296 500 333 463 333 417 c 0
 333 371 296 333 250 333 c 0
 204 333 167 371 167 417 c 0
EndSplineSet
MultipleSubs2: "CCMP cartouches" morae.dot cart.hwbody
EndChar

StartChar: morae.colon
Encoding: 250 989597 188
Width: 1000
Flags: W
HStem: 125 167<194.129 305.871> 542 166<194.129 305.871>
VStem: 167 166<152.129 264.324 569.129 680.871>
LayerCount: 2
Fore
SplineSet
167 208 m 0
 167 254 204 292 250 292 c 0
 296 292 333 254 333 208 c 0
 333 162 296 125 250 125 c 0
 204 125 167 162 167 208 c 0
167 625 m 0
 167 671 204 708 250 708 c 0
 296 708 333 671 333 625 c 0
 333 579 296 542 250 542 c 0
 204 542 167 579 167 625 c 0
EndSplineSet
Substitution2: "SS20 colon te spacing" morae.colon.hw
Ligature2: "LIGA basics" colon
MultipleSubs2: "CCMP cartouches" morae.colon.hw cart.hwbody
EndChar

StartChar: bracketleft
Encoding: 59 91 189
Width: 500
VWidth: 899
Flags: W
HStem: 0 83<167 417> 750 83<167 417>
VStem: 83 84<83 750>
LayerCount: 2
Fore
SplineSet
83 833 m 1
 167 833 l 1
 417 833 l 1
 417 750 l 1
 167 750 l 1
 167 83 l 1
 417 83 l 1
 417 0 l 1
 167 0 l 1
 83 0 l 1
 83 833 l 1
EndSplineSet
MultipleSubs2: "CCMP cartouches" bracketleft cart.hwbody
EndChar

StartChar: bracketright
Encoding: 61 93 190
Width: 500
VWidth: 899
Flags: W
HStem: 0 83<83 333> 750 83<83 333>
VStem: 333 84<83 750>
LayerCount: 2
Fore
SplineSet
417 833 m 1
 417 0 l 1
 333 0 l 1
 83 0 l 1
 83 83 l 1
 333 83 l 1
 333 750 l 1
 83 750 l 1
 83 833 l 1
 333 833 l 1
 417 833 l 1
EndSplineSet
MultipleSubs2: "CCMP cartouches" bracketright cart.hwbody
EndChar

StartChar: glyph192
Encoding: 14 46 192
Width: 500
VWidth: 0
Flags: W
HStem: -10 145<198.5 301.5>
VStem: 177 146<11 113.5>
LayerCount: 2
Fore
SplineSet
250 135 m 0
 290 135 323 102 323 62 c 0
 323 22 290 -10 250 -10 c 0
 210 -10 177 22 177 62 c 0
 177 102 210 135 250 135 c 0
EndSplineSet
MultipleSubs2: "CCMP cartouches" glyph192 cart.hwbody
EndChar

StartChar: colon
Encoding: 26 58 193
Width: 500
Flags: W
HStem: -10 145<198.5 301.5> 448 146<198.5 301.5>
VStem: 177 146<11 113.5 469.5 572.5>
LayerCount: 2
Fore
SplineSet
250 135 m 0
 290 135 323 102 323 62 c 0
 323 22 290 -10 250 -10 c 0
 210 -10 177 22 177 62 c 0
 177 102 210 135 250 135 c 0
250 594 m 0
 290 594 323 561 323 521 c 0
 323 481 290 448 250 448 c 0
 210 448 177 481 177 521 c 0
 177 561 210 594 250 594 c 0
EndSplineSet
MultipleSubs2: "CCMP cartouches" colon cart.hwbody
EndChar

StartChar: t.namako
Encoding: 221 989560 194
Width: 1000
Flags: W
HStem: 0 21G<199 214>
VStem: 250 83<295.567 542> 458 84<646 854> 667 83<411.841 542>
CounterMasks: 1 70
LayerCount: 2
Fore
SplineSet
250 542 m 1
 333 542 l 0
 333 384 311 232 270 88 c 1
 493 118 667 310 667 542 c 1
 750 542 l 1
 750 255 525 19 243 1 c 0
 231 0 220 0 208 0 c 0
 190 0 173 1 155 3 c 1
 165 30 174 57 182 84 c 0
 226 229 250 383 250 542 c 1
383 626 m 1
 310 585 l 1
 208 767 l 1
 281 808 l 1
 383 626 l 1
617 626 m 1
 719 808 l 1
 792 767 l 1
 690 585 l 1
 617 626 l 1
458 646 m 1
 458 854 l 1
 542 854 l 1
 542 646 l 1
 458 646 l 1
EndSplineSet
LCarets2: 5 0 0 0 0 0
MultipleSubs2: "CCMP cartouches" t.namako cart.body
Ligature2: "LIGA basics" n a m a k o
EndChar

StartChar: t.kin
Encoding: 222 989561 195
Width: 1000
Flags: W
VStem: 458 84<458 854>
LayerCount: 2
Fore
SplineSet
458 375 m 1
 542 375 l 1
 531 229 l 1
 651 312 l 1
 692 240 l 1
 552 177 l 1
 692 114 l 1
 651 42 l 1
 531 125 l 1
 542 -21 l 1
 458 -21 l 1
 469 125 l 1
 349 42 l 1
 308 114 l 1
 448 177 l 1
 308 240 l 1
 349 312 l 1
 469 229 l 1
 458 375 l 1
458 458 m 1
 458 854 l 1
 542 854 l 1
 542 458 l 1
 458 458 l 1
EndSplineSet
LCarets2: 2 -76 -76
MultipleSubs2: "CCMP cartouches" t.kin cart.body
Ligature2: "LIGA basics" k i n
EndChar

StartChar: t.oko
Encoding: 223 989562 196
Width: 1000
Flags: W
HStem: 0 21G<797.029 844.233> 813 20G<796.942 844.233>
VStem: 625 83<347.998 485.81> 833 84<298.336 535.166>
LayerCount: 2
Fore
SplineSet
810 539 m 1
 751 528 708 477 708 417 c 0
 708 357 751 305 810 294 c 1
 825 333 833 375 833 417 c 0
 833 459 825 500 810 539 c 1
714 672 m 1
 255 417 l 1
 714 161 l 1
 734 178 752 198 768 219 c 1
 683 247 625 327 625 417 c 0
 625 507 683 587 768 615 c 1
 752 636 734 655 714 672 c 1
833 833 m 1
 874 760 l 1
 791 715 l 1
 871 637 917 529 917 417 c 0
 917 305 871 197 791 119 c 1
 874 73 l 1
 833 0 l 1
 83 417 l 1
 833 833 l 1
EndSplineSet
LCarets2: 2 0 0
MultipleSubs2: "CCMP cartouches" t.oko cart.body
Ligature2: "LIGA basics" o k o
EndChar

StartChar: t.kipisi
Encoding: 224 989563 197
Width: 1000
Flags: W
HStem: 83 167<694.129 805.871> 583 167<194.129 305.871>
VStem: 167 166<610.676 722.871> 667 166<110.676 222.871>
LayerCount: 2
Fore
SplineSet
750 250 m 0
 796 250 833 213 833 167 c 0
 833 121 796 83 750 83 c 0
 704 83 667 121 667 167 c 0
 667 213 704 250 750 250 c 0
250 750 m 0
 296 750 333 713 333 667 c 0
 333 621 296 583 250 583 c 0
 204 583 167 621 167 667 c 0
 167 713 204 750 250 750 c 0
167 142 m 1
 774 750 l 1
 833 691 l 1
 226 83 l 1
 167 142 l 1
EndSplineSet
LCarets2: 5 -76 -76 -76 -76 -76
MultipleSubs2: "CCMP cartouches" t.kipisi cart.body
Ligature2: "LIGA basics" k i p i s i
EndChar

StartChar: t.leko
Encoding: 225 989564 198
Width: 1000
Flags: W
HStem: 0 83<167 833> 208 84<375 625> 542 83<375 625> 750 83<167 833>
VStem: 83 84<83 750> 292 83<292 542> 625 83<292 542> 833 84<83 750>
LayerCount: 2
Fore
SplineSet
375 542 m 1
 375 292 l 1
 625 292 l 1
 625 542 l 1
 375 542 l 1
292 625 m 1
 708 625 l 1
 708 208 l 1
 292 208 l 1
 292 625 l 1
167 750 m 1
 167 83 l 1
 833 83 l 1
 833 750 l 1
 167 750 l 1
83 833 m 1
 917 833 l 1
 917 0 l 1
 83 0 l 1
 83 833 l 1
EndSplineSet
LCarets2: 3 0 0 0
MultipleSubs2: "CCMP cartouches" t.leko cart.body
Ligature2: "LIGA basics" l e k o
EndChar

StartChar: t.monsuta
Encoding: 226 989565 199
Width: 1000
Flags: W
LayerCount: 2
Fore
SplineSet
375 693 m 1
 500 361 l 1
 625 693 l 1
 736 405 l 1
 830 575 l 1
 949 397 l 1
 884 353 l 1
 836 425 l 1
 723 220 l 1
 625 473 l 1
 500 139 l 1
 375 473 l 1
 277 220 l 1
 164 425 l 1
 116 353 l 1
 51 397 l 1
 170 575 l 1
 264 405 l 1
 375 693 l 1
EndSplineSet
LCarets2: 6 0 0 0 0 0 0
MultipleSubs2: "CCMP cartouches" t.monsuta cart.body
Ligature2: "LIGA basics" m o n s u t a
EndChar

StartChar: t.tonsi
Encoding: 227 989566 200
Width: 1000
Flags: W
HStem: 128 80<409.195 458 542 590.838> 667 83<404.836 595.164>
VStem: 188 83<344.723 533.661> 458 84<-42 131.542> 729 84<344.723 533.661>
LayerCount: 2
Fore
SplineSet
879 854 m 1
 938 795 l 1
 757 615 l 1
 792 565 813 504 813 438 c 0
 813 280 695 148 542 128 c 1
 542 -42 l 1
 458 -42 l 1
 458 128 l 1
 305 148 188 280 188 438 c 0
 188 504 208 565 243 615 c 1
 63 795 l 1
 121 854 l 1
 299 677 l 1
 353 723 423 750 500 750 c 0
 577 750 647 723 701 677 c 1
 879 854 l 1
500 667 m 0
 374 667 271 564 271 438 c 0
 271 312 374 208 500 208 c 0
 626 208 729 312 729 438 c 0
 729 564 626 667 500 667 c 0
EndSplineSet
LCarets2: 4 -76 -76 -76 -76
MultipleSubs2: "CCMP cartouches" t.tonsi cart.body
Ligature2: "LIGA basics" t o n s i
EndChar

StartChar: t.jasima
Encoding: 228 989567 201
Width: 1000
Flags: W
HStem: 94 83<646.756 790.555> 323 83<209.391 353.244> 427 83<646.756 790.609> 656 84<209.391 355.33>
VStem: 62 84<146 258.152 479 591.259> 458 84<-21 170 330 503 664 854> 854 83<241.848 354 575.741 688>
LayerCount: 2
Fore
SplineSet
62 188 m 2
 62 309 160 406 281 406 c 0
 326 406 370 392 407 366 c 2
 458 330 l 1
 458 562 l 1
 359 632 l 2
 336 648 309 656 281 656 c 0
 206 656 146 596 146 521 c 2
 146 479 l 1
 62 479 l 1
 62 521 l 2
 62 642 160 740 281 740 c 0
 326 740 370 726 407 700 c 2
 458 664 l 1
 458 854 l 1
 542 854 l 1
 542 605 l 1
 641 535 l 2
 664 519 691 510 719 510 c 0
 794 510 854 571 854 646 c 2
 854 688 l 1
 938 688 l 1
 938 646 l 2
 938 525 840 427 719 427 c 0
 674 427 630 441 593 467 c 2
 542 503 l 1
 542 272 l 1
 641 202 l 2
 664 186 691 177 719 177 c 0
 794 177 854 237 854 312 c 2
 854 354 l 1
 937 354 l 1
 937 312 l 2
 937 191 840 94 719 94 c 0
 674 94 630 108 593 134 c 2
 542 170 l 1
 542 -21 l 1
 458 -21 l 1
 458 228 l 1
 359 298 l 2
 336 314 309 323 281 323 c 0
 206 323 146 263 146 188 c 2
 146 146 l 1
 62 146 l 1
 62 188 l 2
EndSplineSet
LCarets2: 5 -76 -76 -76 -76 -76
MultipleSubs2: "CCMP cartouches" t.jasima cart.body
Ligature2: "LIGA basics" j a s i m a
EndChar

StartChar: t.soko
Encoding: 230 989569 202
Width: 1000
Flags: W
HStem: 375 83<177 458 552 823> 708 84<384.412 615.588>
VStem: 458 94<21 375>
LayerCount: 2
Fore
SplineSet
83 375 m 1
 83 605 270 792 500 792 c 0
 730 792 917 605 917 375 c 1
 833 375 l 1
 552 375 l 1
 552 21 l 1
 458 21 l 1
 458 375 l 1
 167 375 l 1
 83 375 l 1
458 458 m 1
 552 458 l 1
 823 458 l 1
 786 602 655 708 500 708 c 0
 345 708 214 602 177 458 c 1
 458 458 l 1
EndSplineSet
LCarets2: 3 -76 -76 -76
MultipleSubs2: "CCMP cartouches" t.soko cart.body
Ligature2: "LIGA basics" s o k o
EndChar

StartChar: t.kijetesantakalu
Encoding: 229 989568 203
Width: 1000
Flags: W
HStem: -42 84<183.24 250 333 459> 292 83<183.24 250> 417 145<438.5 541> 479 146<625.5 728.5> 792 83<552.948 708>
VStem: 42 83<98.63 235.316> 250 83<42 292 375 572.052> 417 145<438.5 541> 604 146<500.5 603.5> 604 84<-42 250> 708 84<750 792> 750 83<-42 417>
LayerCount: 2
Fore
SplineSet
792 750 m 1
 958 542 l 1025xcf20
250 42 m 1
 250 292 l 1
 181 292 125 236 125 167 c 0
 125 98 181 42 250 42 c 1
417 490 m 0
 417 530 450 562 490 562 c 0
 530 562 562 530 562 490 c 0
 562 450 530 417 490 417 c 0xef
 450 417 417 450 417 490 c 0
604 552 m 0xdf80
 604 592 637 625 677 625 c 0
 717 625 750 592 750 552 c 0
 750 512 717 479 677 479 c 0
 637 479 604 512 604 552 c 0xdf80
604 -42 m 1xcf40
 604 250 l 1
 688 250 l 1
 688 -42 l 1
 604 -42 l 1xcf40
415 250 m 1
 500 250 l 1
 562 -42 l 1
 500 -42 l 1
 477 -42 l 1
 333 -42 l 1
 250 -42 l 2
 135 -42 42 52 42 167 c 0
 42 282 135 375 250 375 c 1
 250 458 l 2
 250 688 437 875 667 875 c 2
 708 875 l 1
 792 875 l 1
 792 750 l 1xef20
 958 542 l 1
 833 417 l 1
 833 -42 l 1
 750 -42 l 1
 750 396 l 1
 750 451 l 1xef10
 847 548 l 1
 708 721 l 1
 708 750 l 1
 708 792 l 1xef20
 667 792 l 2
 483 792 333 642 333 458 c 2
 333 42 l 1
 459 42 l 1
 419 233 l 1
 415 250 l 1
EndSplineSet
LCarets2: 14 -76 -76 -76 -76 -76 -76 -76 -76 -76 -76 -76 -76 -76 -76
MultipleSubs2: "CCMP cartouches" t.kijetesantakalu cart.body
Ligature2: "LIGA basics" k i j e t e s a n t a k a l u
EndChar

StartChar: t.meso
Encoding: 231 989570 204
Width: 1000
Flags: W
HStem: 0 21G<167 250 750 833> 333 167<444.129 555.871> 813 20G<167 250 750 833>
VStem: 167 83<0 833> 417 166<360.676 472.871> 750 83<0 833>
CounterMasks: 1 1c
LayerCount: 2
Fore
SplineSet
750 0 m 1
 750 833 l 1
 833 833 l 1
 833 0 l 1
 750 0 l 1
167 0 m 1
 167 833 l 1
 250 833 l 1
 250 0 l 1
 167 0 l 1
500 500 m 0
 546 500 583 463 583 417 c 0
 583 371 546 333 500 333 c 0
 454 333 417 371 417 417 c 0
 417 463 454 500 500 500 c 0
EndSplineSet
LCarets2: 3 -76 -76 -76
MultipleSubs2: "CCMP cartouches" t.meso cart.body
Ligature2: "LIGA basics" m e s o
EndChar

StartChar: t.epiku
Encoding: 232 989571 205
Width: 1000
Flags: W
HStem: 42 83<395.209 604.791> 583 21G<458 542> 813 20G<458 542>
VStem: 125 83<314.377 417> 458 84<583 833> 792 83<314.377 417>
CounterMasks: 1 1c
LayerCount: 2
Fore
SplineSet
366 558 m 1
 294 515 l 1
 167 731 l 1
 238 773 l 1
 366 558 l 1
634 558 m 1
 762 773 l 1
 833 731 l 1
 706 515 l 1
 634 558 l 1
458 583 m 1
 458 833 l 1
 542 833 l 1
 542 583 l 1
 458 583 l 1
125 417 m 1
 208 417 l 1
 208 256 339 125 500 125 c 0
 661 125 792 256 792 417 c 1
 875 417 l 1
 875 210 707 42 500 42 c 0
 293 42 125 210 125 417 c 1
EndSplineSet
LCarets2: 4 -76 -76 -76 -76
MultipleSubs2: "CCMP cartouches" t.epiku cart.body
Ligature2: "LIGA basics" e p i k u
EndChar

StartChar: t.kokosila
Encoding: 233 989572 206
Width: 1000
Flags: W
HStem: -21 83<406.549 592.425> 500 83<407.575 594.089>
VStem: 198 83<227.962 373.425> 458 84<646 854> 719 83<188.575 337>
CounterMasks: 1 38
LayerCount: 2
Fore
SplineSet
167 73 m 1
 129 147 l 1
 212 189 l 1
 203 218 198 249 198 281 c 0
 198 448 333 583 500 583 c 0
 601 583 691 533 746 456 c 1
 833 500 l 1
 870 415 l 1
 787 375 l 1
 797 346 802 314 802 281 c 0
 802 114 667 -21 500 -21 c 0
 396 -21 303 32 249 113 c 1
 167 73 l 1
383 626 m 1
 310 585 l 1
 208 767 l 1
 281 808 l 1
 383 626 l 1
617 626 m 1
 719 808 l 1
 792 767 l 1
 690 585 l 1
 617 626 l 1
458 646 m 1
 458 854 l 1
 542 854 l 1
 542 646 l 1
 458 646 l 1
500 500 m 0
 379 500 281 402 281 281 c 0
 281 262 284 244 288 227 c 1
 670 418 l 1
 630 468 569 500 500 500 c 0
711 338 m 1
 325 150 l 1
 365 97 429 62 500 62 c 0
 621 62 719 160 719 281 c 0
 719 301 716 320 711 338 c 1
EndSplineSet
LCarets2: 7 -76 -76 -76 -76 -76 -76 -76
MultipleSubs2: "CCMP cartouches" t.kokosila cart.body
Ligature2: "LIGA basics" k o k o s i l a
EndChar

StartChar: t.lanpan
Encoding: 234 989573 207
Width: 1000
Flags: W
HStem: -21 83<223.63 360.316> 115 145<615.5 718.5> 354 84<585.411 748.462> 500 83<437.609 561.006> 792 83<438.994 561.006>
VStem: 83 84<119.472 334.593> 312 84<643.755 748.953> 417 83<121.133 267.268> 594 146<136.5 239> 604 84<626.813 748.953> 833 84<104.821 269.462>
LayerCount: 2
Fore
SplineSet
594 188 m 0xffa0
 594 228 627 260 667 260 c 0
 707 260 740 228 740 188 c 0
 740 148 707 115 667 115 c 0
 627 115 594 148 594 188 c 0xffa0
500 792 m 0
 443 792 396 745 396 688 c 0
 396 631 443 583 500 583 c 0
 557 583 604 631 604 688 c 0xff60
 604 745 557 792 500 792 c 0
667 438 m 0
 805 438 917 326 917 188 c 0
 917 119 888 56 843 11 c 1
 785 70 l 1
 815 100 833 142 833 188 c 0
 833 280 759 354 667 354 c 0
 575 354 500 280 500 188 c 0
 500 73 407 -21 292 -21 c 0
 177 -21 83 73 83 188 c 0
 83 378 175 547 316 653 c 1
 314 664 312 676 312 688 c 0
 312 791 397 875 500 875 c 0
 603 875 688 791 688 688 c 0
 688 585 603 500 500 500 c 0
 439 500 384 530 350 575 c 1
 238 483 167 344 167 188 c 0
 167 119 223 62 292 62 c 0
 361 62 417 119 417 188 c 0
 417 326 529 438 667 438 c 0
EndSplineSet
LCarets2: 5 -76 -76 -76 -76 -76
MultipleSubs2: "CCMP cartouches" t.lanpan cart.body
Ligature2: "LIGA basics" l a n p a n
EndChar

StartChar: t.n
Encoding: 235 989574 208
Width: 1000
Flags: W
HStem: 292 83<435.142 564.858>
VStem: 302 83<-21 240.368> 458 84<458 854> 615 83<-21 240.368>
CounterMasks: 1 70
LayerCount: 2
Fore
SplineSet
458 458 m 1
 458 854 l 1
 542 854 l 1
 542 458 l 1
 458 458 l 1
302 177 m 2
 302 286 391 375 500 375 c 0
 609 375 698 286 698 177 c 2
 698 -21 l 1
 615 -21 l 1
 615 177 l 2
 615 240 563 292 500 292 c 0
 437 292 385 240 385 177 c 2
 385 -21 l 1
 302 -21 l 1
 302 177 l 2
EndSplineSet
MultipleSubs2: "CCMP cartouches" t.n cart.body
Ligature2: "LIGA basics" n
EndChar

StartChar: t.misikeke
Encoding: 236 989575 209
Width: 1000
Flags: W
HStem: -42 84<418.411 581.589> 375 83<333 667> 792 83<420.173 579.827>
VStem: 250 83<128.732 375 458 704.5> 667 83<128.732 375 458 704.5>
LayerCount: 2
Fore
SplineSet
500 792 m 0
 408 792 333 717 333 625 c 2
 333 458 l 1
 667 458 l 1
 667 625 l 2
 667 717 592 792 500 792 c 0
500 875 m 0
 638 875 750 763 750 625 c 2
 750 208 l 2
 750 70 638 -42 500 -42 c 0
 362 -42 250 70 250 208 c 2
 250 625 l 2
 250 763 362 875 500 875 c 0
667 375 m 1
 333 375 l 1
 333 208 l 2
 333 116 408 42 500 42 c 0
 592 42 667 116 667 208 c 2
 667 375 l 1
EndSplineSet
LCarets2: 7 -76 -76 -76 -76 -76 -76 -76
MultipleSubs2: "CCMP cartouches" t.misikeke cart.body
Ligature2: "LIGA basics" m i s i k e k e
EndChar

StartChar: t.ku
Encoding: 237 989576 210
Width: 1000
Flags: W
HStem: 0 83<229 417 502 771> 177 146<573.5 676.5> 417 83<472 771> 750 83<229 667>
VStem: 146 83<83 750> 552 146<198.5 301.5> 771 83<83 417 500 724>
LayerCount: 2
Fore
SplineSet
552 250 m 0
 552 290 585 323 625 323 c 0
 665 323 698 290 698 250 c 0
 698 210 665 177 625 177 c 0
 585 177 552 210 552 250 c 0
435 417 m 1
 502 83 l 1
 771 83 l 1
 771 417 l 1
 435 417 l 1
771 724 m 1
 472 500 l 1
 771 500 l 1
 771 724 l 1
229 750 m 1
 229 83 l 1
 417 83 l 1
 333 500 l 1
 667 750 l 1
 229 750 l 1
146 833 m 1
 854 833 l 1
 854 0 l 1
 146 0 l 1
 146 833 l 1
EndSplineSet
LCarets2: 1 -76
MultipleSubs2: "CCMP cartouches" t.ku cart.body
Ligature2: "LIGA basics" k u
EndChar

StartChar: t.pake
Encoding: 252 989600 211
Width: 1000
Flags: W
HStem: 708 84<125 458 542 875>
VStem: 458 84<42 708>
LayerCount: 2
Fore
SplineSet
125 708 m 1
 125 792 l 1
 458 792 l 1
 542 792 l 1
 875 792 l 1
 875 708 l 1
 542 708 l 1
 542 42 l 1
 458 42 l 1
 458 708 l 1
 125 708 l 1
EndSplineSet
LCarets2: 3 -76 -76 -76
MultipleSubs2: "CCMP cartouches" t.pake cart.body
Ligature2: "LIGA basics" p a k e
EndChar

StartChar: t.apeja
Encoding: 253 989601 212
Width: 1000
Flags: W
HStem: 0 83<445.328 554.672> 250 83<445.328 554.672> 500 83<174.328 283.672 716.328 825.672> 750 83<174.328 283.672 716.328 825.672>
VStem: 62 84<612.102 721.618> 312 84<612.102 721.618> 333 84<112.102 221.618> 583 84<112.102 221.618> 604 84<612.102 721.618> 854 84<612.102 721.618>
LayerCount: 2
Fore
SplineSet
500 250 m 0xfb40
 454 250 417 213 417 167 c 0
 417 121 454 83 500 83 c 0
 546 83 583 121 583 167 c 0
 583 213 546 250 500 250 c 0xfb40
500 333 m 0
 592 333 667 259 667 167 c 0
 667 75 592 0 500 0 c 0
 408 0 333 75 333 167 c 0
 333 259 408 333 500 333 c 0
771 750 m 0
 725 750 688 713 688 667 c 0xf8c0
 688 621 725 583 771 583 c 0
 817 583 854 621 854 667 c 0
 854 713 817 750 771 750 c 0
771 833 m 0
 863 833 938 759 938 667 c 0
 938 575 863 500 771 500 c 0
 679 500 604 575 604 667 c 0
 604 759 679 833 771 833 c 0
229 750 m 0
 183 750 146 713 146 667 c 0
 146 621 183 583 229 583 c 0
 275 583 312 621 312 667 c 0xfc40
 312 713 275 750 229 750 c 0
229 833 m 0
 321 833 396 759 396 667 c 0
 396 575 321 500 229 500 c 0
 137 500 62 575 62 667 c 0
 62 759 137 833 229 833 c 0
917 250 m 1
 865 185 l 1
 500 477 l 1
 135 185 l 1
 83 250 l 1
 500 583 l 1
 917 250 l 1
EndSplineSet
LCarets2: 4 0 0 0 0
MultipleSubs2: "CCMP cartouches" t.apeja cart.body
Ligature2: "LIGA basics" a p e j a
EndChar

StartChar: t.majuna
Encoding: 254 989602 213
Width: 1000
Flags: W
HStem: 208 84<83 375 625 917>
VStem: 458 84<375 667>
LayerCount: 2
Fore
SplineSet
236 575 m 1
 442 368 l 1
 382 309 l 1
 177 517 l 1
 236 575 l 1
764 575 m 1
 823 517 l 1
 618 309 l 1
 558 368 l 1
 764 575 l 1
458 667 m 1
 542 667 l 1
 542 375 l 1
 458 375 l 1
 458 667 l 1
625 208 m 1
 625 292 l 1
 917 292 l 1
 917 208 l 1
 625 208 l 1
83 208 m 1
 83 292 l 1
 375 292 l 1
 375 208 l 1
 83 208 l 1
EndSplineSet
LCarets2: 5 -76 -76 -76 -76 -76
MultipleSubs2: "CCMP cartouches" t.majuna cart.body
Ligature2: "LIGA basics" m a j u n a
EndChar

StartChar: t.powe
Encoding: 255 989603 214
Width: 1000
Flags: W
HStem: 167 83<83 917>
LayerCount: 2
Fore
SplineSet
392 667 m 1
 500 552 l 1
 608 667 l 1
 667 608 l 1
 552 500 l 1
 667 392 l 1
 608 333 l 1
 500 448 l 1
 392 333 l 1
 333 392 l 1
 448 500 l 1
 333 608 l 1
 392 667 l 1
83 167 m 1
 83 250 l 1
 917 250 l 1
 917 167 l 1
 83 167 l 1
EndSplineSet
LCarets2: 3 -76 -76 -76
MultipleSubs2: "CCMP cartouches" t.powe cart.body
Ligature2: "LIGA basics" p o w e
EndChar

StartChar: morae.dotdot
Encoding: 280 -1 215
Width: 1000
Flags: W
HStem: 333 167<235.676 347.871 652.129 764.324>
VStem: 208 167<360.676 472.871> 625 167<360.676 472.871>
LayerCount: 2
Fore
SplineSet
625 417 m 0
 625 463 662 500 708 500 c 0
 754 500 792 463 792 417 c 0
 792 371 754 333 708 333 c 0
 662 333 625 371 625 417 c 0
208 417 m 0
 208 463 246 500 292 500 c 0
 338 500 375 463 375 417 c 0
 375 371 338 333 292 333 c 0
 246 333 208 371 208 417 c 0
EndSplineSet
Ligature2: "LIGA basics" morae.dot morae.dot
LCarets2: 1 0
MultipleSubs2: "CCMP cartouches" morae.dotdot cart.body
Ligature2: "LIGA basics" glyph192 glyph192
EndChar

StartChar: morae.dotdotdot
Encoding: 281 -1 216
Width: 1000
Flags: W
HStem: 333 167<173.129 284.871 444.129 555.871 715.129 826.871>
VStem: 146 166<360.676 472.871> 417 166<360.676 472.871> 688 166<360.676 472.871>
CounterMasks: 1 70
LayerCount: 2
Fore
SplineSet
146 417 m 0
 146 463 183 500 229 500 c 0
 275 500 312 463 312 417 c 0
 312 371 275 333 229 333 c 0
 183 333 146 371 146 417 c 0
688 417 m 0
 688 463 725 500 771 500 c 0
 817 500 854 463 854 417 c 0
 854 371 817 333 771 333 c 0
 725 333 688 371 688 417 c 0
417 417 m 0
 417 463 454 500 500 500 c 0
 546 500 583 463 583 417 c 0
 583 371 546 333 500 333 c 0
 454 333 417 371 417 417 c 0
EndSplineSet
Ligature2: "LIGA basics" morae.dot morae.dot morae.dot
LCarets2: 2 0 0
MultipleSubs2: "CCMP cartouches" morae.dotdotdot cart.body
Ligature2: "LIGA basics" glyph192 glyph192 glyph192
EndChar

StartChar: exclam
Encoding: 1 33 217
Width: 500
Flags: W
HStem: -10 145<198.5 301.5> 813 20G<208 292>
VStem: 177 146<11.5 114> 208 84<208 833>
LayerCount: 2
Fore
SplineSet
208 208 m 1xd0
 208 833 l 1
 292 833 l 1
 292 208 l 1
 208 208 l 1xd0
250 135 m 0
 290 135 323 103 323 63 c 0
 323 23 290 -10 250 -10 c 0
 210 -10 177 23 177 63 c 0xe0
 177 103 210 135 250 135 c 0
EndSplineSet
MultipleSubs2: "CCMP cartouches" exclam cart.hwbody
EndChar

StartChar: quotedbl
Encoding: 2 34 218
Width: 500
Flags: W
HStem: 583 250<125 208 292 375>
VStem: 125 83<583 833> 292 83<583 833>
LayerCount: 2
Fore
SplineSet
292 583 m 1
 292 833 l 1
 375 833 l 1
 375 583 l 1
 292 583 l 1
125 583 m 1
 125 833 l 1
 208 833 l 1
 208 583 l 1
 125 583 l 1
EndSplineSet
MultipleSubs2: "CCMP cartouches" quotedbl cart.hwbody
EndChar

StartChar: numbersign
Encoding: 3 35 219
Width: 500
Flags: W
HStem: 0 21G<104 188 312 396> 250 83<42 104 188 312 396 458> 500 83<42 104 188 312 396 458> 813 20G<104 188 312 396>
VStem: 104 84<0 250 333 500 583 833> 312 84<0 250 333 500 583 833>
LayerCount: 2
Fore
SplineSet
42 250 m 1
 42 333 l 1
 104 333 l 1
 104 500 l 1
 42 500 l 1
 42 583 l 1
 104 583 l 1
 104 833 l 1
 188 833 l 1
 188 583 l 1
 312 583 l 1
 312 833 l 1
 396 833 l 1
 396 583 l 1
 458 583 l 1
 458 500 l 1
 396 500 l 1
 396 333 l 1
 458 333 l 1
 458 250 l 1
 396 250 l 1
 396 0 l 1
 312 0 l 1
 312 250 l 1
 188 250 l 1
 188 0 l 1
 104 0 l 1
 104 250 l 1
 42 250 l 1
312 500 m 1
 188 500 l 1
 188 333 l 1
 312 333 l 1
 312 500 l 1
EndSplineSet
MultipleSubs2: "CCMP cartouches" numbersign cart.hwbody
EndChar

StartChar: dollar
Encoding: 4 36 220
Width: 500
Flags: W
HStem: 45 86<165.676 208> 702 86<292 334.324>
VStem: 42 83<513.738 652.262> 208 84<-42 49.0954 132 368 465 701 783.905 875> 375 83<182.404 317.596>
CounterMasks: 1 38
LayerCount: 2
Fore
SplineSet
208 131 m 1
 208 379 l 1
 113 398 42 482 42 583 c 0
 42 684 113 768 208 787 c 1
 208 875 l 1
 292 875 l 1
 292 788 l 1
 366 774 427 725 458 658 c 1
 389 605 l 0
 375 651 339 688 292 702 c 1
 292 454 l 1
 387 435 458 351 458 250 c 1
 375 250 l 1
 458 250 l 1
 458 149 387 65 292 46 c 1
 292 -42 l 1
 208 -42 l 1
 208 45 l 1
 134 59 73 108 42 175 c 1
 111 228 l 0
 125 182 161 145 208 131 c 1
292 132 m 1
 341 149 375 196 375 250 c 0
 375 304 341 351 292 368 c 1
 292 132 l 1
208 465 m 1
 208 701 l 1
 159 684 125 637 125 583 c 0
 125 529 159 482 208 465 c 1
EndSplineSet
MultipleSubs2: "CCMP cartouches" dollar cart.hwbody
EndChar

StartChar: percent
Encoding: 5 37 221
Width: 500
Flags: W
HStem: -10 145<344.5 447.5> 0 21G<42 138.851> 698 146<63.5 166> 813 20G<361.149 458>
VStem: 42 145<719.5 822.5> 323 146<11.5 114>
LayerCount: 2
Fore
SplineSet
369 833 m 1x5c
 458 833 l 1
 131 0 l 1
 42 0 l 1
 369 833 l 1x5c
396 135 m 0x8c
 436 135 469 103 469 63 c 0
 469 23 436 -10 396 -10 c 0
 356 -10 323 23 323 63 c 0
 323 103 356 135 396 135 c 0x8c
115 844 m 0x2c
 155 844 187 811 187 771 c 0
 187 731 155 698 115 698 c 0
 75 698 42 731 42 771 c 0
 42 811 75 844 115 844 c 0x2c
EndSplineSet
MultipleSubs2: "CCMP cartouches" percent cart.hwbody
EndChar

StartChar: ampersand
Encoding: 6 38 222
Width: 500
Flags: W
HStem: -10 72<147.201 249.721> -0 83<375.5 458> 417 83<146.5 271 354 458> 750 83<148.027 271>
VStem: 42 83<84.7762 394.133 522.551 726.973> 271 83<105.094 417 500 667>
LayerCount: 2
Fore
SplineSet
198 417 m 2xbc
 158 417 125 384 125 344 c 2
 125 135 l 2
 125 95 158 62 198 62 c 0
 238 62 271 95 271 135 c 1
 292 135 l 1
 271 135 l 1
 271 417 l 1
 198 417 l 2xbc
271 667 m 1
 354 667 l 1
 354 500 l 1
 458 500 l 1
 458 417 l 1
 354 417 l 1
 354 156 l 2
 354 116 387 83 427 83 c 2
 458 83 l 1
 458 -0 l 1
 417 -0 l 1x7c
 375 3 336 27 313 62 c 1
 287 17 240 -10 188 -10 c 0
 107 -10 42 54 42 135 c 2
 42 344 l 1
 42 391 66 433 105 458 c 1
 66 483 42 526 42 573 c 2
 125 573 l 1
 125 533 158 500 198 500 c 2
 271 500 l 1
 271 667 l 1
198 833 m 2
 271 833 l 1
 271 750 l 1
 198 750 l 2
 158 750 125 717 125 677 c 2
 125 573 l 1
 42 573 l 1
 42 677 l 2
 42 763 112 833 198 833 c 2
EndSplineSet
MultipleSubs2: "CCMP cartouches" ampersand cart.hwbody
EndChar

StartChar: quotesingle
Encoding: 7 39 223
Width: 500
Flags: W
HStem: 583 21G<208 292> 813 20G<208 292>
VStem: 208 84<583 833>
LayerCount: 2
Fore
SplineSet
500 -83 m 1
 0 -83 l 1025
208 583 m 1
 208 833 l 1
 292 833 l 1
 292 583 l 1
 208 583 l 1
EndSplineSet
MultipleSubs2: "CCMP cartouches" quotesingle cart.hwbody
EndChar

StartChar: parenleft
Encoding: 8 40 224
Width: 500
Flags: W
HStem: 0 83<319.719 417> 750 83<319.719 417>
VStem: 83 84<235.719 597.281>
LayerCount: 2
Fore
SplineSet
417 833 m 1
 417 750 l 1
 279 750 167 638 167 500 c 2
 167 333 l 2
 167 195 279 83 417 83 c 1
 417 0 l 1
 232 0 83 148 83 333 c 2
 83 500 l 2
 83 685 232 833 417 833 c 1
EndSplineSet
MultipleSubs2: "CCMP cartouches" parenleft cart.hwbody
EndChar

StartChar: parenright
Encoding: 9 41 225
Width: 500
Flags: W
HStem: 0 83<83 180.281> 750 83<83 180.281>
VStem: 333 84<235.719 597.281>
LayerCount: 2
Fore
SplineSet
83 833 m 1
 268 833 417 685 417 500 c 2
 417 333 l 2
 417 148 268 0 83 0 c 1
 83 83 l 1
 221 83 333 195 333 333 c 2
 333 500 l 2
 333 638 221 750 83 750 c 1
 83 833 l 1
EndSplineSet
MultipleSubs2: "CCMP cartouches" parenright cart.hwbody
EndChar

StartChar: asterisk
Encoding: 10 42 226
Width: 500
Flags: W
HStem: 813 20G<208 292>
LayerCount: 2
Fore
SplineSet
292 438 m 1
 208 438 l 1
 219 583 l 1
 99 500 l 1
 58 573 l 1
 198 635 l 1
 58 698 l 1
 99 770 l 1
 219 688 l 1
 208 833 l 1
 292 833 l 1
 281 688 l 1
 401 770 l 1
 442 698 l 1
 302 635 l 1
 442 573 l 1
 401 500 l 1
 281 583 l 1
 292 438 l 1
EndSplineSet
MultipleSubs2: "CCMP cartouches" asterisk cart.hwbody
EndChar

StartChar: plus
Encoding: 11 43 227
Width: 500
Flags: W
HStem: 375 83<42 213 296 458>
VStem: 213 83<210 375 458 627>
LayerCount: 2
Fore
SplineSet
213 627 m 1
 296 627 l 1
 296 458 l 1
 458 458 l 1
 458 375 l 1
 296 375 l 1
 296 210 l 1
 213 210 l 1
 213 375 l 1
 42 375 l 1
 42 458 l 1
 213 458 l 1
 213 627 l 1
EndSplineSet
MultipleSubs2: "CCMP cartouches" plus cart.hwbody
EndChar

StartChar: comma
Encoding: 12 44 228
Width: 500
Flags: W
HStem: -83 250<188 250>
VStem: 188 62<-83 -54.7742>
LayerCount: 2
Fore
SplineSet
188 167 m 1
 312 167 l 1
 250 -83 l 1
 188 -83 l 1
 188 167 l 1
EndSplineSet
MultipleSubs2: "CCMP cartouches" comma cart.hwbody
EndChar

StartChar: hyphen
Encoding: 13 45 229
Width: 500
Flags: W
HStem: 375 83<42 458>
LayerCount: 2
Fore
SplineSet
42 375 m 1
 42 458 l 1
 458 458 l 1
 458 375 l 1
 42 375 l 1
EndSplineSet
MultipleSubs2: "CCMP cartouches" hyphen cart.hwbody
EndChar

StartChar: slash
Encoding: 15 47 230
Width: 500
Flags: W
HStem: 0 21G<42 138.851> 813 20G<361.149 458>
LayerCount: 2
Fore
SplineSet
369 833 m 1
 458 833 l 1
 131 0 l 1
 42 0 l 1
 369 833 l 1
EndSplineSet
MultipleSubs2: "CCMP cartouches" slash cart.hwbody
EndChar

StartChar: less
Encoding: 28 60 231
Width: 500
Flags: W
LayerCount: 2
Fore
SplineSet
417 625 m 1
 451 549 l 1
 125 417 l 1
 451 284 l 1
 417 208 l 1
 42 375 l 1
 42 458 l 1
 417 625 l 1
EndSplineSet
MultipleSubs2: "CCMP cartouches" less cart.hwbody
EndChar

StartChar: equal
Encoding: 29 61 232
Width: 500
VWidth: 899
Flags: W
HStem: 250 83<42 458> 500 83<42 458>
LayerCount: 2
Fore
SplineSet
42 250 m 1
 42 333 l 1
 458 333 l 1
 458 250 l 1
 42 250 l 1
42 500 m 1
 42 583 l 1
 458 583 l 1
 458 500 l 1
 42 500 l 1
EndSplineSet
MultipleSubs2: "CCMP cartouches" equal cart.hwbody
EndChar

StartChar: greater
Encoding: 30 62 233
Width: 500
Flags: W
LayerCount: 2
Fore
SplineSet
76 625 m 1
 451 458 l 1
 451 375 l 1
 76 208 l 1
 42 284 l 1
 367 417 l 1
 42 549 l 1
 76 625 l 1
EndSplineSet
MultipleSubs2: "CCMP cartouches" greater cart.hwbody
EndChar

StartChar: question
Encoding: 31 63 234
Width: 500
VWidth: 924
Flags: W
HStem: -10 145<198.5 301.5> 760 84<181.684 318.316>
VStem: 42 83<635 701.867> 177 146<11 113.5> 208 84<208 348.597> 375 83<472.25 701.867>
LayerCount: 2
Fore
SplineSet
250 844 m 0xec
 365 844 458 750 458 635 c 2
 458 542 l 2
 458 443 396 365 292 344 c 1
 292 208 l 1
 208 208 l 1
 208 417 l 1
 250 417 l 2
 319 417 375 473 375 542 c 2
 375 635 l 2
 375 704 319 760 250 760 c 0
 181 760 125 704 125 635 c 1
 42 635 l 1
 42 750 135 844 250 844 c 0xec
250 135 m 0
 290 135 323 102 323 62 c 0
 323 22 290 -10 250 -10 c 0
 210 -10 177 22 177 62 c 0xf4
 177 102 210 135 250 135 c 0
EndSplineSet
MultipleSubs2: "CCMP cartouches" question cart.hwbody
EndChar

StartChar: at
Encoding: 32 64 235
Width: 500
VWidth: 911
Flags: W
HStem: -10 73<130.175 202.606 297.394 369.825> 594 83<131.7 201.926> 760 84<73.2249 255.436>
VStem: 42 83<70.0852 586.208> 208 84<67.8767 588.891> 375 83<70.0852 638.733>
CounterMasks: 1 1c
LayerCount: 2
Fore
SplineSet
167 677 m 0
 236 677 292 621 292 552 c 1
 292 104 l 2
 292 81 310 63 333 63 c 0
 356 63 375 81 375 104 c 2
 375 552 l 2
 375 667 282 760 167 760 c 0
 120 760 77 745 42 719 c 1
 42 816 l 1
 80 834 122 844 167 844 c 0
 328 844 458 713 458 552 c 2
 458 104 l 2
 458 41 407 -10 344 -10 c 0
 305 -10 271 9 250 38 c 1
 229 9 195 -10 156 -10 c 0
 93 -10 42 41 42 104 c 1
 42 552 l 1
 125 552 l 1
 125 104 l 2
 125 81 144 63 167 63 c 0
 190 63 208 81 208 104 c 2
 208 552 l 2
 208 575 190 594 167 594 c 0
 144 594 125 575 125 552 c 1
 42 552 l 1
 42 621 98 677 167 677 c 0
EndSplineSet
MultipleSubs2: "CCMP cartouches" at cart.hwbody
EndChar

StartChar: semicolon
Encoding: 27 59 236
Width: 500
VWidth: 899
Flags: W
HStem: 448 146<198.5 301.5>
VStem: 177 146<469.5 572.5> 188 62<-83 -54.7742>
LayerCount: 2
Fore
SplineSet
188 167 m 1xa0
 312 167 l 1
 250 -83 l 1
 188 -83 l 1
 188 167 l 1xa0
250 594 m 0
 290 594 323 561 323 521 c 0xc0
 323 481 290 448 250 448 c 0xa0
 210 448 177 481 177 521 c 0xc0
 177 561 210 594 250 594 c 0
EndSplineSet
MultipleSubs2: "CCMP cartouches" semicolon cart.hwbody
EndChar

StartChar: backslash
Encoding: 60 92 237
Width: 500
Flags: W
LayerCount: 2
Fore
SplineSet
131 833 m 1
 42 833 l 1
 369 0 l 1
 458 0 l 1
 131 833 l 1
EndSplineSet
MultipleSubs2: "CCMP cartouches" backslash cart.hwbody
EndChar

StartChar: asciicircum
Encoding: 62 94 238
Width: 500
VWidth: 899
Flags: W
HStem: 813 20G<199.147 300.853>
LayerCount: 2
Fore
SplineSet
42 458 m 1
 208 833 l 1
 292 833 l 1
 458 458 l 1
 382 424 l 1
 250 750 l 1
 118 424 l 1
 42 458 l 1
EndSplineSet
MultipleSubs2: "CCMP cartouches" asciicircum cart.hwbody
EndChar

StartChar: underscore
Encoding: 63 95 239
Width: 500
VWidth: 899
Flags: W
HStem: -83 83<42 458>
LayerCount: 2
Fore
SplineSet
42 -83 m 1
 42 0 l 1
 458 0 l 1
 458 -83 l 1
 42 -83 l 1
EndSplineSet
MultipleSubs2: "CCMP cartouches" underscore cart.hwbody
EndChar

StartChar: grave
Encoding: 64 96 240
Width: 500
VWidth: 911
Flags: W
HStem: 594 250
VStem: 113 274
LayerCount: 2
Fore
SplineSet
333 594 m 1
 113 780 l 1
 167 844 l 1
 387 657 l 1
 333 594 l 1
EndSplineSet
MultipleSubs2: "CCMP cartouches" grave cart.hwbody
EndChar

StartChar: braceleft
Encoding: 91 123 241
Width: 500
VWidth: 899
Flags: W
HStem: 0 83<230.599 458> 375 83<42 209.485> 750 83<230.599 458>
VStem: 135 84<93.6032 188.53 644.47 739.397> 219 83<274.829 365.109 468.083 558.171>
CounterMasks: 1 e0
LayerCount: 2
Fore
SplineSet
271 833 m 2xf0
 458 833 l 1
 458 750 l 1
 271 750 l 2
 242 750 219 727 219 698 c 0xf0
 219 687 220 676 255 622 c 0
 290 568 302 539 302 510 c 0
 302 474 302 448 229 417 c 1
 302 386 302 359 302 323 c 0xe8
 302 294 290 265 255 211 c 0
 220 157 219 146 219 135 c 0
 219 106 242 83 271 83 c 2
 458 83 l 1
 458 0 l 1
 271 0 l 2
 196 0 135 60 135 135 c 0xf0
 135 164 145 193 180 247 c 0
 215 301 219 312 219 323 c 0
 219 352 196 375 167 375 c 2
 42 375 l 1
 42 458 l 1
 167 458 l 2
 196 458 219 481 219 510 c 0xe8
 219 521 215 532 180 586 c 0
 145 640 135 669 135 698 c 0
 135 773 196 833 271 833 c 2xf0
EndSplineSet
MultipleSubs2: "CCMP cartouches" braceleft cart.hwbody
EndChar

StartChar: bar
Encoding: 92 124 242
Width: 500
VWidth: 899
Flags: W
HStem: 0 21G<208 292> 813 20G<208 292>
VStem: 208 84<0 833>
LayerCount: 2
Fore
SplineSet
208 0 m 1
 208 833 l 1
 292 833 l 1
 292 0 l 1
 208 0 l 1
EndSplineSet
MultipleSubs2: "CCMP cartouches" bar cart.hwbody
EndChar

StartChar: braceright
Encoding: 93 125 243
Width: 500
VWidth: 899
Flags: W
HStem: 0 83<42 269.401> 375 83<290.515 458> 750 83<42 269.401>
VStem: 198 83<274.829 365.109 468.083 558.171> 281 84<93.6032 188.53 644.47 739.397>
CounterMasks: 1 e0
LayerCount: 2
Fore
SplineSet
229 833 m 2xe8
 304 833 365 773 365 698 c 0xe8
 365 669 355 640 320 586 c 0
 285 532 281 521 281 510 c 0
 281 481 304 458 333 458 c 2
 458 458 l 1
 458 375 l 1
 333 375 l 2
 304 375 281 352 281 323 c 0xf0
 281 312 285 301 320 247 c 0
 355 193 365 164 365 135 c 0
 365 60 304 0 229 0 c 2
 42 0 l 1
 42 83 l 1
 229 83 l 2
 258 83 281 106 281 135 c 0xe8
 281 146 280 157 245 211 c 0
 210 265 198 294 198 323 c 0
 198 359 198 386 271 417 c 1
 198 448 198 474 198 510 c 0xf0
 198 539 210 568 245 622 c 0
 280 676 281 687 281 698 c 0
 281 727 258 750 229 750 c 2
 42 750 l 1
 42 833 l 1
 229 833 l 2xe8
EndSplineSet
MultipleSubs2: "CCMP cartouches" braceright cart.hwbody
EndChar

StartChar: asciitilde
Encoding: 94 126 244
Width: 500
VWidth: 899
Flags: W
HStem: 297 83<306.109 371.757> 453 83<128.068 195.164>
VStem: 42 83<333 449.676> 375 83<384.245 500>
LayerCount: 2
Fore
SplineSet
161 536 m 0
 205 536 246 511 267 472 c 2
 306 400 l 2
 312 388 325 380 339 380 c 0
 359 380 375 397 375 417 c 1
 375 500 l 1
 458 500 l 1
 458 417 l 2
 458 351 405 297 339 297 c 0
 295 297 254 322 233 361 c 2
 194 434 l 2
 188 446 175 453 161 453 c 0
 141 453 125 437 125 417 c 1
 125 333 l 1
 42 333 l 1
 42 417 l 2
 42 483 95 536 161 536 c 0
EndSplineSet
MultipleSubs2: "CCMP cartouches" asciitilde cart.hwbody
EndChar

StartChar: font.version
Encoding: 282 -1 245
Width: 1000
VWidth: 916
Flags: W
HStem: 0 21G<83 917> 521 62<458 583> 646 62<396 521> 771 62<146 208 396 583>
VStem: 83 63<458 771> 208 63<458 521> 333 63<458 521> 583 334<458 521 583 771>
LayerCount: 2
Fore
SplineSet
83 833 m 1
 917 833 l 1
 917 0 l 1
 83 0 l 1
 83 833 l 1
146 771 m 1
 146 458 l 1
 208 458 l 1
 208 771 l 1
 146 771 l 1
396 771 m 1
 396 708 l 1
 521 708 l 1
 521 646 l 1
 396 646 l 1
 396 458 l 1
 583 458 l 1
 583 521 l 1
 458 521 l 1
 458 583 l 1
 583 583 l 1
 583 771 l 1
 396 771 l 1
271 521 m 1
 271 458 l 1
 333 458 l 1
 333 521 l 1
 271 521 l 1
EndSplineSet
LCarets2: 10 684 684 684 684 684 684 684 684 684 684
Ligature2: "LIGA basics" f o n t v e r s i o n
EndChar

StartChar: cart.hwbody
Encoding: 284 -1 248
Width: 0
Flags: W
HStem: -208 83<-536.393 0> 958 84<-536.393 0>
LayerCount: 2
Fore
SplineSet
-500 1042 m 2
 0 1042 l 1
 0 958 l 1
 -500 958 l 2
 -523 958 -542 977 -542 1000 c 0
 -542 1023 -523 1042 -500 1042 c 2
-500 -125 m 2
 0 -125 l 1
 0 -208 l 1
 -500 -208 l 2
 -523 -208 -542 -190 -542 -167 c 0
 -542 -144 -523 -125 -500 -125 c 2
EndSplineSet
EndChar

StartChar: cart.4ticks
Encoding: 285 -1 250
Width: 0
Flags: W
HStem: -458 291<-854 -771 -646 -562 -438 -354 -229 -146>
VStem: -854 83<-458 -167> -646 84<-458 -167> -438 84<-458 -167> -229 83<-458 -167>
LayerCount: 2
Fore
SplineSet
-229 -458 m 1
 -229 -167 l 1
 -146 -167 l 1
 -146 -458 l 1
 -229 -458 l 1
-854 -458 m 1
 -854 -167 l 1
 -771 -167 l 1
 -771 -458 l 1
 -854 -458 l 1
-438 -458 m 1
 -438 -167 l 1
 -354 -167 l 1
 -354 -458 l 1
 -438 -458 l 1
-646 -458 m 1
 -646 -167 l 1
 -562 -167 l 1
 -562 -458 l 1
 -646 -458 l 1
EndSplineSet
Substitution2: "SS02 small text tickmarks" cart.4ticks.small
Ligature2: "LIGA tick stacker" cart.1tick cart.1tick cart.1tick cart.1tick 
LCarets2: 4 -1000 -1000 -1000 -1000
EndChar

StartChar: cart.3ticks
Encoding: 286 -1 251
Width: 0
Flags: W
HStem: -458 291<-792 -708 -542 -458 -292 -208>
VStem: -792 84<-458 -167> -542 84<-458 -167> -292 84<-458 -167>
CounterMasks: 1 70
LayerCount: 2
Fore
SplineSet
-792 -458 m 1
 -792 -167 l 1
 -708 -167 l 1
 -708 -458 l 1
 -792 -458 l 1
-292 -458 m 1
 -292 -167 l 1
 -208 -167 l 1
 -208 -458 l 1
 -292 -458 l 1
-542 -458 m 1
 -542 -167 l 1
 -458 -167 l 1
 -458 -458 l 1
 -542 -458 l 1
EndSplineSet
Substitution2: "SS02 small text tickmarks" cart.3ticks.small
LCarets2: 3 -1000 -1000 -1000
Ligature2: "LIGA tick stacker" cart.1tick cart.1tick cart.1tick 
EndChar

StartChar: cart.2ticks
Encoding: 287 -1 252
Width: 0
Flags: W
HStem: -458 291<-667 -583 -417 -333>
VStem: -667 84<-458 -167> -417 84<-458 -167>
LayerCount: 2
Fore
SplineSet
-417 -458 m 1
 -417 -167 l 1
 -333 -167 l 1
 -333 -458 l 1
 -417 -458 l 1
-667 -458 m 1
 -667 -167 l 1
 -583 -167 l 1
 -583 -458 l 1
 -667 -458 l 1
EndSplineSet
Substitution2: "SS02 small text tickmarks" cart.2ticks.small
Ligature2: "LIGA tick stacker" cart.1tick cart.1tick 
LCarets2: 2 -1000 -1000
EndChar

StartChar: periodcentered
Encoding: 95 183 253
Width: 1000
Flags: W
HStem: 333 167<444.129 555.871>
VStem: 417 166<360.676 472.871>
LayerCount: 2
Fore
SplineSet
417 417 m 0
 417 463 454 500 500 500 c 0
 546 500 583 463 583 417 c 0
 583 371 546 333 500 333 c 0
 454 333 417 371 417 417 c 0
EndSplineSet
Ligature2: "LIGA basics" morae.dot
MultipleSubs2: "CCMP cartouches" morae.dot cart.hwbody
Ligature2: "LIGA basics" glyph192
EndChar

StartChar: t.ni.left
Encoding: 238 989577 254
Width: 1000
Flags: W
HStem: 375 83<222 917>
LayerCount: 2
Fore
SplineSet
917 458 m 1
 917 375 l 1
 222 375 l 1
 455 142 l 1
 396 83 l 1
 121 358 l 1
 62 417 l 1
 121 476 l 1
 396 750 l 1
 455 691 l 1
 222 458 l 1
 917 458 l 1
EndSplineSet
LCarets2: 2 0 0
MultipleSubs2: "CCMP cartouches" t.ni.left cart.body
Ligature2: "LIGA alternates" t.ni zero four
Ligature2: "LIGA ni directions-1" t.ni less
EndChar

StartChar: t.ni.up
Encoding: 239 989578 255
Width: 1000
Flags: W
HStem: 0 21G<458 542>
VStem: 458 84<0 695>
LayerCount: 2
Fore
SplineSet
542 0 m 1
 458 0 l 1
 458 695 l 1
 226 462 l 1
 167 521 l 1
 441 795 l 1
 500 854 l 1
 559 795 l 1
 833 521 l 1
 774 462 l 1
 542 695 l 1
 542 0 l 1
EndSplineSet
LCarets2: 2 0 0
MultipleSubs2: "CCMP cartouches" t.ni.up cart.body
Ligature2: "LIGA alternates" t.ni zero three
Ligature2: "LIGA ni directions-1" t.ni asciicircum
EndChar

StartChar: t.ni.right
Encoding: 240 989579 256
Width: 1000
Flags: W
HStem: 375 83<83 778>
LayerCount: 2
Fore
SplineSet
83 458 m 1
 778 458 l 1
 545 691 l 1
 604 750 l 1
 879 476 l 1
 937 417 l 1
 879 358 l 1
 604 83 l 1
 545 142 l 1
 778 375 l 1
 83 375 l 1
 83 458 l 1
EndSplineSet
LCarets2: 2 0 0
MultipleSubs2: "CCMP cartouches" t.ni.right cart.body
Ligature2: "LIGA alternates" t.ni zero two
Ligature2: "LIGA ni directions-1" t.ni greater
EndChar

StartChar: t.sewi.secular
Encoding: 241 989580 257
Width: 1000
Flags: W
HStem: 417 83<167 833> 583 146<448.5 551.5>
VStem: 83 84<167 417> 427 146<604.5 707.5> 833 84<167 417>
CounterMasks: 1 38
LayerCount: 2
Fore
SplineSet
83 167 m 1
 83 500 l 1
 917 500 l 1
 917 167 l 1
 833 167 l 1
 833 417 l 1
 167 417 l 1
 167 167 l 1
 83 167 l 1
427 656 m 0
 427 696 460 729 500 729 c 0
 540 729 573 696 573 656 c 0
 573 616 540 583 500 583 c 0
 460 583 427 616 427 656 c 0
EndSplineSet
LCarets2: 2 0 0
MultipleSubs2: "CCMP cartouches" t.sewi.secular cart.body
Ligature2: "LIGA alternates" t.sewi zero two
EndChar

StartChar: t.linluwi
Encoding: 256 989604 258
Width: 1000
Flags: W
HStem: -21 83<153.382 263.936 736.064 846.618> 104 84<363.471 636.529> 229 83<153.382 247.639 752.361 846.618> 521 83<451.37 548.63> 771 83<445.328 554.672>
VStem: 42 83<91.1018 200.618> 333 84<632.094 742.618> 583 84<632.094 742.618> 875 83<91.1018 200.618>
LayerCount: 2
Fore
SplineSet
208 229 m 0
 162 229 125 192 125 146 c 0
 125 100 162 62 208 62 c 0
 254 62 292 100 292 146 c 0
 292 192 254 229 208 229 c 0
792 229 m 0
 746 229 708 192 708 146 c 0
 708 100 746 62 792 62 c 0
 838 62 875 100 875 146 c 0
 875 192 838 229 792 229 c 0
792 312 m 0
 884 312 958 238 958 146 c 0
 958 54 884 -21 792 -21 c 0
 714 -21 649 32 630 104 c 1
 370 104 l 1
 351 32 286 -21 208 -21 c 0
 116 -21 42 54 42 146 c 0
 42 238 116 312 208 312 c 0
 219 312 230 311 241 309 c 1
 385 567 l 1
 353 597 333 640 333 688 c 0
 333 780 408 854 500 854 c 0
 592 854 667 780 667 688 c 0
 667 640 647 597 615 567 c 1
 759 309 l 1
 770 311 781 312 792 312 c 0
500 771 m 0
 454 771 417 734 417 688 c 0
 417 642 454 604 500 604 c 0
 546 604 583 642 583 688 c 0
 583 734 546 771 500 771 c 0
370 188 m 1
 630 188 l 1
 639 222 658 251 684 273 c 1
 542 526 l 1
 529 523 514 521 500 521 c 0
 486 521 471 523 458 526 c 1
 316 273 l 1
 342 251 361 222 370 188 c 1
EndSplineSet
LCarets2: 6 0 0 0 0 0 0
MultipleSubs2: "CCMP cartouches" t.linluwi cart.body
Ligature2: "LIGA basics" l i n l u w i
EndChar

StartChar: t.kiki
Encoding: 257 989605 259
Width: 1000
Flags: W
HStem: 0 83<198 802> 167 62<438 562>
LayerCount: 2
Fore
SplineSet
500 354 m 1
 438 229 l 1
 562 229 l 1
 500 354 l 1
500 500 m 1
 667 167 l 1
 333 167 l 1
 500 500 l 1
500 688 m 1
 198 83 l 1
 802 83 l 1
 500 688 l 1
500 875 m 1
 938 0 l 1
 62 0 l 1
 500 875 l 1
EndSplineSet
LCarets2: 3 0 0 0
MultipleSubs2: "CCMP cartouches" t.kiki cart.body
Ligature2: "LIGA basics" k i k i
EndChar

StartChar: t.su
Encoding: 258 989606 260
Width: 1000
Flags: W
HStem: 0 83<250 658 738.767 750> 417 83<250 373.091> 583 84<369.286 630.714> 750 83<250 750>
VStem: 167 83<83 417 600 750> 658 85<83 147.821> 750 83<83 514.063 600 750>
LayerCount: 2
Fore
SplineSet
167 833 m 1
 833 833 l 1
 833 0 l 1
 167 0 l 1
 167 833 l 1
750 600 m 1
 750 750 l 1
 250 750 l 1
 250 600 l 1
 324 642 409 667 500 667 c 0
 591 667 676 643 750 600 c 1
750 500 m 1
 680 552 594 583 500 583 c 0
 406 583 320 552 250 500 c 1
 497 500 703 319 743 83 c 1
 750 83 l 1
 750 500 l 1
658 83 m 1
 619 273 451 417 250 417 c 1
 250 83 l 1
 658 83 l 1
EndSplineSet
LCarets2: 1 0
MultipleSubs2: "CCMP cartouches" t.su cart.body
Ligature2: "LIGA basics" s u
EndChar

StartChar: t.isipin
Encoding: 259 989607 261
Width: 1000
Flags: W
HStem: -42 84<318.785 515.169> 333 84<200 633 747 938> 542 83<317.604 515.894>
VStem: 83 84<193.785 329.203> 375 83<688 875> 667 83<193.785 333>
LayerCount: 2
Fore
SplineSet
293 665 m 1
 221 622 l 1
 125 783 l 1
 197 826 l 1
 293 665 l 1
541 665 m 1
 637 826 l 1
 708 783 l 1
 612 622 l 1
 541 665 l 1
375 688 m 1
 375 875 l 1
 458 875 l 1
 458 688 l 1
 375 688 l 1
170 333 m 1
 168 319 167 306 167 292 c 0
 167 154 279 42 417 42 c 0
 555 42 667 154 667 292 c 0
 667 306 665 319 663 333 c 1
 170 333 l 1
417 542 m 0
 328 542 245 494 200 417 c 1
 633 417 l 1
 588 494 506 542 417 542 c 0
417 625 m 0
 553 625 675 543 726 417 c 1
 938 417 l 1
 938 333 l 1
 747 333 l 1
 749 319 750 306 750 292 c 0
 750 108 601 -42 417 -42 c 0
 233 -42 83 108 83 292 c 0
 83 476 233 625 417 625 c 0
EndSplineSet
LCarets2: 5 0 0 0 0 0
MultipleSubs2: "CCMP cartouches" t.isipin cart.body
Ligature2: "LIGA basics" i s i p i n
EndChar

StartChar: t.kamalawala
Encoding: 260 989608 262
Width: 1000
Flags: W
HStem: 0 83<385.228 614.772> 375 83<42 87.2388 169 262 394 606 738 831 912.761 958>
VStem: 85 84<292.295 375 458 541.211> 831 84<292.295 375 458 541.211>
LayerCount: 2
Fore
SplineSet
42 375 m 1
 42 458 l 1
 85 458 l 1
 105 662 273 823 480 833 c 1
 500 875 l 1
 520 833 l 1
 727 823 895 662 915 458 c 1
 958 458 l 1
 958 375 l 1
 915 375 l 1
 907 299 879 229 836 170 c 1
 917 0 l 1
 841 -36 l 1
 775 104 l 1
 702 39 605 0 500 0 c 0
 395 0 298 39 225 104 c 1
 159 -36 l 1
 83 0 l 1
 164 170 l 1
 121 229 93 299 85 375 c 1
 42 375 l 1
738 375 m 1
 794 259 l 1
 813 294 826 333 831 375 c 1
 738 375 l 1
646 375 m 1
 354 375 l 1
 263 183 l 1
 323 122 407 83 500 83 c 0
 593 83 677 122 737 183 c 1
 646 375 l 1
262 375 m 1
 169 375 l 1
 174 333 187 294 206 259 c 1
 262 375 l 1
698 458 m 1
 831 458 l 1
 813 602 703 717 562 744 c 1
 698 458 l 1
606 458 m 1
 500 681 l 1
 394 458 l 1
 606 458 l 1
302 458 m 1
 438 744 l 1
 297 717 187 602 169 458 c 1
 302 458 l 1
EndSplineSet
LCarets2: 9 0 0 0 0 0 0 0 0 0
MultipleSubs2: "CCMP cartouches" t.kamalawala cart.body
Ligature2: "LIGA basics" k a m a l a w a l a
EndChar

StartChar: t.kapesi
Encoding: 261 989609 263
Width: 1000
Flags: W
HStem: 0 83<333 667> 521 83<296 458 542 704>
VStem: 458 84<358 521 604 767>
LayerCount: 2
Fore
SplineSet
500 854 m 0
 661 854 792 723 792 562 c 0
 792 440 716 337 610 293 c 1
 833 0 l 1
 167 0 l 1
 390 293 l 1
 284 337 208 440 208 562 c 0
 208 723 339 854 500 854 c 0
296 521 m 1
 313 440 377 375 458 358 c 1
 458 521 l 1
 296 521 l 1
704 521 m 1
 542 521 l 1
 542 358 l 1
 623 375 687 440 704 521 c 1
296 604 m 1
 458 604 l 1
 458 767 l 1
 376 750 312 686 296 604 c 1
704 604 m 1
 688 686 624 750 542 767 c 1
 542 604 l 1
 704 604 l 1
523 272 m 1
 515 271 508 271 500 271 c 0
 492 271 485 271 477 272 c 1
 333 83 l 1
 667 83 l 1
 523 272 l 1
EndSplineSet
LCarets2: 5 0 0 0 0 0
MultipleSubs2: "CCMP cartouches" t.kapesi cart.body
Ligature2: "LIGA basics" k a p e s i
EndChar

StartChar: t.melome
Encoding: 262 989610 264
Width: 1000
Flags: W
HStem: 583 84<345.794 447.636 549.986 654.206> 792 83<385.708 614.292>
VStem: 83 84<-42 572.052> 250 83<225.26 319.408 474.798 568.989> 667 83<225.26 319.408 474.798 568.989> 833 84<-42 572.052>
LayerCount: 2
Fore
SplineSet
83 -42 m 1
 83 458 l 1
 83 688 270 875 500 875 c 0
 730 875 917 688 917 458 c 1
 917 -42 l 1
 833 -42 l 1
 833 458 l 1
 833 642 684 792 500 792 c 0
 316 792 167 642 167 458 c 1
 167 -42 l 1
 83 -42 l 1
604 333 m 0
 562 333 542 313 500 240 c 1
 458 313 430 333 396 333 c 0
 354 333 333 306 333 271 c 0
 333 253 341 237 354 225 c 2
 500 77 l 1
 646 225 l 2
 659 237 667 253 667 271 c 0
 667 306 646 333 604 333 c 0
396 667 m 0
 448 667 490 635 500 604 c 1
 510 635 552 667 604 667 c 0
 685 667 750 602 750 521 c 0
 750 481 734 443 705 415 c 2
 683 393 l 1
 723 367 750 322 750 271 c 0
 750 231 734 193 705 165 c 2
 500 -42 l 1
 295 165 l 2
 266 193 250 231 250 271 c 0
 250 322 277 367 317 393 c 1
 295 415 l 2
 266 443 250 481 250 521 c 0
 250 602 315 667 396 667 c 0
412 416 m 1
 456 410 491 382 500 354 c 1
 509 382 544 410 588 416 c 1
 646 475 l 2
 659 487 667 503 667 521 c 0
 667 556 646 583 604 583 c 0
 562 583 542 563 500 490 c 1
 458 563 430 583 396 583 c 0
 354 583 333 556 333 521 c 0
 333 503 341 487 354 475 c 2
 412 416 l 1
EndSplineSet
LCarets2: 5 0 0 0 0 0
MultipleSubs2: "CCMP cartouches" t.melome cart.body
Ligature2: "LIGA basics" m e l o m e
EndChar

StartChar: t.mijomi
Encoding: 263 989611 265
Width: 1000
Flags: W
HStem: 0 250<83 167 833 917> 167 83<167 397 603 833> 771 83<347.484 446.858 550.713 652.516>
VStem: 83 84<0 167> 250 83<411.571 507.919 661.108 757.987> 667 83<411.571 507.919 661.108 757.987> 833 84<0 167>
LayerCount: 2
Fore
SplineSet
83 0 m 1xbe
 83 250 l 1
 125 250 l 1
 167 250 l 1xbe
 397 250 l 1
 295 353 l 2
 266 381 250 418 250 458 c 0
 250 509 277 555 317 581 c 1
 295 603 l 2
 266 631 250 668 250 708 c 0
 250 789 315 854 396 854 c 0
 448 854 490 823 500 792 c 1
 510 823 552 854 604 854 c 0
 685 854 750 789 750 708 c 0
 750 668 734 631 705 603 c 2
 683 581 l 1
 723 555 750 509 750 458 c 0
 750 418 734 381 705 353 c 2
 603 250 l 1x7e
 917 250 l 1xbe
 917 167 l 1x7e
 917 0 l 1
 833 0 l 1xbe
 833 167 l 1
 167 167 l 1x7e
 167 0 l 1
 83 0 l 1xbe
396 521 m 0
 354 521 333 493 333 458 c 0
 333 440 341 424 354 412 c 2
 500 264 l 1
 646 412 l 2
 659 424 667 440 667 458 c 0
 667 493 646 521 604 521 c 0
 562 521 542 500 500 427 c 1
 458 500 430 521 396 521 c 0
412 603 m 1
 456 597 491 570 500 542 c 1
 509 570 544 597 588 603 c 1
 646 662 l 2
 659 674 667 690 667 708 c 0
 667 743 646 771 604 771 c 0
 562 771 542 750 500 677 c 1
 458 750 430 771 396 771 c 0
 354 771 333 743 333 708 c 0
 333 690 341 674 354 662 c 2
 412 603 l 1
EndSplineSet
LCarets2: 5 0 0 0 0 0
MultipleSubs2: "CCMP cartouches" t.mijomi cart.body
Ligature2: "LIGA basics" m i j o m i
EndChar

StartChar: t.misa
Encoding: 264 989612 266
Width: 1000
Flags: W
HStem: 0 83<212.173 372.668> 250 83<452.522 631.557> 490 145<469.5 572.5> 552 146<656.5 759.5> 750 83<455.267 816.76>
VStem: 42 83<170.173 330.353> 250 83<496.318 630.436> 448 146<511 613.5> 635 146<573.5 676.5> 875 83<554.929 693.316>
LayerCount: 2
Fore
SplineSet
542 750 m 2xcfc0
 427 750 333 657 333 542 c 0
 333 427 427 333 542 333 c 0
 595 333 646 354 685 391 c 2
 836 534 l 2
 861 558 875 591 875 625 c 0
 875 694 819 750 750 750 c 2
 542 750 l 2xcfc0
542 833 m 2
 750 833 l 2
 865 833 958 740 958 625 c 0
 958 568 935 513 894 474 c 2
 743 330 l 2
 689 278 617 250 542 250 c 0
 426 250 325 318 278 416 c 1
 192 409 125 337 125 250 c 0
 125 158 200 83 292 83 c 0
 338 83 380 102 410 132 c 1
 468 73 l 1
 423 28 361 0 292 0 c 0
 154 0 42 112 42 250 c 0
 42 375 133 479 253 497 c 1
 251 512 250 527 250 542 c 0
 250 703 381 833 542 833 c 2
635 625 m 0
 635 665 668 698 708 698 c 0
 748 698 781 665 781 625 c 0
 781 585 748 552 708 552 c 0xdfc0
 668 552 635 585 635 625 c 0
448 562 m 0
 448 602 481 635 521 635 c 0
 561 635 594 602 594 562 c 0
 594 522 561 490 521 490 c 0xefc0
 481 490 448 522 448 562 c 0
EndSplineSet
LCarets2: 3 0 0 0
MultipleSubs2: "CCMP cartouches" t.misa cart.body
Ligature2: "LIGA basics" m i s a
EndChar

StartChar: t.nimisin
Encoding: 265 989613 267
Width: 1000
Flags: W
HStem: 229 83<298.792 701.208> 333 84<42 167 833 958> 438 83<298.792 701.208> 562 146<458 542>
VStem: 42 125<333 417> 208 84<317.109 432.891> 458 84<562 708> 708 84<317.109 432.891> 833 125<333 417>
LayerCount: 2
Fore
SplineSet
458 562 m 1
 458 708 l 1
 542 708 l 1
 542 562 l 1
 458 562 l 1
333 438 m 2
 310 438 292 419 292 396 c 2
 292 354 l 2
 292 331 310 312 333 312 c 2
 667 312 l 2
 690 312 708 331 708 354 c 2
 708 396 l 2
 708 419 690 438 667 438 c 2
 333 438 l 2
333 521 m 2
 667 521 l 2
 736 521 792 465 792 396 c 2
 792 354 l 2
 792 285 736 229 667 229 c 2
 333 229 l 2
 264 229 208 285 208 354 c 2
 208 396 l 2
 208 465 264 521 333 521 c 2
833 333 m 1
 833 417 l 1
 958 417 l 1
 958 333 l 1
 833 333 l 1
42 333 m 1
 42 417 l 1
 167 417 l 1
 167 333 l 1
 42 333 l 1
EndSplineSet
LCarets2: 6 0 0 0 0 0 0
MultipleSubs2: "CCMP cartouches" t.nimisin cart.body
Ligature2: "LIGA basics" n i m i s i n
EndChar

StartChar: t.nja
Encoding: 266 989614 268
Width: 1000
Flags: W
HStem: -21 83<394.859 605.141> 177 68<382.704 461.425 538.575 617.296> 604 84<394.859 605.141>
VStem: 83 84<521 709> 146 83<227.859 438.188> 292 83<252.529 329.906> 469 62<252.394 292> 625 83<252.529 329.906> 771 83<227.859 438.188> 833 84<521 709>
LayerCount: 2
Fore
SplineSet
325 373 m 1xe7
 382 316 l 1
 378 309 375 301 375 292 c 0
 375 266 396 245 422 245 c 0
 448 245 469 266 469 292 c 1
 479 292 l 1
 521 292 l 1
 531 292 l 1
 531 266 552 245 578 245 c 0
 604 245 625 266 625 292 c 0
 625 301 622 309 618 316 c 0
 675 373 l 1
 696 352 708 324 708 292 c 0
 708 229 657 177 594 177 c 0
 555 177 521 196 500 226 c 1
 479 196 445 177 406 177 c 0
 343 177 292 229 292 292 c 0
 292 324 304 352 325 373 c 1xe7
917 854 m 1xe740
 917 521 l 1
 833 521 l 1
 833 709 l 1
 709 636 l 1
 667 708 l 1
 917 854 l 1xe740
83 854 m 1xf7
 333 708 l 1
 291 636 l 1
 167 709 l 1
 167 521 l 1
 83 521 l 1
 83 854 l 1xf7
500 604 m 0
 351 604 229 482 229 333 c 0
 229 184 351 62 500 62 c 0
 649 62 771 184 771 333 c 0xef80
 771 482 649 604 500 604 c 0
500 688 m 0
 695 688 854 528 854 333 c 0
 854 138 695 -21 500 -21 c 0
 305 -21 146 138 146 333 c 0
 146 528 305 688 500 688 c 0
EndSplineSet
LCarets2: 2 0 0
MultipleSubs2: "CCMP cartouches" t.nja cart.body
Ligature2: "LIGA basics" n j a
EndChar

StartChar: t.oke
Encoding: 267 989615 269
Width: 1000
Flags: W
LayerCount: 2
Fore
SplineSet
858 809 m 1
 917 750 l 1
 250 83 l 1
 83 500 l 1
 161 531 l 1
 280 232 l 1
 858 809 l 1
EndSplineSet
LCarets2: 2 0 0
MultipleSubs2: "CCMP cartouches" t.oke cart.body
Ligature2: "LIGA basics" o k e
EndChar

StartChar: t.omekapo
Encoding: 268 989616 270
Width: 1000
Flags: W
HStem: 0 83<553.617 787.827> 500 83<553.617 787.827>
VStem: 38 84<0 88.3125 494.751 583> 625 83<646 854> 875 83<170.5 412.5>
LayerCount: 2
Fore
SplineSet
550 626 m 1
 477 585 l 1
 375 767 l 1
 448 808 l 1
 550 626 l 1
784 626 m 1
 886 808 l 1
 958 767 l 1
 856 585 l 1
 784 626 l 1
625 646 m 1
 625 854 l 1
 708 854 l 1
 708 646 l 1
 625 646 l 1
708 500 m 0
 527 500 366 420 257 292 c 1
 366 164 527 83 708 83 c 0
 800 83 875 158 875 250 c 2
 875 333 l 2
 875 425 800 500 708 500 c 0
38 583 m 1
 38 583 122 582 122 583 c 1
 135 503 164 426 206 360 c 1
 330 497 509 583 708 583 c 0
 846 583 958 471 958 333 c 2
 958 250 l 2
 958 112 846 0 708 0 c 0
 509 0 330 86 206 223 c 1
 164 157 135 80 122 0 c 1
 122 0 38 1 38 0 c 1
 53 107 93 207 152 292 c 1
 93 377 53 476 38 583 c 1
EndSplineSet
LCarets2: 6 0 0 0 0 0 0
MultipleSubs2: "CCMP cartouches" t.omekapo cart.body
Ligature2: "LIGA basics" o m e k a p o
EndChar

StartChar: t.puwa
Encoding: 269 989617 271
Width: 1000
Flags: W
HStem: 83 84<238.736 774.867> 395 1<495 500> 687 84<425.24 574.76>
VStem: 83 84<237.792 387.244> 271 83<533.396 615.651> 646 83<497.511 616.623> 833 84<223.63 360.953>
LayerCount: 2
Fore
SplineSet
495 396 m 1
 495 395 l 1
 500 396 l 1
 498 396 497 396 495 396 c 1
500 771 m 0
 627 771 729 669 729 542 c 0
 729 528 728 513 725 499 c 1
 833 490 917 401 917 292 c 0
 917 177 823 83 708 83 c 2
 312 83 l 2
 186 83 83 186 83 312 c 0
 83 424 164 518 271 538 c 0
 271 539 271 541 271 542 c 0
 271 669 373 771 500 771 c 0
708 167 m 2
 777 167 833 223 833 292 c 0
 833 361 777 417 708 417 c 0
 702 417 697 417 691 416 c 2
 635 486 l 1
 642 504 646 523 646 542 c 0
 646 623 581 687 500 687 c 0
 419 687 354 623 354 542 c 0
 354 541 354 539 354 538 c 0
 401 529 443 507 475 475 c 1
 416 416 l 1
 390 442 352 458 312 458 c 0
 232 458 167 392 167 312 c 0
 167 232 232 167 312 167 c 2
 708 167 l 2
EndSplineSet
LCarets2: 3 0 0 0
MultipleSubs2: "CCMP cartouches" t.puwa cart.body
Ligature2: "LIGA basics" p u w a
EndChar

StartChar: t.san
Encoding: 270 989618 272
Width: 1000
Flags: W
HStem: 83 84<167 833> 375 83<167 833> 667 83<167 833>
LayerCount: 2
Fore
SplineSet
167 375 m 1
 167 458 l 1
 833 458 l 1
 833 375 l 1
 167 375 l 1
167 667 m 1
 167 750 l 1
 833 750 l 1
 833 667 l 1
 167 667 l 1
167 83 m 1
 167 167 l 1
 833 167 l 1
 833 83 l 1
 167 83 l 1
EndSplineSet
LCarets2: 2 0 0
MultipleSubs2: "CCMP cartouches" t.san cart.body
Ligature2: "LIGA basics" s a n
EndChar

StartChar: t.taki
Encoding: 271 989619 273
Width: 1000
Flags: W
HStem: -21 83<379.488 577.44> 375 83<422.419 577.581> 771 83<422.577 620.551>
VStem: 63 83<296.387 537.565> 271 73<536.623 693.052> 656 73<140.076 296.751> 854 84<296.396 537.512>
CounterMasks: 1 e0
LayerCount: 2
Fore
SplineSet
500 854 m 0
 741 854 938 658 938 417 c 0
 938 176 741 -21 500 -21 c 0
 259 -21 63 176 63 417 c 0
 63 658 259 854 500 854 c 0
706 129 m 1
 796 193 854 298 854 417 c 0
 854 612 695 771 500 771 c 0
 414 771 344 701 344 615 c 0
 344 529 414 458 500 458 c 0
 626 458 729 355 729 229 c 0
 729 193 721 159 706 129 c 1
500 62 m 0
 586 62 656 133 656 219 c 0
 656 305 586 375 500 375 c 0
 374 375 271 478 271 604 c 0
 271 640 279 675 294 705 c 1
 204 641 146 536 146 417 c 0
 146 222 305 62 500 62 c 0
EndSplineSet
LCarets2: 3 0 0 0
MultipleSubs2: "CCMP cartouches" t.taki cart.body
Ligature2: "LIGA basics" t a k i
EndChar

StartChar: t.te
Encoding: 272 989620 274
Width: 1000
Flags: W
HStem: 792 83<667 958>
VStem: 583 84<167 792>
LayerCount: 2
Fore
SplineSet
583 875 m 1
 958 875 l 1
 958 792 l 1
 667 792 l 1
 667 167 l 1
 583 167 l 1
 583 875 l 1
EndSplineSet
LCarets2: 1 0
MultipleSubs2: "CCMP cartouches" t.te.fw cart.body
Ligature2: "LIGA basics" t e
EndChar

StartChar: t.to
Encoding: 273 989621 275
Width: 1000
Flags: W
HStem: -42 84<42 333>
VStem: 333 84<42 667>
LayerCount: 2
Fore
SplineSet
417 -42 m 1
 42 -42 l 1
 42 42 l 1
 333 42 l 1
 333 667 l 1
 417 667 l 1
 417 -42 l 1
EndSplineSet
LCarets2: 1 0
MultipleSubs2: "CCMP cartouches" t.to.fw cart.body
Ligature2: "LIGA basics" t o
EndChar

StartChar: t.unu
Encoding: 274 989622 276
Width: 1000
Flags: W
HStem: 0 83<333 667> 271 83<476 520.344> 771 83<397.754 567.578>
VStem: 417 83<485.595 638.756> 688 83<472.706 650.578>
LayerCount: 2
Fore
SplineSet
479 771 m 0
 451 771 423 765 397 754 c 1
 461 712 500 639 500 562 c 0
 500 485 461 413 397 371 c 1
 423 360 451 354 479 354 c 0
 594 354 688 447 688 562 c 0
 688 677 594 771 479 771 c 0
479 854 m 0
 640 854 771 723 771 562 c 0
 771 446 703 346 605 299 c 1
 833 0 l 1
 167 0 l 1
 385 286 l 1
 353 297 324 314 297 335 c 0
 266 360 241 390 222 425 c 1
 238 419 254 417 271 417 c 0
 288 417 306 420 322 426 c 0
 379 447 417 501 417 562 c 0
 417 623 379 678 322 699 c 0
 306 705 288 708 271 708 c 0
 254 708 238 706 222 700 c 1
 241 735 266 765 297 790 c 0
 349 831 413 854 479 854 c 0
521 274 m 1
 507 272 493 271 479 271 c 0
 478 271 477 271 476 271 c 2
 333 83 l 1
 667 83 l 1
 521 274 l 1
EndSplineSet
LCarets2: 2 0 0
MultipleSubs2: "CCMP cartouches" t.unu cart.body
Ligature2: "LIGA basics" u n u
EndChar

StartChar: t.usawi
Encoding: 275 989623 277
Width: 1000
Flags: W
HStem: -11 21G<717.472 770.5> 0 83<337.173 496.711> 333 84<445.328 554.672> 500 83<401.831 598.169>
VStem: 167 83<170.173 348.169> 333 84<205.68 304.672> 458 84<646 854> 583 84<168.411 304.672> 750 83<133.9 347.281>
LayerCount: 2
Fore
SplineSet
383 626 m 1x3f80
 310 585 l 1
 208 767 l 1
 281 808 l 1
 383 626 l 1x3f80
617 626 m 1
 719 808 l 1
 792 767 l 1
 690 585 l 1
 617 626 l 1
458 646 m 1
 458 854 l 1
 542 854 l 1
 542 646 l 1
 458 646 l 1
667 250 m 1
 667 112 555 0 417 0 c 0x7f80
 279 0 167 112 167 250 c 0
 167 434 316 583 500 583 c 0
 684 583 833 434 833 250 c 1
 833 249 l 0
 833 151 799 60 742 -11 c 1xbf80
 677 42 l 1
 723 99 750 171 750 250 c 1
 750 250 753 250 757 250 c 1
 750 250 l 1
 750 388 638 500 500 500 c 0
 362 500 250 388 250 250 c 0
 250 158 325 83 417 83 c 0x7f80
 509 83 583 158 583 250 c 0
 583 296 546 333 500 333 c 0
 454 333 417 296 417 250 c 0
 417 237 419 224 425 213 c 1
 351 175 l 1
 340 197 333 223 333 250 c 0
 333 342 408 417 500 417 c 0
 592 417 667 342 667 250 c 1
EndSplineSet
LCarets2: 4 0 0 0 0
MultipleSubs2: "CCMP cartouches" t.usawi cart.body
Ligature2: "LIGA basics" u s a w i
EndChar

StartChar: t.wa
Encoding: 276 989624 278
Width: 1000
Flags: W
HStem: -10 72<350.379 441.919 558.081 649.621> 125 177<250 333 458 542 667 750>
VStem: 250 83<78.6443 302> 458 84<77.6302 302 417 854> 667 83<78.6443 302>
CounterMasks: 1 38
LayerCount: 2
Fore
SplineSet
750 125 m 1
 750 50 690 -10 615 -10 c 0
 567 -10 524 15 500 53 c 1
 476 15 433 -10 385 -10 c 0
 310 -10 250 50 250 125 c 1
 333 125 l 1
 333 91 362 62 396 62 c 0
 430 62 458 91 458 125 c 1
 479 125 l 1
 521 125 l 1
 542 125 l 1
 542 91 570 62 604 62 c 0
 638 62 667 91 667 125 c 1
 750 125 l 1
250 125 m 1
 250 302 l 1
 333 302 l 1
 333 125 l 1
 250 125 l 1
667 125 m 1
 667 302 l 1
 750 302 l 1
 750 125 l 1
 667 125 l 1
458 125 m 1
 458 302 l 1
 542 302 l 1
 542 125 l 1
 458 125 l 1
458 417 m 1
 458 854 l 1
 542 854 l 1
 542 417 l 1
 458 417 l 1
EndSplineSet
LCarets2: 1 0
MultipleSubs2: "CCMP cartouches" t.wa cart.body
Ligature2: "LIGA basics" w a
EndChar

StartChar: t.wuwojiti
Encoding: 277 989625 279
Width: 1000
Flags: W
HStem: 0 21G<122 162 480 520 838 878> 813 20G<122 162 480 520 838 878>
LayerCount: 2
Fore
SplineSet
500 715 m 1
 201 417 l 1
 500 118 l 1
 799 417 l 1
 500 715 l 1
142 833 m 1
 321 654 l 1
 500 833 l 1
 679 654 l 1
 858 833 l 1
 917 774 l 1
 738 596 l 1
 917 417 l 1
 738 238 l 1
 917 59 l 1
 858 0 l 1
 679 179 l 1
 500 0 l 1
 321 179 l 1
 142 0 l 1
 83 59 l 1
 262 238 l 1
 83 417 l 1
 262 596 l 1
 83 774 l 1
 142 833 l 1
EndSplineSet
LCarets2: 7 0 0 0 0 0 0 0
MultipleSubs2: "CCMP cartouches" t.wuwojiti cart.body
Ligature2: "LIGA basics" w u w o j i t i
EndChar

StartChar: t.yupekosi
Encoding: 278 989626 280
Width: 1000
Flags: W
HStem: -25 87<458.234 506 506.094 517> -11 87<353.52 400.953 407 419.998 420 425.952> 7 92<615 647.906> 62 2<514 517> 64 4<514.422 517.045> 99 3<350.016 352.87> 327 83<431.046 522> 337 83<399.465 465.531 522.001 554 554 570.857> 337 2<426.583 427> 348 81<373.188 381.862 554.031 602 602.001 611.719> 457 2<644.14 646.954> 824 20G<171.857 250>
VStem: 171 87<748.016 773 773.008 776.002 783.421 822.72> 177 82<560.698 595 614 671 686.387 707 737.093 746 746 771.809> 177 1<674.604 676> 748 83<230.046 279 279.001 285 285.004 305 405.746 434 811 831> 752 1<405 405.229> 837 2<546.709 549> 837 1<535.569 542.954>
LayerCount: 2
Fore
SplineSet
511 63 m 1x8030
 510 62 l 1
 511 63 l 1x8030
756 330 m 1
 756 330 756 330 755 327 c 1x0230
 755 328 756 330 756 330 c 1
267 426 m 1
 273 412 271 420 271 420 c 0x0130
 271 419 l 2
 271 419 272 419 274 417 c 1
 272 420 269 422 267 426 c 1
332 473 m 1
 333 470 335 467 336 464 c 0
 334 469 333 472 332 473 c 1
295 509 m 1
 296 508 298 506 298 505 c 1
 298 505 298 505 295 509 c 1
836 536 m 1
 835 532 833 529 830 525 c 1
 833 529 835 533 836 536 c 1
192 544 m 1
 191 539 190 537 190 536 c 1
 190 537 191 541 192 544 c 1
835 547 m 1
 833 544 832 540 829 537 c 1
 832 540 834 544 835 547 c 1
837 549 m 2x003040
 837 548 837 546 837 544 c 1x003020
 837 548 837 549 837 549 c 2x003040
260 563 m 1
 262 561 263 559 265 557 c 1
 265 558 l 0
 263 560 263 561 260 563 c 1
180 737 m 1
 182 734 184 731 187 729 c 1
 184 731 182 734 180 737 c 1
837 800 m 1
 837 797 837 796 837 794 c 1
 837 796 837 798 837 800 c 1
750 847 m 1
 831 833 l 2
 831 832 831 832 831 831 c 0
 831 830 831 829 831 828 c 0
 834 821 835 816 835 811 c 0
 836 809 837 807 837 807 c 2
 837 807 837 804 837 802 c 0x013120
 838 800 839 792 839 781 c 0
 842 772 841 766 841 761 c 0
 842 758 843 754 843 747 c 0
 844 744 845 739 845 733 c 0
 845 721 844 712 844 705 c 0
 844 678 844 652 844 627 c 2
 844 627 844 629 845 622 c 0
 845 617 846 607 842 597 c 0
 842 593 843 589 841 582 c 0
 842 579 842 574 842 567 c 0
 842 563 841 558 839 553 c 0x013040
 839 550 838 547 837 542 c 0
 837 540 838 540 838 537 c 0
 838 534 836 529 834 524 c 0
 834 523 835 523 835 523 c 2
 835 509 834 497 835 490 c 0
 836 479 834 471 833 467 c 0
 833 455 833 444 833 437 c 0
 833 427 833 427 833 427 c 2
 838 409 835 398 835 395 c 0
 835 381 835 365 835 349 c 0
 835 345 834 346 834 344 c 0
 836 338 837 332 837 329 c 0
 837 326 837 325 837 325 c 1
 837 325 838 326 837 329 c 1
 839 319 838 312 836 306 c 0
 837 291 833 285 833 285 c 2
 832 280 831 279 831 279 c 1x013120
 832 268 830 261 830 259 c 0
 831 250 829 236 820 222 c 0
 819 218 819 213 818 207 c 0
 817 203 815 199 813 195 c 0
 813 194 812 193 812 192 c 0
 811 190 812 192 812 191 c 0
 812 190 811 190 811 188 c 0
 810 185 808 179 805 172 c 0
 804 160 800 149 792 140 c 0
 792 138 789 129 779 119 c 0
 778 116 775 110 766 101 c 1
 770 105 768 103 768 103 c 1
 767 101 765 98 762 95 c 0
 761 94 762 93 761 92 c 0
 759 89 756 85 752 82 c 0
 751 79 748 74 737 68 c 0x093080
 734 65 728 59 717 54 c 1
 717 54 712 50 702 41 c 0
 693 32 685 29 681 28 c 0
 673 21 665 19 658 18 c 0
 651 14 644 12 637 11 c 0
 632 9 625 7 615 7 c 1x203080
 615 7 613 7 606 6 c 2
 606 6 604 5 594 4 c 0
 588 0 583 -3 579 -5 c 0
 577 -6 566 -14 545 -15 c 1
 535 -22 529 -22 525 -21 c 0
 521 -22 516 -24 514 -24 c 0
 510 -24 508 -25 506 -25 c 1x803080
 508 -25 502 -26 494 -27 c 0
 489 -28 483 -29 472 -27 c 0
 468 -26 463 -24 458 -21 c 0
 457 -21 458 -21 457 -21 c 0
 453 -20 448 -17 443 -14 c 0
 433 -14 427 -12 425 -11 c 0x403080
 421 -11 411 -10 401 -5 c 0
 401 -5 402 -5 397 -5 c 0
 392 -5 382 -3 373 2 c 0
 371 3 369 5 366 6 c 0
 358 7 351 10 348 11 c 0
 337 13 328 18 325 20 c 0
 305 26 303 34 303 34 c 1
 289 44 286 46 291 44 c 1
 280 48 275 53 272 56 c 0
 268 58 264 60 262 62 c 0x103080
 262 63 l 0
 255 67 253 70 251 72 c 0
 250 74 249 75 248 76 c 0
 243 78 238 83 232 92 c 0
 230 93 229 93 225 97 c 0
 221 101 213 109 207 119 c 0
 205 120 204 120 199 125 c 0
 191 132 184 141 178 152 c 1x403280
 249 195 l 2
 251 192 254 189 257 186 c 0
 257 186 257 185 258 185 c 0
 263 182 273 174 278 161 c 1
 277 164 278 162 281 159 c 0
 281 159 282 158 285 156 c 0
 288 154 292 149 296 144 c 0
 300 142 305 139 310 133 c 0
 314 130 316 129 317 127 c 0
 318 127 319 126 320 126 c 0
 325 123 326 121 328 119 c 0
 344 111 350 102 351 102 c 0
 365 92 364 95 350 99 c 1
 360 96 365 94 367 92 c 0
 374 90 379 89 381 88 c 0
 388 87 393 85 398 82 c 1
 399 82 400 81 401 81 c 0
 402 80 404 79 405 78 c 0
 404 79 403 80 402 80 c 1
 403 80 404 80 406 79 c 0
 407 79 407 79 407 79 c 1
 407 79 407 78 411 78 c 0
 412 78 414 78 416 77 c 0
 417 77 420 76 420 76 c 2
 421 76 l 0x4438
 422 76 425 74 426 74 c 1
 425 74 423 75 423 75 c 1
 425 74 429 74 433 72 c 0
 435 72 436 72 442 71 c 0
 447 70 446 70 446 70 c 2
 463 71 474 64 477 62 c 0
 479 61 480 60 482 59 c 0
 484 59 483 60 485 59 c 0
 486 59 487 57 488 57 c 0
 490 57 493 58 496 58 c 0
 500 60 503 60 505 61 c 0
 507 61 507 61 508 61 c 1
 507 60 505 60 504 59 c 1
 506 60 507 61 509 62 c 0
 512 62 516 62 517 62 c 0x8038
 518 62 517 64 514 64 c 1x1038
 523 68 532 68 537 68 c 1x0838
 536 68 539 69 547 72 c 0
 557 81 571 85 578 86 c 0
 581 86 584 87 585 87 c 0
 585 87 589 88 597 89 c 0
 599 89 604 89 607 89 c 0
 611 91 615 93 622 94 c 0
 627 97 632 98 636 99 c 0
 637 99 637 99 638 99 c 0
 643 102 646 103 648 104 c 0
 654 110 663 120 679 128 c 0
 680 129 683 131 687 134 c 0
 688 135 689 137 691 139 c 0
 693 142 695 145 698 148 c 0
 699 150 702 153 705 157 c 0
 705 158 l 0
 706 159 708 160 709 161 c 1
 707 159 706 159 705 158 c 1
 706 161 710 166 714 171 c 2
 714 171 714 169 716 174 c 0
 718 178 721 183 724 187 c 0
 725 194 727 201 730 207 c 0
 730 209 729 209 731 214 c 0
 731 215 732 214 732 215 c 0
 733 220 733 225 736 230 c 0
 736 231 738 231 738 232 c 0
 738 234 739 236 739 238 c 0
 741 249 744 255 747 261 c 0
 747 268 747 274 748 277 c 0x2039
 748 289 750 297 751 300 c 0
 752 305 751 305 751 305 c 2
 750 313 751 318 753 322 c 0
 749 333 750 344 751 348 c 0x207080
 752 351 752 353 752 353 c 0
 752 367 752 382 752 397 c 0
 752 407 752 410 753 405 c 1
 748 421 750 432 750 434 c 0
 749 434 l 0
 747 433 747 433 746 432 c 0
 738 421 732 420 732 420 c 2
 723 410 716 406 713 405 c 0
 711 403 706 399 700 395 c 1
 700 396 701 395 701 396 c 1
 700 395 700 395 699 394 c 0
 697 393 696 391 693 390 c 1
 697 392 698 392 699 393 c 1
 687 378 680 380 678 380 c 1
 680 381 683 383 687 387 c 1
 683 384 680 382 677 380 c 0
 670 376 664 373 661 372 c 0
 660 372 659 371 659 371 c 0
 655 368 650 366 644 363 c 0
 640 360 632 355 622 353 c 0
 621 353 618 352 613 350 c 0
 603 346 602 347 602 347 c 2
 590 342 581 341 578 341 c 0
 569 338 560 337 556 337 c 0
 555 337 555 337 554 337 c 2x013080
 554 337 554 335 542 332 c 0
 539 331 530 330 519 330 c 0
 516 329 508 325 494 327 c 0
 492 327 487 328 479 327 c 0x023080
 470 326 464 328 460 329 c 0
 448 328 439 333 433 336 c 0
 432 337 432 336 431 337 c 0
 429 337 430 337 428 337 c 0x013080
 416 339 418 337 427 339 c 1
 409 335 394 341 387 344 c 0
 380 347 377 348 382 347 c 1
 379 348 380 347 378 348 c 0
 366 348 356 351 347 358 c 0
 344 359 341 362 336 365 c 0
 331 366 324 369 315 378 c 0
 309 384 306 387 305 388 c 0
 300 390 295 393 293 395 c 0
 289 399 288 401 286 403 c 0
 284 404 281 408 277 412 c 1
 278 411 l 1
 277 412 278 412 277 412 c 0
 276 413 276 415 275 416 c 1
 275 415 275 414 276 413 c 1
 273 415 271 417 270 418 c 0
 268 420 266 422 264 425 c 0
 263 426 262 427 261 429 c 0
 259 430 257 433 254 436 c 1
 253 437 l 1
 253 436 254 436 254 436 c 1
 251 438 242 443 235 453 c 0
 230 457 227 460 225 464 c 0
 218 471 214 479 212 483 c 0
 209 490 210 488 210 488 c 2
 209 491 208 493 208 493 c 0
 205 497 202 502 201 505 c 0
 199 507 198 509 197 510 c 0
 197 511 l 0
 196 512 197 512 196 513 c 1
 197 512 l 1
 196 512 l 0
 195 515 194 517 194 518 c 0
 196 514 199 509 213 503 c 1
 205 506 199 513 194 519 c 1
 194 518 l 1
 194 519 l 0
 194 518 l 0
 194 517 l 1
 194 518 192 520 192 521 c 0
 191 522 190 525 189 526 c 0
 185 534 184 540 184 544 c 0
 184 549 184 548 184 550 c 0
 184 550 184 552 183 554 c 0
 182 557 l 0
 178 565 174 584 177 595 c 1x00f480
 174 585 174 589 176 610 c 0
 177 622 177 623 178 614 c 1x00f2
 176 637 177 657 177 671 c 0x00f4
 177 677 177 680 177 681 c 0x00f2
 171 699 175 709 175 709 c 0
 175 714 175 714 175 714 c 2
 171 726 172 736 173 742 c 0
 174 749 174 748 174 748 c 1
 174 749 l 2
 171 759 171 768 171 772 c 0
 172 779 172 776 172 776 c 2
 172 783 171 783 171 783 c 2
 168 792 169 800 169 805 c 0
 170 812 170 811 170 811 c 2
 170 813 170 817 168 823 c 1
 249 844 l 1
 251 835 254 822 253 808 c 0
 253 803 253 804 253 802 c 0
 260 784 255 773 255 773 c 2
 255 771 255 773 255 772 c 0
 257 765 258 758 258 754 c 0x00f8
 258 746 257 746 257 746 c 2
 257 740 257 739 256 737 c 0
 263 720 259 707 259 707 c 2
 259 703 259 700 259 699 c 0
 265 681 261 671 261 671 c 0
 261 651 259 635 260 623 c 0
 261 611 260 604 259 602 c 1
 260 602 261 596 260 585 c 0
 261 583 266 575 267 560 c 0
 272 554 270 553 271 551 c 0
 271 550 271 550 271 550 c 0
 273 546 276 542 277 540 c 0
 281 534 284 527 286 522 c 0
 287 519 287 521 288 519 c 0
 291 516 291 515 293 512 c 0
 295 510 298 509 299 507 c 0
 300 505 299 506 300 505 c 0
 303 503 308 500 313 494 c 0
 313 494 314 493 316 492 c 0
 318 491 321 487 324 484 c 0
 329 481 330 479 331 478 c 0
 333 476 334 474 335 473 c 0
 337 471 338 469 339 468 c 0
 341 467 342 464 344 462 c 0
 345 462 346 462 347 462 c 0
 356 458 361 452 364 449 c 0
 365 448 365 448 366 447 c 1
 365 448 364 449 362 450 c 1
 364 449 365 448 366 447 c 0
 368 445 369 444 368 445 c 1
 370 443 372 442 373 440 c 0
 377 438 381 437 385 433 c 0
 386 432 387 431 389 430 c 0
 392 430 395 430 397 429 c 0x00f4
 398 429 399 428 399 428 c 0
 409 426 414 424 417 422 c 0
 430 423 438 421 439 420 c 2
 440 420 l 2x0134
 445 420 456 418 466 412 c 0
 471 412 475 411 478 410 c 0
 483 410 490 410 497 410 c 0x0234
 501 411 509 415 520 413 c 0
 521 413 521 413 522 413 c 2
 522 413 523 415 537 418 c 0
 547 420 552 420 555 420 c 0
 562 422 568 424 571 424 c 0
 579 427 583 428 584 428 c 0
 587 429 593 431 598 432 c 0
 601 434 606 437 612 439 c 0
 612 439 612 440 613 440 c 0
 624 449 633 450 636 451 c 0
 639 453 641 456 643 457 c 0
 643 457 644 457 645 457 c 1
 644 457 l 1
 647 458 649 459 650 459 c 0
 651 459 651 461 649 460 c 1
 650 461 652 462 653 463 c 0
 654 465 658 468 664 472 c 0
 673 479 672 477 672 477 c 2
 683 488 680 490 675 476 c 1
 679 486 684 492 690 496 c 1
 690 504 691 513 698 523 c 0
 700 526 701 527 703 529 c 0
 704 533 707 538 711 543 c 0
 711 544 712 544 712 545 c 0
 713 545 l 0
 714 546 l 0
 715 548 716 550 718 553 c 0
 719 555 720 558 725 563 c 0
 726 566 728 569 731 573 c 0
 732 575 732 578 733 579 c 0
 737 588 738 587 738 588 c 0
 738 588 738 588 739 589 c 1
 739 589 739 589 740 592 c 0
 743 598 743 599 744 600 c 0
 745 605 746 609 748 614 c 0x0135
 748 616 747 618 747 620 c 0
 747 623 750 628 752 633 c 0
 752 635 751 637 752 642 c 0x013080
 752 643 754 645 754 647 c 0
 754 652 755 655 756 658 c 0
 756 669 755 680 755 693 c 0
 755 715 754 740 755 766 c 1
 750 775 750 777 750 779 c 0
 749 783 749 784 749 785 c 0
 749 790 748 794 748 800 c 0
 748 808 748 816 748 824 c 0
 748 826 l 0
 748 827 748 829 748 831 c 0
 748 832 748 833 748 833 c 0
 748 834 l 2
 748 834 747 829 748 837 c 0x0131
 748 838 749 840 749 840 c 2
 750 847 l 1
674 30 m 1
 674 30 l 1
815 208 m 1
 815 206 813 203 813 201 c 1
 814 203 815 206 815 208 c 1
751 247 m 1
 752 248 l 1x003080
 751 247 l 1
645 457 m 1
 646 457 646 459 647 459 c 1
 646 459 646 458 645 457 c 1
572 424 m 1
 573 424 573 424 572 424 c 1
368 445 m 1
 367 446 367 446 366 447 c 0
 367 446 368 445 368 445 c 1
313 494 m 1
 313 494 l 1
313 494 m 1
 314 493 315 492 316 491 c 1
 315 493 313 494 313 494 c 1
178 676 m 1x0032
 178 675 179 674 180 672 c 1
 179 673 179 675 178 676 c 1x0032
182 557 m 1
 182 557 l 1
254 436 m 1
 254 436 l 1
748 278 m 1x0031
 748 279 748 279 748 278 c 1x0031
705 158 m 0
 704 157 705 157 705 157 c 0
 705 158 l 0
499 55 m 1
 498 54 497 53 496 52 c 1
 497 53 498 54 499 55 c 1
475 63 m 1
 472 64 473 64 473 64 c 0x0830
 473 64 474 63 475 63 c 1
348 11 m 1
 346 12 346 11 348 11 c 1
427 -11 m 1x4030
 428 -11 428 -11 427 -11 c 1x4030
681 28 m 1
 680 27 l 0
 678 26 679 27 681 28 c 1
737 68 m 1x0830
 738 69 738 68 738 68 c 0
 737 68 l 1x0830
737 68 m 1
 736 67 734 66 733 65 c 1
 735 66 736 68 737 68 c 1
837 325 m 1x003020
 837 325 l 1x003020
841 583 m 1
 841 587 840 588 841 584 c 0
 841 583 l 1
EndSplineSet
LCarets2: 7 0 0 0 0 0 0 0
MultipleSubs2: "CCMP cartouches" t.yupekosi cart.body
Ligature2: "LIGA basics" y u p e k o s i
EndChar

